<?xml version="1.0" standalone="no"?>
<!DOCTYPE svg PUBLIC "-//W3C//DTD SVG 1.1//EN" "http://www.w3.org/Graphics/SVG/1.1/DTD/svg11.dtd" >
<svg xmlns="http://www.w3.org/2000/svg" xmlns:xlink="http://www.w3.org/1999/xlink" version="1.1">
<metadata></metadata>
<defs>
<font id="chronicle_displaylight_italic" horiz-adv-x="1525" >
<font-face units-per-em="2048" ascent="1638" descent="-410" />
<missing-glyph horiz-adv-x="393" />
<glyph unicode="&#xfb01;" horiz-adv-x="1126" d="M-283 -279q0 40 27 68.5t68 28.5q43 0 67.5 -27t24.5 -67q0 -55 -47 -86q23 -19 63 -19q45 0 77 25.5t65 104.5t65 224l201 930h-224l11 29h219l20 88q34 131 82 223t108.5 143t125 73t141.5 22q132 0 207.5 -57t75.5 -132q0 -45 -29 -77.5t-72 -32.5q-46 0 -73 28 t-27 72q0 63 53 102q-14 27 -51.5 48.5t-91.5 21.5q-107 0 -173 -84t-108 -264l-41 -174h312l260 12l-232 -745q-18 -56 -18 -88q0 -49 46.5 -64t158.5 -4v-12q-17 -7 -47.5 -16.5t-82 -21t-87.5 -11.5q-144 0 -144 122q0 34 19 99l217 700h-404l-162 -764 q-29 -137 -64.5 -237t-72 -159.5t-82 -94t-88 -46.5t-96.5 -12q-87 0 -142 35t-55 96z" />
<glyph unicode="&#xfb02;" horiz-adv-x="1122" d="M-283 -279q0 40 27 68.5t68 28.5q43 0 67.5 -27t24.5 -67q0 -55 -47 -86q23 -19 63 -19q45 0 77 25.5t65 104.5t65 224l201 930h-224l11 29h219l20 88q117 461 449 461q104 0 170 -37l205 29l10 -5l-369 -1269q-14 -58 -14 -80q0 -54 48 -70t165 -4v-14 q-30 -12 -102 -30.5t-123 -18.5q-144 0 -144 124q0 34 17 97l206 700h-393l-162 -764q-29 -137 -64.5 -237t-72 -159.5t-82 -94t-88 -46.5t-96.5 -12q-87 0 -142 35t-55 96zM481 932h400l67 258q-38 4 -60 31.5t-22 66.5q0 67 54 107q-11 22 -44 40.5t-83 18.5 q-101 0 -164 -82t-105 -262z" />
<glyph horiz-adv-x="0" />
<glyph horiz-adv-x="682" />
<glyph unicode=" "  horiz-adv-x="393" />
<glyph unicode="&#x09;" horiz-adv-x="393" />
<glyph unicode="&#xa0;" horiz-adv-x="393" />
<glyph unicode="!" horiz-adv-x="552" d="M70 78q0 46 33 78t79 32t79.5 -32t33.5 -76q0 -47 -33.5 -80t-79.5 -33t-79 32.5t-33 78.5zM258 373q56 261 109 591.5t67 391.5q17 69 43.5 99t65.5 30q43 0 63.5 -29t20.5 -72q0 -52 -42 -174.5t-135.5 -374.5t-164.5 -468z" />
<glyph unicode="&#x22;" horiz-adv-x="874" d="M205 913l90 183q14 28 39 77q83 165 116.5 213t77.5 48q32 0 54 -21t22 -49q0 -40 -47.5 -100.5t-198.5 -214.5l-139 -144zM584 913l90 183q14 28 39 77q83 165 116.5 213t77.5 48q32 0 54 -21t22 -49q0 -40 -47.5 -100.5t-198.5 -214.5l-139 -144z" />
<glyph unicode="#" horiz-adv-x="1439" d="M109 379l2 35h329l162 524h-346l2 35h354l146 467h43l-146 -467h439l145 467h43l-145 -467h323l-2 -35h-332l-161 -524h350l-2 -35h-359l-143 -467h-43l143 467h-438l-143 -467h-43l143 467h-321zM483 414h439l161 524h-438z" />
<glyph unicode="$" horiz-adv-x="1157" d="M86 313q0 57 34.5 98.5t92.5 41.5q44 0 72 -29t28 -68q0 -45 -30 -79t-76 -48q27 -61 93.5 -99.5t145.5 -51.5l162 543l-10 6q-50 23 -82.5 39.5t-72 40t-63.5 46.5t-46.5 52t-32.5 64t-10 75q0 147 137.5 258t343.5 111q7 0 22 -1t23 -1l47 155l41 -10l-45 -151 q129 -21 219 -92t90 -162q0 -53 -33 -91t-83 -38q-42 0 -69.5 26.5t-27.5 67.5q0 39 24.5 71.5t68.5 45.5q-21 53 -74 90.5t-125 52.5l-158 -520l27 -11q50 -24 78.5 -39.5t68.5 -39.5t62.5 -46.5t45 -52t32.5 -65t10 -76.5q0 -72 -36.5 -142t-99 -124t-154.5 -87.5 t-196 -33.5q-37 0 -53 2l-53 -180l-43 12l51 172q-148 19 -247 92t-99 176zM440 1024q-1 -85 54 -141t163 -109l154 508q-7 0 -21 1t-20 1q-132 0 -229.5 -69t-100.5 -191zM483 72q16 -2 47 -2q159 0 245.5 83.5t86.5 200.5q0 84 -53 140t-164 110z" />
<glyph unicode="%" horiz-adv-x="1654" d="M174 825q0 126 71.5 255.5t188.5 214.5t238 85q143 0 182 -127q69 -39 170 -39q199 0 428 197h41l-1186 -1464h-76l1125 1343l-4 6q-71 -55 -166.5 -90t-190.5 -35q-75 0 -131 15v-10q0 -89 -37 -192t-97.5 -191t-147 -146.5t-176.5 -58.5q-113 0 -172.5 64.5 t-59.5 172.5zM309 791q0 -77 30 -120.5t87 -43.5q73 0 148 56t128 137.5t87 175t34 167.5q0 25 -2 37q-79 29 -153 115q-86 -14 -170.5 -100.5t-136.5 -204t-52 -219.5zM893 209q0 126 71.5 255.5t188.5 214.5t238 85q91 0 141.5 -53t50.5 -152q0 -88 -37.5 -191t-98 -191.5 t-147 -147t-176.5 -58.5q-113 0 -172 65t-59 173zM1028 174q0 -77 30 -120.5t87 -43.5q73 0 148 56t128 138t87 175.5t34 167.5q0 76 -31 117t-92 41q-90 0 -183 -87t-150.5 -211.5t-57.5 -232.5z" />
<glyph unicode="&#x26;" horiz-adv-x="1435" d="M59 260q0 90 40 166.5t110.5 132.5t154 95.5t183.5 66.5q-55 82 -78 138t-23 130q0 101 54 187.5t141 136t184 49.5q124 0 199.5 -65.5t75.5 -163.5q0 -119 -103.5 -216t-281.5 -165q144 -193 205 -383q117 177 206.5 263.5t173.5 86.5q57 0 91 -32.5t34 -86.5 q0 -47 -29.5 -81t-74.5 -34q-41 0 -69.5 27.5t-28.5 67.5q0 30 18 61l-4 6q-63 -19 -132.5 -88.5t-172.5 -216.5q48 -159 100.5 -215.5t138.5 -56.5q33 0 63.5 13.5t80.5 51.5l12 -14q-69 -82 -124.5 -119t-117.5 -37q-202 0 -274 240q-108 -123 -206.5 -181.5t-213.5 -58.5 q-162 0 -247 87t-85 208zM240 293q0 -108 62.5 -176t176.5 -68q151 0 322 180q-71 249 -242 473q-148 -66 -233.5 -168t-85.5 -241zM575 1067q0 -126 125 -295q129 65 192.5 171.5t63.5 225.5q0 82 -37.5 126t-103.5 44q-97 0 -168.5 -77t-71.5 -195z" />
<glyph unicode="'" horiz-adv-x="497" d="M205 913l90 183q14 28 39 77q83 165 116.5 213t77.5 48q32 0 54 -21t22 -49q0 -40 -47.5 -100.5t-198.5 -214.5l-139 -144z" />
<glyph unicode="(" horiz-adv-x="784" d="M170 410q0 169 56 330t150.5 290t218.5 237.5t259.5 182.5t273.5 115l5 -17q-189 -68 -342.5 -192.5t-254.5 -282t-155.5 -341t-54.5 -374.5q0 -250 75.5 -408.5t245.5 -277.5l-8 -12q-97 49 -179.5 121t-148.5 165t-103.5 213t-37.5 251z" />
<glyph unicode=")" horiz-adv-x="784" d="M-274 -319q251 91 436.5 277.5t279 422t93.5 491.5q0 248 -76.5 406.5t-245.5 277.5l6 13q98 -49 180.5 -120.5t149 -164.5t104 -213t37.5 -252q0 -169 -56.5 -330t-151 -290t-219 -237.5t-260 -182.5t-273.5 -115z" />
<glyph unicode="*" horiz-adv-x="866" d="M274.5 1274q-9.5 24 4.5 47q31 50 94 10q41 -25 194 -178l13 4q0 230 8 264q16 73 71 64q56 -11 39 -88q-3 -13 -13.5 -39t-26 -59t-28 -59.5t-27 -55.5l-15.5 -31l10 -6q1 0 62 20t115.5 36t76.5 18q75 7 78 -50q3 -30 -15 -45t-53 -18q-22 -3 -80 3t-117.5 14t-66.5 8 l-8 -7q0 -1 27.5 -37.5t49 -66.5t45 -65.5t29.5 -51.5q28 -71 -22 -92q-52 -23 -82 49q-8 19 -20 74t-23.5 119t-11.5 65l-13 4q-18 -30 -77.5 -110t-83.5 -99q-58 -48 -95 -6q-36 42 21 92q37 32 229 132v12q-39 11 -132 42t-118 46q-29 17 -38.5 41z" />
<glyph unicode="+" horiz-adv-x="1124" d="M150 647l8 35h438l111 438h41l-111 -438h440l-8 -35h-440l-109 -440h-41l109 440h-438z" />
<glyph unicode="," horiz-adv-x="436" d="M-145 -260q232 100 286 237l-8 5q-52 -7 -84.5 22t-32.5 76q0 45 33.5 77.5t79.5 32.5t80.5 -36t34.5 -88q0 -97 -98 -186t-285 -161z" />
<glyph unicode="-" horiz-adv-x="749" d="M119 494l20 73h525l-21 -73h-524z" />
<glyph unicode="." horiz-adv-x="434" d="M14 78q0 45 33.5 77.5t79.5 32.5t79.5 -32t33.5 -76q0 -47 -33.5 -80t-79.5 -33t-79.5 32.5t-33.5 78.5z" />
<glyph unicode="/" horiz-adv-x="925" d="M-248 -440l701 985l690 983h49l-700 -987l-691 -981h-49z" />
<glyph unicode="0" horiz-adv-x="1232" d="M111 473q0 96 24 201t67 205.5t107.5 191.5t141 159.5t173 109t197.5 40.5q177 0 289.5 -132t112.5 -369q0 -115 -33 -241t-97 -244t-148.5 -213t-198 -152.5t-234.5 -57.5q-176 0 -288.5 133t-112.5 369zM279 346q0 -169 55.5 -256.5t179.5 -87.5q95 0 182 65.5 t150.5 172.5t112 239t72.5 269t24 258q0 170 -55 258t-179 88q-95 0 -182 -65.5t-151 -172.5t-112 -239.5t-72.5 -269.5t-24.5 -259z" />
<glyph unicode="1" horiz-adv-x="825" d="M-63 0l4 18q114 4 175 16.5t90 36.5t42 70l270 1008q10 36 13 57.5t-2 41.5t-19 30t-44 18.5t-71.5 11.5t-105.5 5l6 16l453 37l-332 -1225q-13 -41 -1.5 -67t67.5 -39.5t175 -16.5l-4 -18h-716z" />
<glyph unicode="2" horiz-adv-x="1075" d="M-14 0l26 113l525 391q204 150 292.5 286t88.5 302q0 125 -56.5 193.5t-167.5 68.5q-91 0 -168.5 -48t-111.5 -122q48 -17 73 -52.5t25 -80.5q0 -53 -33.5 -90t-83.5 -37q-54 0 -86.5 35t-32.5 96q0 123 127.5 224t307.5 101t283.5 -85t103.5 -216q0 -57 -19.5 -108 t-60 -106t-119.5 -125.5t-181.5 -150t-262.5 -194.5l-346 -252v-4h501q55 0 89.5 5t66.5 17.5t58.5 41t53.5 68.5t62 106l18 -2l-108 -375h-864z" />
<glyph unicode="3" horiz-adv-x="1110" d="M53 246q0 60 33.5 103.5t89.5 43.5q48 0 75.5 -33.5t27.5 -76.5q0 -51 -29 -85.5t-76 -50.5q23 -57 95.5 -103t185.5 -46q148 0 231 80q57 54 90 145.5t33 184.5q0 144 -99.5 208t-285.5 70l10 33q295 0 412 108q58 52 86.5 136t28.5 159q0 232 -242 232 q-103 0 -178 -41.5t-107 -91.5q40 -15 66 -46.5t26 -74.5q0 -46 -31 -83.5t-85 -37.5q-48 0 -80.5 32.5t-32.5 84.5q0 112 127 198t307 86q191 0 294 -84.5t103 -212.5q0 -51 -21 -101t-67 -98t-111 -86t-160 -64.5t-208 -33.5l-2 -8q216 -21 320 -104.5t104 -214.5 q0 -170 -147 -286t-371 -116q-185 0 -298.5 83.5t-113.5 191.5z" />
<glyph unicode="4" horiz-adv-x="1153" d="M35 446l20 78l903 828h89l-218 -805h304l-29 -101h-301l-84 -313q-16 -58 21 -84.5t167 -30.5l-4 -18h-596l4 18q122 4 173 30t67 85l84 313h-600zM129 547h533l174 641h-7z" />
<glyph unicode="5" horiz-adv-x="1095" d="M63 244q0 55 35.5 98t91.5 43q49 0 77 -30t28 -74q0 -49 -28 -84.5t-72 -51.5q21 -64 84 -105.5t170 -41.5q82 0 149 37.5t108.5 95t69.5 130.5t39.5 140t11.5 127q0 277 -233 277q-162 0 -328 -111l-33 13l197 645h748l-60 -146h-696l-148 -473q182 107 340 107 q175 0 279 -92t104 -250q0 -107 -44 -204t-119 -168t-178.5 -113t-217.5 -42q-160 0 -267.5 81.5t-107.5 191.5z" />
<glyph unicode="6" horiz-adv-x="1130" d="M106 401q0 269 134 481t377 341.5t569 165.5l-2 -21q-165 -32 -301.5 -90t-228.5 -127.5t-162 -156.5t-109 -167t-64 -168l7 -4q172 246 391 246q165 0 253.5 -97.5t88.5 -252.5q0 -106 -42 -210t-114.5 -186t-179.5 -133t-227 -51q-122 0 -212.5 60.5t-134 156.5 t-43.5 213zM268 311q0 -147 59.5 -228t172.5 -81q87 0 162 55.5t123 143t75 191t27 202.5q0 274 -199 274q-69 0 -142.5 -41t-135.5 -111.5t-102 -177.5t-40 -227z" />
<glyph unicode="7" horiz-adv-x="1015" d="M66 -12l1015 1229h-571q-101 0 -155 -49.5t-136 -215.5h-16l119 400h870l6 -19l-563 -794l-393 -559h-176v8z" />
<glyph unicode="8" horiz-adv-x="1112" d="M84 289q0 127 106 228.5t306 162.5q-99 63 -151 132.5t-52 162.5q0 77 35 150.5t95.5 130t149 90.5t189.5 34q177 0 274 -82.5t97 -203.5t-99.5 -219t-281.5 -158q58 -34 97 -63t77.5 -69.5t58 -91.5t19.5 -112q0 -88 -43.5 -165.5t-114 -130.5t-161.5 -83.5t-185 -30.5 q-201 0 -308.5 90.5t-107.5 227.5zM233 289q0 -127 79.5 -207t201.5 -80q46 0 90 11t86.5 36.5t74.5 61.5t51.5 90.5t19.5 120.5q0 56 -21.5 103.5t-66 88t-88 69.5t-111.5 66l-29 15q-139 -58 -213 -160.5t-74 -214.5zM451 1051q0 -51 21.5 -97.5t63 -86.5t83 -69.5 t100.5 -64.5q128 63 196 163.5t68 213.5t-63 176.5t-170 63.5q-121 0 -209.5 -80.5t-89.5 -218.5z" />
<glyph unicode="9" horiz-adv-x="1122" d="M55 -37l2 21q173 35 311.5 94t229 126t157.5 152.5t103 162.5t60 167l-7 4q-160 -239 -387 -239q-165 0 -254.5 100.5t-89.5 259.5q0 104 42.5 206.5t115 183t180 130t227.5 49.5q122 0 211.5 -60.5t133 -156.5t43.5 -213q0 -270 -133.5 -481t-376 -340t-568.5 -166z M352 778q0 -151 54 -223t153 -72q53 0 110.5 24.5t111.5 74t97 116t69 158t26 193.5q0 138 -60 220.5t-174 82.5q-86 0 -160.5 -53t-123 -137t-76 -184.5t-27.5 -199.5z" />
<glyph unicode=":" horiz-adv-x="442" d="M14 78q0 45 33.5 77.5t79.5 32.5t79.5 -32t33.5 -76q0 -47 -33.5 -80t-79.5 -33t-79.5 32.5t-33.5 78.5zM178 702q0 46 33 78.5t80 32.5q46 0 78 -32t32 -76q0 -47 -32 -80t-78 -33q-47 0 -80 32t-33 78z" />
<glyph unicode=";" horiz-adv-x="448" d="M-145 -260q232 100 286 237l-8 5q-52 -7 -84.5 22t-32.5 76q0 45 33.5 77.5t79.5 32.5t80.5 -36t34.5 -88q0 -97 -98 -186t-285 -161zM178 702q0 46 33 78.5t80 32.5q46 0 78 -32t32 -76q0 -47 -32 -80t-78 -33q-47 0 -80 32t-33 78z" />
<glyph unicode="&#x3c;" horiz-adv-x="1126" d="M219 647l8 33l914 446l-15 -49l-856 -418l652 -409l-13 -45z" />
<glyph unicode="=" horiz-adv-x="1112" d="M102 442l9 37h897l-9 -37h-897zM205 850l8 35h897l-8 -35h-897z" />
<glyph unicode="&#x3e;" horiz-adv-x="1126" d="M84 205l14 51l858 416l-653 409l12 45l691 -442l-9 -33z" />
<glyph unicode="?" horiz-adv-x="927" d="M164 78q0 46 32.5 78t79.5 32q46 0 78.5 -32t32.5 -76q0 -47 -32.5 -80t-78.5 -33q-47 0 -79.5 32.5t-32.5 78.5zM240 1190q-1 71 50.5 139t145 112t201.5 44q179 0 291 -91.5t112 -236.5q0 -185 -156.5 -306.5t-445.5 -178.5l-82 -301l-39 8l86 317q467 99 467 508 q0 134 -64 194t-175 60q-79 0 -142 -28.5t-94.5 -63.5t-48.5 -74q51 -11 78 -44t29 -74q0 -38 -29 -69.5t-76 -31.5q-46 0 -77 32t-31 85z" />
<glyph unicode="@" horiz-adv-x="1861" d="M156 444q0 162 46.5 309.5t133 264.5t202.5 203.5t261.5 133t304.5 46.5q145 0 271.5 -47t217.5 -129.5t143 -200.5t52 -254q0 -119 -30 -223.5t-80.5 -179.5t-115.5 -129.5t-137 -81.5t-143 -27q-124 0 -179.5 51.5t-53.5 136.5h-7q-121 -174 -262 -174 q-100 0 -159.5 63.5t-59.5 178.5q0 137 70.5 275.5t183 226.5t225.5 88q144 0 191 -146h2l53 132l144 18l-119 -283l-113 -307q-20 -56 -20 -100q0 -58 33 -89.5t98 -31.5q78 0 156.5 44.5t142 121t103.5 191.5t40 245q0 169 -82 306t-231 215.5t-336 78.5 q-195 0 -365.5 -74t-289 -200t-186.5 -296t-68 -358q0 -206 85 -365.5t251 -252t391 -92.5q161 0 289.5 43t250.5 127l17 -23q-253 -178 -562 -178q-345 0 -552 202t-207 541zM709 391q0 -90 37.5 -135t97.5 -45q110 0 217 176l149 387q-11 81 -53.5 127.5t-109.5 46.5 q-69 0 -134.5 -60t-108.5 -147.5t-69 -182t-26 -167.5z" />
<glyph unicode="A" horiz-adv-x="1374" d="M-141 0l6 18q67 10 112.5 28.5t90.5 60t81.5 91.5t96.5 144l710 1108h31l168 -1227q7 -46 12 -72t15 -50.5t21 -35.5t33 -21.5t47 -15.5t67 -10l-7 -18h-565l6 18q52 3 84 6.5t57.5 13t38 21.5t18.5 34.5t5 49t-6 68.5l-43 356h-500l-149 -235q-46 -74 -69 -121.5 t-29.5 -83.5t11.5 -56.5t51.5 -32.5t94.5 -20l-4 -18h-485zM459 600h475l-76 625h-6z" />
<glyph unicode="B" horiz-adv-x="1343" d="M-74 0l4 18q103 4 160 18.5t80.5 37.5t34.5 65l305 1147q9 28 5.5 49.5t-23 37t-65.5 24.5t-122 12l4 18h525q136 0 236 -23t157 -64.5t83.5 -92.5t26.5 -112q0 -143 -122.5 -247t-364.5 -132l-2 -6q389 -49 389 -322q0 -80 -42.5 -154.5t-123.5 -136.5t-214.5 -99.5 t-299.5 -37.5h-631zM348 33h230q464 0 464 446q0 87 -32 141.5t-115 85.5t-223 31h-135zM547 770h153q453 0 453 397q0 121 -72.5 174.5t-251.5 53.5h-116z" />
<glyph unicode="C" horiz-adv-x="1384" d="M125 569q0 134 40 265t116.5 243.5t179.5 199t238 136t282 49.5q107 0 209.5 -33.5t163.5 -76.5l106 104h21l-125 -446h-23q-38 243 -116 334.5t-248 91.5q-115 0 -219 -52.5t-181.5 -141.5t-135 -202.5t-87 -240t-29.5 -250.5q0 -229 118 -372.5t321 -143.5 q297 0 530 356l23 -16q-42 -64 -82.5 -116t-100 -109t-122 -95t-146 -63t-174.5 -25q-249 0 -404 166t-155 438z" />
<glyph unicode="D" horiz-adv-x="1536" d="M-61 0l4 18q99 5 153 19.5t77 37t34 64.5l307 1147q10 37 2 62.5t-54.5 40.5t-142.5 20l5 18h497q181 0 318 -44t219.5 -123t123 -180t40.5 -222q0 -160 -64 -317t-186 -279q-262 -262 -682 -262h-651zM352 33h260q269 0 453 184q126 126 194 317.5t68 409.5 q0 230 -116 341.5t-369 111.5h-125z" />
<glyph unicode="E" horiz-adv-x="1353" d="M-61 0l4 18q103 4 160 18.5t80 37.5t34 65l305 1147q9 28 5.5 49.5t-23 37t-65.5 24.5t-122 12l5 18h1122l-101 -405h-22q-10 70 -15.5 107.5t-15.5 84t-19 67.5t-25.5 46.5t-34.5 35t-47 19.5t-62.5 12.5t-81.5 2.5h-295l-166 -627h154q43 0 70 2.5t55 12.5t46.5 24 t43 44t46.5 66t56 95h23l-140 -539h-20q-3 65 -6 103t-12 71t-19.5 48t-33 26t-48.5 13.5t-69 2.5h-156l-189 -706h351q71 0 122 6.5t95.5 27.5t75.5 44t70 73t69.5 96.5t83.5 131.5q3 6 5 9t5 8t6 9h23l-131 -438h-1196z" />
<glyph unicode="F" horiz-adv-x="1298" d="M-61 0l4 18q103 4 160 18.5t80 37.5t34 65l305 1147q9 28 5.5 49.5t-23 37t-65.5 24.5t-122 12l5 18h1122l-103 -415h-22q-10 73 -15.5 110t-15 85.5t-18.5 69t-25 48t-34.5 36.5t-47 20t-62.5 13.5t-81 2.5h-295l-172 -647h152q47 0 70.5 1t53.5 9t46.5 20.5t41 40 t46.5 63t55 93.5h22l-137 -535h-22q-3 67 -5.5 104t-10.5 73t-18.5 51.5t-31 29t-47 16.5t-68.5 3h-157l-154 -578q-8 -28 -3.5 -49.5t26.5 -37t73.5 -24.5t135.5 -12l-5 -18h-677z" />
<glyph unicode="G" horiz-adv-x="1474" d="M125 569q0 134 40 265t116.5 243.5t179.5 199t238 136t282 49.5q107 0 209.5 -33.5t163.5 -76.5l106 104h21l-123 -436h-23q-41 240 -118.5 328t-247.5 88q-115 0 -219.5 -54.5t-182 -146.5t-135 -210.5t-86.5 -250.5t-29 -262q0 -227 114.5 -373.5t305.5 -146.5 q154 0 273 82l114 436q10 37 2 63t-57 41t-149 19l4 18h579l-4 -18q-104 -6 -145.5 -33t-59.5 -90l-114 -412q-117 -63 -223.5 -98t-235.5 -35q-264 0 -430 171t-166 433z" />
<glyph unicode="H" horiz-adv-x="1644" d="M-72 0l4 18q103 5 160 19.5t80.5 37t34.5 64.5l305 1147q9 28 5.5 49.5t-23 37t-65.5 24.5t-122 12l4 18h631l-4 -18q-77 -4 -124.5 -12.5t-73.5 -26t-36.5 -36t-19.5 -52.5l-139 -524h702l142 528q8 35 0.5 60.5t-56 41.5t-145.5 21l4 18h647l-4 -18q-103 -4 -160 -18.5 t-80 -37.5t-34 -65l-306 -1147q-9 -28 -5.5 -49.5t23 -37t65.5 -24.5t122 -12l-4 -18h-631l4 18q77 4 124.5 12.5t73.5 26t36.5 36t19.5 52.5l156 580h-704l-156 -584q-8 -35 -0.5 -60.5t56 -41.5t145.5 -21l-5 -18h-647z" />
<glyph unicode="I" horiz-adv-x="800" d="M-68 0l5 18q103 4 162.5 18t85 38t36.5 65l305 1147q9 29 4.5 51t-26.5 37.5t-71 24t-130 10.5l4 18h680l-4 -18q-104 -4 -162.5 -17.5t-84 -37t-36.5 -64.5l-307 -1149q-9 -29 -4.5 -51t26.5 -37.5t71 -24t130 -10.5l-4 -18h-680z" />
<glyph unicode="J" horiz-adv-x="1099" d="M-16 205q0 62 40.5 108.5t100.5 46.5q53 0 83 -33t30 -83q0 -52 -36 -90t-96 -45q24 -53 76 -86t123 -33q120 0 192.5 82t118.5 254l256 960q5 20 5 36t-5 29q-10 26 -63.5 40.5t-163.5 17.5l4 18h684l-4 -18q-104 -4 -162 -17.5t-83.5 -37t-36.5 -64.5l-238 -893 q-120 -434 -496 -434q-145 0 -237 70t-92 172z" />
<glyph unicode="K" horiz-adv-x="1513" d="M-63 0l4 18q104 5 161 19.5t79.5 37t33.5 64.5l305 1147q9 28 6 49.5t-22 37t-65 24.5t-122 12l5 18h630l-4 -18q-77 -4 -124.5 -12.5t-73.5 -26t-36.5 -36t-19.5 -52.5l-176 -659l674 546q94 77 122 125q12 21 12 37q0 21 -20 37q-35 28 -139 41l4 18h543l-4 -18 q-103 -17 -158 -36.5t-126 -66.5t-212 -161l-362 -293l276 -600q28 -61 49.5 -97t42 -61.5t49 -39t58 -21t82.5 -15.5l-4 -18h-612l4 18q144 9 177 48q14 16 14 42q0 36 -27 91l-246 542l-211 -170l-115 -430q-8 -26 -4.5 -47.5t20.5 -36.5t57.5 -25t106.5 -14l-4 -18h-628z " />
<glyph unicode="L" horiz-adv-x="1259" d="M-61 0l4 18q103 4 160 18.5t80 37.5t34 65l305 1147q9 28 5.5 49.5t-23 37t-65.5 24.5t-122 12l5 18h630l-4 -18q-96 -4 -148.5 -19t-72.5 -38t-31 -66l-336 -1253h297q179 0 258 68.5t243 333.5q13 21 20 32h24l-137 -467h-1126z" />
<glyph unicode="M" horiz-adv-x="1931" d="M-70 0l4 18q106 10 161.5 35t86.5 73.5t58 147.5l260 990q6 23 6 42q0 15 -4 28q-8 29 -56.5 48t-146.5 29l4 16h426l178 -1202h4l789 1202h428l-4 -18q-103 -4 -160 -18.5t-80.5 -37.5t-34.5 -65l-305 -1147q-9 -28 -5.5 -49.5t23 -37t65.5 -24.5t122 -12l-4 -18h-631 l4 18q77 4 124.5 12.5t73.5 26t36.5 36t19.5 52.5l314 1182h-7l-880 -1343h-23l-211 1343h-8l-276 -1053q-13 -53 -19 -84.5t-3.5 -60.5t13 -44t36 -29t59.5 -22t90 -16l-4 -18h-523z" />
<glyph unicode="N" horiz-adv-x="1613" d="M-68 0l5 18q57 9 94.5 17.5t69 22.5t50 30t35.5 44.5t28 60t24 81.5l254 957q7 25 7 47q0 44 -28 76q-42 48 -172 57l4 16h354l592 -1185h4l240 913q14 50 19.5 82t2 60t-15 44t-38 30t-61.5 22t-91 16l4 18h514l-4 -18q-67 -11 -107.5 -23t-71 -27.5t-49.5 -45 t-32 -63.5t-29 -95l-315 -1190h-27l-649 1299h-2l-262 -990q-13 -50 -18.5 -81.5t-3.5 -60t13.5 -45t37 -30.5t60.5 -22.5t91 -16.5l-4 -18h-523z" />
<glyph unicode="O" d="M127 553q0 168 66 332t177 291.5t271 206.5t336 79q235 0 390 -166t155 -422q0 -168 -66 -332t-177.5 -291.5t-271.5 -206.5t-335 -79q-236 0 -390.5 166.5t-154.5 421.5zM317 471q0 -146 36.5 -251t118.5 -166.5t206 -61.5q111 0 214.5 58t181.5 156t137 222t89.5 261 t30.5 269q0 146 -36 250.5t-117.5 166t-204.5 61.5q-140 0 -265 -89t-209 -229t-133 -310.5t-49 -336.5z" />
<glyph unicode="P" horiz-adv-x="1251" d="M-74 0l4 18q104 4 161.5 18.5t81 37.5t34.5 65l305 1147q9 28 5.5 49.5t-23 37t-65.5 24.5t-122 12l4 18h486q123 0 217.5 -20t151 -51.5t92 -76t48.5 -88t13 -93.5q0 -198 -176 -328.5t-475 -130.5h-156l-133 -498q-8 -35 -0.5 -61t59.5 -42t156 -20l-4 -18h-664z M520 672h139q110 0 195 28t137.5 72.5t86 106.5t46.5 125t13 133q0 133 -73 196.5t-247 63.5h-102z" />
<glyph unicode="Q" d="M127 553q0 168 66 332t177 291.5t271 206.5t336 79q235 0 390 -166t155 -422q0 -165 -64.5 -327t-173 -288t-264 -206.5t-326.5 -85.5q48 -17 93 -58t78.5 -86.5t67 -89t72 -72t80.5 -28.5q33 0 54.5 18.5t21.5 43.5q0 15 -11 28.5t-24.5 23.5t-24.5 28.5t-11 42.5 q0 39 28 67.5t70 28.5t69 -32q25 -31 25 -73v-6q-2 -89 -79 -150t-199 -61q-73 0 -135.5 34t-105.5 82t-82.5 96t-84.5 82t-92 34q-68 0 -130.5 -38.5t-142.5 -137.5l-16 18q71 96 155.5 151t170.5 69q-186 43 -300 198.5t-114 372.5zM317 471q0 -146 36.5 -251 t118.5 -166.5t206 -61.5q111 0 214.5 58t181.5 156t137 222t89.5 261t30.5 269q0 146 -36 250.5t-117.5 166t-204.5 61.5q-140 0 -265 -89t-209 -229t-133 -310.5t-49 -336.5z" />
<glyph unicode="R" horiz-adv-x="1384" d="M-74 0l4 18q103 4 160 18.5t80.5 37.5t34.5 65l305 1147q9 28 5.5 49.5t-23 37t-65.5 24.5t-122 12l4 18h488q146 0 252.5 -23t168.5 -65t90.5 -96t28.5 -123q0 -154 -129 -258t-374 -139l-3 -6q97 -9 158.5 -32t94.5 -65q33 -44 44 -98q8 -40 8 -94q0 -20 -1 -41 l-9 -162q-2 -28 -2 -52q0 -29 3 -49q5 -37 27 -63.5t63 -36.5t112 -12l-4 -20q-8 0 -47.5 -1t-46.5 -1q-146 0 -208.5 23.5t-74.5 81.5q-6 29 -6 68t6 87l15 158q3 36 3 66q0 36 -4 64q-8 52 -39.5 90t-91.5 55t-155 17h-148l-151 -559q-8 -35 -0.5 -60.5t56 -41.5 t145.5 -21l-5 -18h-647zM537 733h147q226 0 347.5 117.5t121.5 304.5q0 127 -77 184.5t-259 57.5h-102z" />
<glyph unicode="S" horiz-adv-x="1112" d="M-12 -37l118 469h17q30 -132 70.5 -219.5t93.5 -133t108.5 -62.5t130.5 -17q160 0 250 93.5t90 234.5q0 48 -12 87t-43.5 83t-93 90t-154.5 94q-157 80 -224 157t-67 197q0 83 36 159t99.5 134t157.5 92.5t203 34.5q171 0 328 -96l112 108h21l-109 -432h-20 q-25 123 -60.5 203t-83 120t-95 54t-113.5 14q-138 0 -226 -85.5t-88 -217.5q0 -45 14 -83t35 -66.5t62 -59.5t78.5 -54t101.5 -58q104 -57 165 -106.5t97.5 -117t36.5 -153.5q0 -68 -18 -132t-59 -123.5t-100 -103.5t-147 -70t-194 -26q-201 0 -381 107l-115 -115h-22z" />
<glyph unicode="T" horiz-adv-x="1361" d="M205 981l139 446h1190l-107 -446h-22q-29 216 -49 278q-27 87 -87 115q-50 23 -147 23h-108l-334 -1256q-9 -29 -4.5 -51t26.5 -37.5t71 -24t130 -10.5l-4 -18h-680l4 18q103 4 162 18t84.5 38t36.5 65l336 1258h-111q-66 0 -112 -11t-87.5 -33.5t-87.5 -75.5t-91.5 -117 t-119.5 -179h-28z" />
<glyph unicode="U" horiz-adv-x="1566" d="M242 358q0 80 20 150l209 778q9 28 5.5 49.5t-23 37t-65.5 24.5t-122 12l4 18h631l-4 -18q-77 -4 -124.5 -12.5t-73.5 -26t-36.5 -36t-19.5 -52.5l-205 -774q-22 -78 -22 -164q0 -148 87.5 -234.5t260.5 -86.5q199 0 317.5 103.5t180.5 340.5l182 688q13 50 18.5 82t2 60 t-15.5 44t-38.5 30t-62 22t-91.5 16l5 18h516l-4 -18q-57 -9 -93 -17.5t-66 -23t-47 -29t-33 -44t-26 -59t-24 -81.5l-191 -723q-29 -108 -71 -188t-109.5 -145.5t-170 -99.5t-238.5 -34q-115 0 -205 31t-145.5 85t-84 124.5t-28.5 152.5z" />
<glyph unicode="V" horiz-adv-x="1404" d="M193 1409l4 18h571l-4 -18q-44 -2 -74.5 -5.5t-55.5 -9t-39.5 -15t-24.5 -21.5t-13 -31t-2.5 -41t4.5 -55l121 -1038h6l567 899q48 75 71.5 124.5t29.5 85.5t-14.5 57t-58 32.5t-103.5 17.5l4 18h504l-5 -18q-85 -11 -144.5 -45t-108 -92t-121.5 -172l-727 -1137h-29 l-162 1254q-8 58 -17 88t-31.5 52.5t-54 32t-93.5 19.5z" />
<glyph unicode="W" horiz-adv-x="2050" d="M188 1409l5 18h544l-4 -18q-47 -2 -77 -6t-52 -13t-32.5 -20t-15.5 -32.5t-4 -44.5t5 -62l111 -1022h6l495 813l-20 192q-7 58 -16 88.5t-32.5 53.5t-56.5 33t-96 20l4 18h564l-5 -18q-74 -3 -112 -11.5t-59.5 -28t-21.5 -52.5t3 -86l96 -1016h6l486 866q43 76 63 126 q21 51 25 89q1 6 1 11q0 30 -18 49q-22 22 -61.5 34.5t-108.5 18.5l5 18h491l-4 -18q-50 -7 -87.5 -22t-67.5 -36t-61.5 -61.5t-57.5 -82.5t-68 -115l-639 -1129h-29l-116 1004l-607 -1004h-28l-156 1251q-9 76 -26 111t-53.5 53t-117.5 31z" />
<glyph unicode="X" horiz-adv-x="1429" d="M-135 0l4 18q92 12 147.5 34t121 75t175.5 168l398 414l-201 516q-28 75 -53 108t-69.5 50.5t-133.5 25.5l4 18h623l-4 -18q-147 -6 -187 -47q-22 -22 -21 -59q0 -30 15 -70l156 -426l344 360q108 114 108 168q0 5 -1 10q-11 53 -148 64l4 18h512l-4 -18 q-129 -15 -206.5 -62.5t-238.5 -213.5l-356 -367l213 -563q21 -56 36.5 -85t43 -51.5t65 -32t103.5 -16.5l-4 -18h-627l4 18q152 7 194 49q24 24 24 63q0 29 -13 67l-168 473l-385 -408q-106 -115 -106 -170q0 -6 1 -10q11 -54 146 -64l-4 -18h-512z" />
<glyph unicode="Y" horiz-adv-x="1376" d="M225 1411l4 16h627l-4 -18q-131 -4 -187 -19.5t-64 -49.5q-2 -9 -2 -19q0 -30 17 -72l193 -573l424 495q90 103 90 156q0 10 -3 17q-18 53 -175 65l4 18h512l-4 -18q-55 -6 -93 -16t-67.5 -23t-67 -47.5t-67 -66t-90.5 -101.5l-447 -516l-133 -498q-9 -29 -4.5 -51 t26.5 -37.5t71 -24t130 -10.5l-4 -18h-680l5 18q103 4 162 18.5t84 38t36 64.5l133 498l-209 604q-24 69 -46 100t-58.5 46t-112.5 24z" />
<glyph unicode="Z" horiz-adv-x="1308" d="M-55 20l1292 1377h-446q-58 0 -102.5 -13t-102 -53.5t-125.5 -117.5t-162 -203l-23 4l146 413h1040l2 -18l-1288 -1376h500q62 0 105.5 12.5t100.5 56t122.5 120.5t166.5 212l19 -2l-143 -432h-1100z" />
<glyph unicode="[" horiz-adv-x="735" d="M-16 -338l510 1903h579l-8 -33h-432l-492 -1837h430l-8 -33h-579z" />
<glyph unicode="\" horiz-adv-x="925" d="M291 1528h43l164 -983l170 -985h-43l-162 981z" />
<glyph unicode="]" horiz-adv-x="735" d="M-268 -340l10 33h432l492 1837h-430l8 33h579l-510 -1903h-581z" />
<glyph unicode="^" horiz-adv-x="722" d="M207 1122l416 434h20l195 -434h-33l-213 256l-340 -256h-45z" />
<glyph unicode="_" horiz-adv-x="901" d="M-125 0l12 53h912l-15 -53h-909z" />
<glyph unicode="`" horiz-adv-x="487" d="M283 1401q0 31 21.5 52.5t53.5 21.5t55 -27.5t58 -97.5l137 -269h-10l-233 205q-41 37 -61.5 63.5t-20.5 51.5z" />
<glyph unicode="a" horiz-adv-x="1062" d="M72 299q0 109 46 225.5t119.5 211t176 155.5t207.5 61q144 0 206 -131l41 111l158 22l-111 -331l-114 -420q-19 -74 -19 -101q0 -45 42 -60q26 -9 71 -9q30 0 68 4v-12q-106 -45 -193 -45q-67 0 -102 19.5t-35 76.5q0 48 20 112l-4 2q-71 -110 -144 -160t-165 -50 q-124 0 -196 84t-72 235zM238 305q0 -115 44 -187.5t124 -72.5q52 0 105.5 39t88.5 85.5t64 100.5l139 475q-16 88 -64 133.5t-110 45.5q-63 0 -125 -43.5t-108.5 -112.5t-83 -151.5t-55.5 -164.5t-19 -147z" />
<glyph unicode="b" horiz-adv-x="1026" d="M53 98l123 424l205 805q4 14 4 26q1 34 -29 52q-40 25 -149 31v16l377 16l-193 -682l4 -4q153 170 318 170q108 0 176.5 -78t68.5 -221q0 -107 -46.5 -226t-124 -218t-189 -164t-229.5 -65q-100 0 -175.5 28.5t-140.5 89.5zM217 100q22 -43 65.5 -67.5t98.5 -24.5 q84 0 163 59.5t133 151t87 202t33 212.5q0 109 -46.5 168t-136.5 59q-58 0 -119 -33t-112 -84z" />
<glyph unicode="c" horiz-adv-x="880" d="M68 356q0 147 71.5 284.5t195 224.5t261.5 87q113 0 183.5 -49t70.5 -121q0 -50 -28 -80t-72 -30q-45 0 -73 27t-28 69q0 28 21 59t61 47q-39 50 -121 50q-81 0 -154.5 -54.5t-122 -139.5t-76.5 -185t-28 -193q0 -151 63.5 -233t180.5 -82q151 0 281 164l18 -19 q-156 -202 -354 -202q-151 0 -250.5 101t-99.5 275z" />
<glyph unicode="d" horiz-adv-x="1050" d="M70 315q0 80 26.5 169t75.5 171.5t112.5 149.5t145.5 107t166 40q131 0 223 -96l125 471q4 14 4 26q0 34 -30 52q-40 25 -150 31v16l377 16l-344 -1241q-21 -82 -21 -110q0 -51 43 -71q28 -13 81 -13q29 0 65 4v-12q-25 -13 -84.5 -29t-114.5 -16q-141 0 -141 110 q0 37 12 86h-4q-142 -196 -303 -196q-124 0 -194 92t-70 243zM233 317q0 -119 48 -187.5t133 -68.5q65 0 127 51t106 130l152 516q-26 74 -77.5 120t-117.5 46q-69 0 -130.5 -45t-104 -114t-74.5 -152t-47 -160t-15 -136z" />
<glyph unicode="e" horiz-adv-x="880" d="M61 324q0 91 28 183t79.5 171t120 141t155.5 97.5t179 35.5q119 0 185 -55t66 -145q0 -130 -160 -215q-158 -84 -471 -84h-7q-11 -75 -11 -119q0 -154 53.5 -226.5t170.5 -72.5q159 0 296 174l21 -19q-169 -210 -385 -210q-63 0 -118 19t-101.5 58t-73.5 107.5t-27 159.5 zM242 479q487 7 487 316q0 60 -29.5 93.5t-85.5 33.5q-123 0 -228 -133t-144 -310z" />
<glyph unicode="f" horiz-adv-x="612" d="M-283 -279q0 40 27 68.5t68 28.5q43 0 67.5 -27t24.5 -67q0 -55 -47 -86q23 -19 63 -19q46 0 78 25.5t65 105t64 223.5l201 930h-224l11 29h219l22 92q57 236 163 346.5t243 110.5q91 0 151 -42t60 -106q0 -44 -25.5 -74t-70.5 -30q-43 0 -70 27.5t-27 68.5 q0 26 13.5 54.5t33.5 43.5q-24 31 -73 31q-75 0 -130.5 -74.5t-93.5 -242.5l-49 -205h244l-10 -29h-236l-162 -764q-29 -137 -64.5 -237t-72 -159.5t-82 -94t-88 -46.5t-96.5 -12q-87 0 -142 35t-55 96z" />
<glyph unicode="g" horiz-adv-x="1034" d="M-39 -223q0 54 32.5 86.5t78.5 32.5q44 0 69 -28t25 -73q0 -28 -17.5 -54.5t-48.5 -43.5q23 -36 69.5 -58t98.5 -22q124 0 202 96t128 285l41 156l-4 2q-67 -80 -130 -118t-145 -38q-120 0 -201 87t-81 235q0 106 42 218t111.5 203.5t168.5 150t204 58.5q148 0 230 -110 l32 90l162 22l-113 -333l-170 -625q-28 -104 -64 -176t-90 -125.5t-131 -79t-181 -25.5q-137 0 -227.5 54.5t-90.5 132.5zM242 319q0 -122 49.5 -186.5t136.5 -64.5q121 0 221 155l160 541q-27 76 -81 118t-114 42q-67 0 -128 -41.5t-104 -108t-75.5 -147t-48.5 -160.5 t-16 -148z" />
<glyph unicode="h" horiz-adv-x="1064" d="M37 0l98 332l254 995q4 14 4 26q1 34 -29 52q-40 25 -149 31v16l377 16l-209 -729l4 -4q233 215 397 215q89 0 138 -47t49 -135q0 -55 -25 -135l-145 -445q-19 -59 -19 -90q0 -46 42 -59q22 -7 62 -7q34 0 81 5v-12q-107 -43 -187 -43q-72 0 -110.5 25t-38.5 87 q0 45 20 101l140 432q20 72 20 114q0 111 -121 111q-123 0 -315 -156l-170 -696h-168z" />
<glyph unicode="i" horiz-adv-x="575" d="M98 104q0 34 19 99l188 606q3 13 3 24q0 32 -28 49q-38 23 -139 29v19l363 14l-234 -745q-18 -67 -18 -88q0 -49 46 -64q27 -9 77 -9q36 0 84 5v-12q-17 -7 -47.5 -16.5t-82 -21t-87.5 -11.5q-144 0 -144 122zM406 1264q0 57 36 103t86 46q34 0 56 -21.5t22 -62.5 q0 -59 -35.5 -106t-85.5 -47q-33 0 -56 23t-23 65z" />
<glyph unicode="j" horiz-adv-x="532" d="M-313 -276q0 40 25.5 68t66.5 28q40 0 64 -26t24 -64q0 -58 -51 -86q25 -25 71 -25q44 0 76.5 35t66.5 123.5t74 249.5l195 786q2 10 2 19q0 31 -30 50q-39 23 -138 29v19l348 14l-219 -878q-66 -268 -149 -373t-232 -105q-81 0 -137.5 37.5t-56.5 98.5zM373 1264 q0 57 36.5 103t86.5 46q34 0 55.5 -21.5t21.5 -62.5q0 -59 -35 -106t-85 -47q-33 0 -56.5 23t-23.5 65z" />
<glyph unicode="k" horiz-adv-x="974" d="M37 0l98 332l254 995q4 14 4 26q1 34 -29 52q-40 25 -149 31v16l377 16l-254 -919h68q48 0 90.5 30t72.5 74.5t63 97t62.5 97t70.5 74.5t87 30q53 0 83 -31t30 -75q0 -54 -28 -84.5t-73 -30.5q-39 0 -65.5 24t-26.5 64q0 25 14 53q-25 -6 -60 -50.5t-67 -97t-78 -106 t-89 -73.5v-4q81 -7 132 -24t76.5 -46.5t34 -62.5t8.5 -84q0 -27 -6 -116t-6 -120q0 -29 12 -44q12 -14 51 -22q25 -5 66 -5q22 0 47 1v-12q-17 -8 -70 -16t-108 -8q-94 0 -125 26t-31 92q0 46 6.5 123t6.5 101q0 115 -33.5 157.5t-118.5 42.5h-100l-129 -524h-168z" />
<glyph unicode="l" horiz-adv-x="557" d="M82 106q0 42 18 97l217 735l103 389q4 14 4 26q0 33 -28 52q-38 25 -150 31v16l377 16l-369 -1269q-14 -46 -14 -80q0 -54 48 -70q27 -9 77 -9q38 0 88 5v-14q-30 -12 -102.5 -30.5t-125.5 -18.5q-143 0 -143 124z" />
<glyph unicode="m" horiz-adv-x="1605" d="M43 0l100 332l125 471q5 19 5 34q0 29 -18 45q-27 24 -122 29v17l322 14l-66 -203l6 -6q235 217 387 217q88 0 132 -45.5t44 -130.5q0 -4 -1 -15t-1 -16q230 207 369 207q89 0 137.5 -47t48.5 -133q0 -60 -24 -137l-146 -445q-18 -56 -18 -90q0 -46 41 -59q22 -7 62 -7 q34 0 81 5v-12q-107 -43 -186 -43q-72 0 -111 25t-39 87q0 42 21 101l139 432q23 77 23 121q0 104 -113 104t-289 -143q-3 -24 -16 -76l-176 -633h-158l178 627q25 84 25 125q0 100 -113 100q-117 0 -309 -156l-170 -696h-170z" />
<glyph unicode="n" horiz-adv-x="1071" d="M43 0l100 332l125 471q5 19 5 34q0 29 -18 45q-27 24 -122 29v17l322 14l-66 -203l4 -4q105 97 209.5 156t188.5 59q90 0 138 -47t48 -135q0 -55 -25 -135l-145 -445q-19 -59 -19 -90q0 -46 42 -59q22 -7 63 -7q35 0 82 5v-12q-107 -43 -189 -43q-71 0 -109 25t-38 87 q0 42 18 101l140 432q22 68 22 114q0 111 -123 111q-121 0 -313 -156l-170 -696h-170z" />
<glyph unicode="o" horiz-adv-x="993" d="M63 362q0 107 38 212.5t105 189.5t168.5 136t217.5 52q148 0 243 -106.5t95 -276.5q0 -107 -38 -211.5t-105 -189t-168.5 -136.5t-217.5 -52q-146 0 -242 106.5t-96 275.5zM217 285q0 -137 49 -207t142 -70q70 0 131.5 45t103.5 116t73 157.5t45.5 169t14.5 151.5 q0 279 -188 279q-70 0 -132 -45.5t-104.5 -116.5t-74 -158t-46 -169.5t-14.5 -151.5z" />
<glyph unicode="p" horiz-adv-x="1046" d="M-197 -377q92 6 126.5 25.5t45.5 64.5l76 252l219 840q5 18 5 33q0 29 -19 44q-27 23 -123 29v17l322 14l-52 -160l5 -4q83 88 158.5 131t158.5 43q109 0 181.5 -79.5t72.5 -225.5q0 -112 -45 -229.5t-119.5 -212t-181 -155t-219.5 -60.5q-105 0 -195 51l-82 -322 q-5 -20 -5.5 -33t5.5 -24t17 -17t34 -10.5t53 -6.5t76 -3v-18h-514v16zM244 135q25 -52 77 -83.5t111 -31.5q82 0 156 56t123.5 143.5t78.5 194.5t29 209q0 118 -48.5 176.5t-137.5 58.5q-63 0 -127 -34.5t-111 -88.5z" />
<glyph unicode="q" horiz-adv-x="1030" d="M70 315q0 80 26.5 169t75.5 171.5t112.5 149.5t145.5 107t166 40q146 0 235 -110l31 92l158 20l-107 -321l-243 -922q-6 -23 -6 -36.5t5.5 -23.5t25.5 -15t47 -7.5t75 -3.5v-18h-512v16q81 4 123.5 15t57.5 27t24 48l143 469h-8q-144 -202 -311 -202q-124 0 -194 92 t-70 243zM233 317q0 -119 48 -187.5t133 -68.5q65 0 127 51t106 130l152 516q-26 74 -77.5 120t-117.5 46q-69 0 -130.5 -45t-104 -114t-74.5 -152t-47 -160t-15 -136z" />
<glyph unicode="r" horiz-adv-x="811" d="M43 0l100 332l125 471q5 19 5 34q0 29 -18 45q-27 24 -122 29v17l322 14l-74 -229l4 -4q198 239 340 239q61 0 95 -33.5t34 -85.5t-30 -86t-76 -34q-44 0 -71.5 24.5t-27.5 67.5q0 37 25 73q-66 -3 -145 -63t-156 -152l-160 -659h-170z" />
<glyph unicode="s" horiz-adv-x="794" d="M14 152q0 46 28.5 79t76.5 33q41 0 65.5 -27t24.5 -69q0 -59 -62 -100q11 -20 66.5 -40t114.5 -20q102 0 164.5 57t62.5 144q0 29 -12.5 56.5t-26 44.5t-47 41t-49 33t-58.5 34q-48 28 -74.5 46t-61 49t-50.5 68.5t-16 82.5q0 120 92 204t252 84q110 0 188 -48.5 t78 -119.5q0 -45 -26.5 -74.5t-71.5 -29.5q-40 0 -66 26t-26 64q0 60 63 102q-19 25 -63 39.5t-86 14.5q-92 0 -147.5 -55t-55.5 -134q0 -25 6 -46.5t22.5 -42t27.5 -33t41 -33t41 -27.5t48 -29q48 -28 75.5 -47.5t61.5 -51t50 -69.5t16 -84q0 -53 -22 -104t-65 -94 t-117 -69.5t-167 -26.5q-74 0 -140 19t-110.5 59t-44.5 94z" />
<glyph unicode="t" horiz-adv-x="657" d="M115 137q0 39 18 109l191 657h-179l9 29h178l86 299l162 31l-99 -330h256l-8 -29h-256l-182 -651q-17 -66 -17 -100q0 -101 113 -101q82 0 182 39v-14q-51 -33 -127 -64.5t-143 -31.5q-184 0 -184 157z" />
<glyph unicode="u" horiz-adv-x="1107" d="M100 166q0 52 23 129l162 510q7 20 7 36q0 26 -18 41q-30 25 -124 31v17l327 14l-198 -639q-19 -68 -19 -110q0 -115 135 -115q67 0 136.5 41t154.5 117l115 380l80 322h168l-224 -745q-16 -56 -16 -89q0 -48 40 -64q24 -9 71 -9q30 0 69 4v-12q-25 -13 -84 -29t-112 -16 q-138 0 -138 104q0 39 25 106l-4 7q-210 -217 -373 -217q-97 0 -150 50t-53 136z" />
<glyph unicode="v" horiz-adv-x="921" d="M55 901v17l287 28l70 -653l6 -162h14l125 168q218 292 254 428q-104 43 -104 127q0 45 27 73.5t69 28.5q51 0 80.5 -34.5t29.5 -85.5q0 -67 -47 -155.5t-182 -268.5l-328 -435l-77 9l-15 315l-61 508q-7 61 -33 77q-25 16 -105 15h-10z" />
<glyph unicode="w" horiz-adv-x="1409" d="M55 901v17l287 28l70 -653l4 -154h14l121 183q144 226 186 313l-37 297l154 14l70 -653l8 -160h12l119 168q84 114 137.5 207.5t68 131.5t29.5 87q-106 42 -106 127q0 44 27.5 73t70.5 29q51 0 81 -34.5t30 -85.5q0 -71 -44 -160.5t-179 -274.5l-308 -426l-79 11l-15 315 l-31 250l-385 -574l-84 9l-12 315l-61 508q-7 61 -33 77q-25 16 -105 15h-10z" />
<glyph unicode="x" horiz-adv-x="980" d="M-27 80q0 43 26.5 71.5t70.5 28.5t70 -34q25 -32 24 -80v-7q34 11 93 80t118 174l71 131l-137 347q-19 48 -33.5 68t-48.5 31t-100 11v17l283 28l129 -399h4l90 172q70 131 132 185t128 54q53 0 85 -33t32 -79q0 -48 -27.5 -74.5t-67.5 -26.5q-43 0 -69.5 32t-26.5 87 q-38 -9 -87.5 -68t-102.5 -157l-72 -135l145 -365q27 -68 57.5 -89t119.5 -27v-19l-283 -8l-131 410h-4l-99 -179q-79 -147 -141 -204.5t-125 -57.5q-56 0 -89.5 33.5t-33.5 81.5z" />
<glyph unicode="y" horiz-adv-x="907" d="M-145 -285q0 45 29 77t73 32q42 0 70 -29.5t28 -77.5q0 -44 -12 -65q167 43 309 266l-78 451l-75 440q-7 41 -20.5 59.5t-42.5 25.5q-27 7 -77 7h-14v17l285 28l61 -379l74 -485h4l141 231q65 104 106.5 195t53 129.5t21.5 87.5q-55 19 -85 52.5t-30 76.5q0 44 27.5 73 t70.5 29q51 0 80 -36.5t29 -92.5q0 -79 -58 -204t-243 -426q-96 -157 -176.5 -269t-138.5 -177t-110 -102t-87.5 -48t-75.5 -11q-68 0 -103.5 35t-35.5 90z" />
<glyph unicode="z" horiz-adv-x="923" d="M-20 6l808 807l-2 4l-374 -4q-39 -1 -60 -2t-44 -10t-35 -18.5t-31 -35t-32.5 -52t-39.5 -77.5l-16 5l79 311h682l15 -29l-787 -794l2 -5q78 19 160 19q37 0 135.5 -7t124.5 -7q94 0 137 39.5t70 160.5l19 -4q-15 -109 -33.5 -172t-52.5 -99.5t-76.5 -47.5t-116.5 -11 q-62 0 -150 13.5t-139 13.5q-130 0 -215 -37z" />
<glyph unicode="{" horiz-adv-x="831" d="M90 659l6 23q149 4 214.5 23t117.5 71q39 39 59 102.5t28 133.5t18 143t38.5 147t79.5 128q72 77 183 105t276 30l-6 -23q-114 -11 -178.5 -32.5t-108.5 -65.5q-48 -46 -75.5 -118.5t-39.5 -147.5t-26 -150t-48.5 -146t-92.5 -116q-96 -83 -310 -94l-4 -10q84 -9 141 -32 t85.5 -57t39.5 -69t11 -78q0 -75 -53.5 -251.5t-53.5 -260.5q0 -38 11 -71.5t36.5 -67.5t76.5 -60t124 -39l-6 -22q-181 22 -288 102.5t-107 204.5q0 72 32 174t63.5 199.5t31.5 159.5q0 41 -8.5 65.5t-36.5 47t-83.5 34.5t-146.5 18z" />
<glyph unicode="|" horiz-adv-x="626" d="M293 -440v1968h41v-1968h-41z" />
<glyph unicode="}" horiz-adv-x="841" d="M-197 -346l7 22q113 11 178.5 33t109.5 66q48 46 76 123t41.5 158.5t29 163t51.5 157t95 121.5q96 83 309 94l5 10q-85 9 -142.5 32.5t-86 57.5t-39.5 68t-11 76q0 74 49 230t49 239q0 192 -250 237l7 23q182 -22 289.5 -103t107.5 -205q0 -73 -30 -164.5t-59.5 -176 t-29.5 -140.5q0 -43 9 -69t37 -49t84 -35t147 -17l-7 -22q-148 -6 -213.5 -25.5t-117.5 -71.5q-40 -40 -62 -108.5t-31.5 -145t-21 -155t-41 -157t-80.5 -132.5q-71 -77 -182 -105t-277 -30z" />
<glyph unicode="~" horiz-adv-x="759" d="M123 514q58 236 192 236q43 0 144.5 -51.5t138.5 -51.5q38 0 66.5 27.5t56.5 97.5h20q-30 -123 -77 -178t-113 -55q-45 0 -146 50t-137 50q-40 0 -68 -27.5t-55 -97.5h-22z" />
<glyph unicode="&#xa2;" horiz-adv-x="980" d="M90 338q0 119 46.5 231.5t123 195t178.5 133t209 52.5l41 146l39 -9l-39 -137q116 -7 185 -66t69 -136q0 -47 -29.5 -84t-76.5 -37q-39 0 -66 25.5t-27 64.5q0 35 25.5 70t71.5 51q-46 76 -160 86l-248 -883q27 -6 60 -6q82 0 167.5 47.5t143.5 122.5l20 -17 q-78 -99 -179 -153.5t-214 -54.5h-16l-45 -164l-39 8l43 160q-125 18 -204 112t-79 242zM248 332q0 -103 37 -176t108 -103l246 869q-83 -6 -158 -66t-125 -147t-79 -187t-29 -190z" />
<glyph unicode="&#xa3;" horiz-adv-x="1212" d="M2 61q0 50 54 94t157 44q38 0 106 -11q115 156 115 371q0 57 -4 123h-237l10 35h225q-10 128 -10 186q0 106 39.5 196t105.5 151t154.5 95.5t185.5 34.5q149 0 234.5 -73.5t85.5 -173.5q0 -68 -37.5 -111t-91.5 -43q-45 0 -76 27.5t-31 72.5q0 51 36 84.5t85 50.5 q-4 50 -57 95t-144 45q-140 0 -227.5 -110.5t-87.5 -311.5q0 -36 1 -71.5t2.5 -76l2.5 -67.5h369l-11 -35h-356v-45q0 -143 -60.5 -254t-197.5 -197q21 -4 125 -24.5t174.5 -29.5t142.5 -9q125 0 188 49.5t113 181.5l21 -6q-108 -379 -387 -379q-56 0 -104 11t-89 33 t-69.5 42t-70.5 53t-67 50q-42 -85 -100 -138t-119 -53q-44 0 -71 28t-27 66z" />
<glyph unicode="&#xa5;" horiz-adv-x="1406" d="M170 436l8 33h426l37 137l-10 31h-408l8 33h392l-144 495q-29 95 -68 125.5t-141 44.5l4 17h603l-5 -19q-61 -2 -102.5 -6t-67.5 -14.5t-39 -21.5t-16 -32t0 -40t12 -52l136 -526l407 459q99 113 80 165.5t-158 67.5l4 19h490l-4 -19q-59 -7 -99.5 -19.5t-84 -43.5 t-83 -70t-106.5 -115l-373 -415h381l-8 -33h-401l-33 -37l-35 -131h424l-8 -33h-426l-78 -293q-10 -40 -0.5 -67t62.5 -41.5t161 -16.5l-6 -18h-676l6 18q103 3 161.5 16.5t85 38t38.5 68.5l78 295h-424z" />
<glyph unicode="&#xa7;" horiz-adv-x="1140" d="M23 -47q0 43 31 82t83 39q42 0 67 -27.5t25 -64.5q0 -81 -77 -115q22 -56 104.5 -91.5t163.5 -35.5q138 0 213.5 71.5t75.5 170.5q0 73 -56 130.5t-172 116.5q-66 33 -108.5 59t-83 62t-60 80.5t-20.5 99.5q-2 110 81.5 191.5t233.5 107.5q-141 95 -141 236 q0 126 109 220.5t288 94.5q152 0 252.5 -69.5t100.5 -157.5q0 -45 -28 -80t-77 -35q-42 0 -68 27t-26 63q0 70 72 113q-24 47 -87.5 79t-138.5 32q-120 0 -195 -64.5t-75 -165.5q0 -72 54.5 -124t174.5 -115q63 -33 103 -58.5t82 -63t62 -83t20 -100.5q0 -66 -28.5 -125 t-97.5 -110.5t-171 -74.5q61 -48 91.5 -99.5t30.5 -119.5q0 -64 -27 -124t-77.5 -108t-131.5 -77t-181 -29q-164 0 -277.5 69t-113.5 173zM336 596q0 -78 56.5 -131t187.5 -119q64 -33 110 -63q94 28 143.5 92.5t49.5 134.5q0 45 -13.5 78.5t-56.5 68t-70 51t-106 59.5 q-3 2 -4 2.5t-3.5 2t-4.5 2.5q-14 6 -76 41q-102 -22 -157.5 -82.5t-55.5 -136.5z" />
<glyph unicode="&#xa8;" horiz-adv-x="659" d="M225 1178q0 58 36.5 103.5t86.5 45.5q33 0 55.5 -21.5t22.5 -62.5q0 -57 -35.5 -104t-83.5 -47q-34 0 -58 22.5t-24 63.5zM604 1178q0 58 36.5 103.5t86.5 45.5q33 0 55.5 -21.5t22.5 -62.5q0 -57 -35.5 -104t-85.5 -47q-33 0 -56.5 22.5t-23.5 63.5z" />
<glyph unicode="&#xa9;" horiz-adv-x="1718" d="M154 596q0 179 62.5 343.5t172 287.5t270.5 196.5t347 73.5q204 0 360 -84.5t240 -235.5t84 -346q0 -179 -62.5 -343.5t-172 -287.5t-270.5 -196.5t-347 -73.5q-204 0 -360 84.5t-240 235.5t-84 346zM188 598q0 -286 178 -462.5t474 -176.5q180 0 334 71t258.5 190.5 t163.5 278t59 332.5q0 285 -177.5 461t-473.5 176q-144 0 -273 -45.5t-227 -127t-170 -190t-109 -238.5t-37 -269zM557 643q0 136 60 250.5t166.5 182t234.5 67.5q66 0 126.5 -24.5t92.5 -55.5l55 67h21l-70 -282h-20q-33 158 -74.5 214t-136.5 56q-76 0 -140.5 -45.5 t-105 -116t-62.5 -150.5t-22 -155q0 -126 58.5 -206t179.5 -80q79 0 145.5 45.5t128.5 144.5l18 -12q-134 -232 -340 -232q-141 0 -228 88.5t-87 243.5z" />
<glyph unicode="&#xaa;" horiz-adv-x="942" d="M231 926q0 114 58 227.5t158.5 188.5t209.5 75q113 0 166 -108l27 94l129 14l-82 -250l-86 -309q-26 -88 -5 -113t118 -16v-14q-91 -33 -144 -33q-76 0 -98 37t2 117l-10 2q-55 -84 -108.5 -122t-121.5 -38q-95 0 -154 66t-59 182zM381 930q0 -84 28.5 -137.5t90.5 -53.5 q94 0 190 164l105 354q-10 66 -45.5 100t-81.5 34q-64 0 -121 -50.5t-91.5 -124.5t-54.5 -150.5t-20 -135.5z" />
<glyph unicode="&#xab;" horiz-adv-x="1003" d="M78 481q0 12 51 49l446 332l17 -18l-383 -377l178 -395l-20 -13l-258 365q-31 45 -31 57zM475 479q0 10 51 49l447 334l16 -18l-383 -381l178 -397l-20 -13l-258 369q-31 45 -31 57z" />
<glyph unicode="&#xad;" horiz-adv-x="749" d="M119 494l20 73h525l-21 -73h-524z" />
<glyph unicode="&#xae;" horiz-adv-x="772" d="M240 1149q0 145 101.5 246.5t246.5 101.5q124 0 203 -80.5t79 -202.5q0 -145 -101.5 -246.5t-246.5 -101.5q-124 0 -203 80.5t-79 202.5zM264 1151q0 -115 72.5 -188.5t187.5 -73.5q133 0 227.5 94.5t94.5 228.5q0 115 -72.5 189t-187.5 74q-133 0 -227.5 -95t-94.5 -229 zM369 1024l4 12q55 2 59 23l68 272q1 6 -1 9t-13 6t-33 4l4 14h131q59 0 91 -21t32 -57q0 -77 -115 -92v-6q38 -6 55 -20.5t15 -39.5l-4 -47q-3 -29 7.5 -40t39.5 -11l-4 -12h-29q-49 0 -63 13.5t-9 49.5l4 33q5 38 -9 53t-56 15h-25l-31 -123q-2 -11 5.5 -16.5t35.5 -6.5 l-4 -12h-155zM522 1198h27q49 0 77.5 27.5t28.5 70.5q0 52 -75 52h-21z" />
<glyph unicode="&#xb0;" horiz-adv-x="770" d="M229 1100q0 141 102 251.5t236 110.5q95 0 162.5 -61.5t67.5 -173.5q0 -91 -47 -175t-126 -136t-167 -52q-94 0 -161 62t-67 174zM338 1057q0 -166 121 -166q56 0 101.5 41.5t71.5 103.5t40 124t14 112q0 164 -119 164q-56 0 -102.5 -41.5t-72.5 -102.5t-40 -123 t-14 -112z" />
<glyph unicode="&#xb1;" horiz-adv-x="1085" d="M-4 0l10 35h842l-10 -35h-842zM166 643l10 35h402l108 401h41l-109 -401h402l-10 -35h-400l-108 -405h-41l108 405h-403z" />
<glyph unicode="&#xb4;" horiz-adv-x="487" d="M236 1081l196 265q60 80 88 106.5t62 26.5q28 0 47.5 -20t19.5 -48q0 -32 -31.5 -62t-121.5 -94l-244 -174h-16z" />
<glyph unicode="&#xb6;" horiz-adv-x="1406" d="M272 780q0 111 47.5 212t137.5 182t234.5 129.5t324.5 48.5h551l-4 -17q-157 -9 -210.5 -32t-72.5 -93l-379 -1415h-43l408 1526h-199l-408 -1526h-45l156 580q-243 20 -370.5 126t-127.5 279z" />
<glyph unicode="&#xb7;" horiz-adv-x="434" d="M168 674q0 45 33.5 77.5t79.5 32.5t79 -32t33 -76q0 -47 -33 -80t-79 -33t-79.5 32.5t-33.5 78.5z" />
<glyph unicode="&#xb8;" horiz-adv-x="577" d="M-145 -453l12 21q79 -43 158 -43q65 0 110 39t45 104q0 57 -43 87t-110 30q-27 0 -62 -6l-6 16l260 197h43l-186 -142l4 -6q105 -3 158 -45t53 -112q0 -83 -71.5 -138t-184.5 -55q-98 0 -180 53z" />
<glyph unicode="&#xba;" horiz-adv-x="909" d="M252 969q0 112 55.5 215t150 167t201.5 64q115 0 194 -76.5t79 -216.5q0 -112 -55 -215t-149.5 -167t-201.5 -64q-115 0 -194.5 76.5t-79.5 216.5zM393 907q0 -102 31.5 -152t101.5 -50q55 0 101.5 35t76 89t50.5 120t30 126t9 109q0 205 -136 205q-68 0 -122 -52.5 t-83 -131t-44 -156t-15 -142.5z" />
<glyph unicode="&#xbb;" horiz-adv-x="1003" d="M33 78l381 381l-178 397l22 12l258 -368q31 -45 31 -58q0 -10 -51 -49l-449 -334zM430 78l381 377l-178 395l22 12l258 -364q31 -45 31 -58q0 -12 -51 -49l-449 -332z" />
<glyph unicode="&#xc0;" horiz-adv-x="1374" d="M-141 0l6 18q67 10 112.5 28.5t90.5 60t81.5 91.5t96.5 144l710 1108h31l168 -1227q7 -46 12 -72t15 -50.5t21 -35.5t33 -21.5t47 -15.5t67 -10l-7 -18h-565l6 18q52 3 84 6.5t57.5 13t38 21.5t18.5 34.5t5 49t-6 68.5l-43 356h-500l-149 -235q-46 -74 -69 -121.5 t-29.5 -83.5t11.5 -56.5t51.5 -32.5t94.5 -20l-4 -18h-485zM459 600h475l-76 625h-6zM680 1892q0 31 22 52.5t54 21.5t54.5 -27t57.5 -98l138 -268h-11l-233 205q-41 38 -61.5 63.5t-20.5 50.5z" />
<glyph unicode="&#xc1;" horiz-adv-x="1374" d="M-141 0l6 18q67 10 112.5 28.5t90.5 60t81.5 91.5t96.5 144l710 1108h31l168 -1227q7 -46 12 -72t15 -50.5t21 -35.5t33 -21.5t47 -15.5t67 -10l-7 -18h-565l6 18q52 3 84 6.5t57.5 13t38 21.5t18.5 34.5t5 49t-6 68.5l-43 356h-500l-149 -235q-46 -74 -69 -121.5 t-29.5 -83.5t11.5 -56.5t51.5 -32.5t94.5 -20l-4 -18h-485zM459 600h475l-76 625h-6zM922 1573l196 264q60 80 88 106.5t62 26.5q28 0 47.5 -19.5t19.5 -47.5q0 -32 -31.5 -62t-121.5 -94l-244 -174h-16z" />
<glyph unicode="&#xc2;" horiz-adv-x="1374" d="M-141 0l6 18q67 10 112.5 28.5t90.5 60t81.5 91.5t96.5 144l710 1108h31l168 -1227q7 -46 12 -72t15 -50.5t21 -35.5t33 -21.5t47 -15.5t67 -10l-7 -18h-565l6 18q52 3 84 6.5t57.5 13t38 21.5t18.5 34.5t5 49t-6 68.5l-43 356h-500l-149 -235q-46 -74 -69 -121.5 t-29.5 -83.5t11.5 -56.5t51.5 -32.5t94.5 -20l-4 -18h-485zM459 600h475l-76 625h-6zM709 1552l354 373h18l150 -373h-25l-176 201l-291 -201h-30z" />
<glyph unicode="&#xc3;" horiz-adv-x="1374" d="M-141 0l6 18q67 10 112.5 28.5t90.5 60t81.5 91.5t96.5 144l710 1108h31l168 -1227q7 -46 12 -72t15 -50.5t21 -35.5t33 -21.5t47 -15.5t67 -10l-7 -18h-565l6 18q52 3 84 6.5t57.5 13t38 21.5t18.5 34.5t5 49t-6 68.5l-43 356h-500l-149 -235q-46 -74 -69 -121.5 t-29.5 -83.5t11.5 -56.5t51.5 -32.5t94.5 -20l-4 -18h-485zM459 600h475l-76 625h-6zM707 1565q30 122 77.5 177.5t114.5 55.5q43 0 144.5 -50t138.5 -50q38 0 66.5 27.5t56.5 97.5h20q-30 -123 -77 -179.5t-113 -56.5q-45 0 -146 51.5t-137 51.5q-40 0 -68 -27.5t-55 -97.5 h-22z" />
<glyph unicode="&#xc4;" horiz-adv-x="1374" d="M-141 0l6 18q67 10 112.5 28.5t90.5 60t81.5 91.5t96.5 144l710 1108h31l168 -1227q7 -46 12 -72t15 -50.5t21 -35.5t33 -21.5t47 -15.5t67 -10l-7 -18h-565l6 18q52 3 84 6.5t57.5 13t38 21.5t18.5 34.5t5 49t-6 68.5l-43 356h-500l-149 -235q-46 -74 -69 -121.5 t-29.5 -83.5t11.5 -56.5t51.5 -32.5t94.5 -20l-4 -18h-485zM459 600h475l-76 625h-6zM717 1669q0 58 36.5 104t86.5 46q33 0 55.5 -21.5t22.5 -62.5q0 -57 -35.5 -104.5t-83.5 -47.5q-34 0 -58 22.5t-24 63.5zM1096 1669q0 58 36.5 104t86.5 46q33 0 55 -21.5t22 -62.5 q0 -58 -35.5 -105t-84.5 -47q-33 0 -56.5 22.5t-23.5 63.5z" />
<glyph unicode="&#xc5;" horiz-adv-x="1374" d="M-141 0l6 18q67 10 112.5 28.5t90.5 60t81.5 91.5t96.5 144l688 1075q-70 9 -110 59.5t-40 127.5q0 108 80 189t191 81q85 0 132.5 -51t47.5 -137q0 -102 -71 -181t-173 -88l164 -1194q7 -46 12 -72t15 -50.5t21 -35.5t33 -21.5t47 -15.5t67 -10l-7 -18h-565l6 18 q52 3 84 6.5t57.5 13t38 21.5t18.5 34.5t5 49t-6 68.5l-43 356h-500l-149 -235q-46 -74 -69 -121.5t-29.5 -83.5t11.5 -56.5t51.5 -32.5t94.5 -20l-4 -18h-485zM459 600h475l-76 625h-6zM879 1565q0 -62 23 -96.5t63 -34.5q54 0 95.5 46t61 110.5t19.5 131.5q0 64 -23 98.5 t-63 34.5q-79 0 -127.5 -91t-48.5 -199z" />
<glyph unicode="&#xc6;" horiz-adv-x="2091" d="M-150 0l5 18q119 15 198 69.5t234 229.5l837 943q39 45 39 73q0 62 -198 76l4 18h1212l-100 -405h-23q-10 70 -15.5 107.5t-15.5 84t-19 67.5t-25.5 46.5t-34.5 35t-47 19.5t-62.5 12.5t-81.5 2.5h-295l-166 -627h154q43 0 70 2.5t55 12.5t46.5 24t43 44t46.5 66t56 95 h23l-139 -539h-21q-3 65 -6 103t-12 71t-19.5 48t-33 26t-48.5 13.5t-69 2.5h-156l-188 -706h350q71 0 122 6.5t95.5 27.5t75.5 44t70 73t69.5 96.5t83.5 131.5q3 6 5 9t5 8t6 9h23l-131 -438h-1196l4 18q103 4 160 18.5t80 37.5t34 65l119 447h-495l-256 -291 q-132 -150 -132 -205q0 -60 140 -72l-6 -18h-474zM606 618h475l201 750h-16z" />
<glyph unicode="&#xc7;" horiz-adv-x="1384" d="M125 569q0 134 40 265t116.5 243.5t179.5 199t238 136t282 49.5q107 0 209.5 -33.5t163.5 -76.5l106 104h21l-125 -446h-23q-38 243 -116 334.5t-248 91.5q-115 0 -219 -52.5t-181.5 -141.5t-135 -202.5t-87 -240t-29.5 -250.5q0 -229 118 -372.5t321 -143.5 q297 0 530 356l23 -16q-40 -62 -79 -112.5t-96.5 -106.5t-117 -94t-138.5 -65t-165 -30l-152 -115l4 -6q105 -3 158 -45t53 -112q0 -83 -71.5 -138t-184.5 -55q-98 0 -180 53l12 21q79 -43 158 -43q66 0 111 39t45 104q0 57 -43.5 87t-110.5 30q-26 0 -61 -6l-7 16l226 170 q-243 6 -394 171t-151 433z" />
<glyph unicode="&#xc8;" horiz-adv-x="1353" d="M-61 0l4 18q103 4 160 18.5t80 37.5t34 65l305 1147q9 28 5.5 49.5t-23 37t-65.5 24.5t-122 12l5 18h1122l-101 -405h-22q-10 70 -15.5 107.5t-15.5 84t-19 67.5t-25.5 46.5t-34.5 35t-47 19.5t-62.5 12.5t-81.5 2.5h-295l-166 -627h154q43 0 70 2.5t55 12.5t46.5 24 t43 44t46.5 66t56 95h23l-140 -539h-20q-3 65 -6 103t-12 71t-19.5 48t-33 26t-48.5 13.5t-69 2.5h-156l-189 -706h351q71 0 122 6.5t95.5 27.5t75.5 44t70 73t69.5 96.5t83.5 131.5q3 6 5 9t5 8t6 9h23l-131 -438h-1196zM705 1892q0 31 21.5 52.5t53.5 21.5t55 -27.5 t58 -97.5l137 -268h-10l-234 205q-41 37 -61 63t-20 51z" />
<glyph unicode="&#xc9;" horiz-adv-x="1353" d="M-61 0l4 18q103 4 160 18.5t80 37.5t34 65l305 1147q9 28 5.5 49.5t-23 37t-65.5 24.5t-122 12l5 18h1122l-101 -405h-22q-10 70 -15.5 107.5t-15.5 84t-19 67.5t-25.5 46.5t-34.5 35t-47 19.5t-62.5 12.5t-81.5 2.5h-295l-166 -627h154q43 0 70 2.5t55 12.5t46.5 24 t43 44t46.5 66t56 95h23l-140 -539h-20q-3 65 -6 103t-12 71t-19.5 48t-33 26t-48.5 13.5t-69 2.5h-156l-189 -706h351q71 0 122 6.5t95.5 27.5t75.5 44t70 73t69.5 96.5t83.5 131.5q3 6 5 9t5 8t6 9h23l-131 -438h-1196zM922 1573l196 264q60 80 88 106.5t62 26.5 q28 0 47.5 -19.5t19.5 -47.5q0 -32 -31.5 -62t-121.5 -94l-244 -174h-16z" />
<glyph unicode="&#xca;" horiz-adv-x="1353" d="M-61 0l4 18q103 4 160 18.5t80 37.5t34 65l305 1147q9 28 5.5 49.5t-23 37t-65.5 24.5t-122 12l5 18h1122l-101 -405h-22q-10 70 -15.5 107.5t-15.5 84t-19 67.5t-25.5 46.5t-34.5 35t-47 19.5t-62.5 12.5t-81.5 2.5h-295l-166 -627h154q43 0 70 2.5t55 12.5t46.5 24 t43 44t46.5 66t56 95h23l-140 -539h-20q-3 65 -6 103t-12 71t-19.5 48t-33 26t-48.5 13.5t-69 2.5h-156l-189 -706h351q71 0 122 6.5t95.5 27.5t75.5 44t70 73t69.5 96.5t83.5 131.5q3 6 5 9t5 8t6 9h23l-131 -438h-1196zM723 1573l354 373h19l149 -373h-24l-177 201 l-290 -201h-31z" />
<glyph unicode="&#xcb;" horiz-adv-x="1353" d="M-61 0l4 18q103 4 160 18.5t80 37.5t34 65l305 1147q9 28 5.5 49.5t-23 37t-65.5 24.5t-122 12l5 18h1122l-101 -405h-22q-10 70 -15.5 107.5t-15.5 84t-19 67.5t-25.5 46.5t-34.5 35t-47 19.5t-62.5 12.5t-81.5 2.5h-295l-166 -627h154q43 0 70 2.5t55 12.5t46.5 24 t43 44t46.5 66t56 95h23l-140 -539h-20q-3 65 -6 103t-12 71t-19.5 48t-33 26t-48.5 13.5t-69 2.5h-156l-189 -706h351q71 0 122 6.5t95.5 27.5t75.5 44t70 73t69.5 96.5t83.5 131.5q3 6 5 9t5 8t6 9h23l-131 -438h-1196zM723 1669q0 58 36.5 104t86.5 46q33 0 55.5 -21.5 t22.5 -62.5q0 -57 -35.5 -104.5t-83.5 -47.5q-34 0 -58 22.5t-24 63.5zM1102 1669q0 58 36.5 104t86.5 46q33 0 55.5 -21.5t22.5 -62.5q0 -57 -36 -104.5t-85 -47.5q-33 0 -56.5 22.5t-23.5 63.5z" />
<glyph unicode="&#xcc;" horiz-adv-x="800" d="M-68 0l5 18q103 4 162.5 18t85 38t36.5 65l305 1147q9 29 4.5 51t-26.5 37.5t-71 24t-130 10.5l4 18h680l-4 -18q-104 -4 -162.5 -17.5t-84 -37t-36.5 -64.5l-307 -1149q-9 -29 -4.5 -51t26.5 -37.5t71 -24t130 -10.5l-4 -18h-680zM410 1892q0 31 21.5 52.5t53.5 21.5 t55 -27.5t58 -97.5l137 -268h-10l-233 205q-41 38 -61.5 63.5t-20.5 50.5z" />
<glyph unicode="&#xcd;" horiz-adv-x="800" d="M-68 0l5 18q103 4 162.5 18t85 38t36.5 65l305 1147q9 29 4.5 51t-26.5 37.5t-71 24t-130 10.5l4 18h680l-4 -18q-104 -4 -162.5 -17.5t-84 -37t-36.5 -64.5l-307 -1149q-9 -29 -4.5 -51t26.5 -37.5t71 -24t130 -10.5l-4 -18h-680zM592 1573l196 264q60 80 88 106.5 t62 26.5q28 0 48 -19.5t20 -47.5q0 -32 -31.5 -62t-122.5 -94l-244 -174h-16z" />
<glyph unicode="&#xce;" horiz-adv-x="800" d="M-68 0l5 18q103 4 162.5 18t85 38t36.5 65l305 1147q9 29 4.5 51t-26.5 37.5t-71 24t-130 10.5l4 18h680l-4 -18q-104 -4 -162.5 -17.5t-84 -37t-36.5 -64.5l-307 -1149q-9 -29 -4.5 -51t26.5 -37.5t71 -24t130 -10.5l-4 -18h-680zM418 1573l354 373h19l149 -373h-25 l-176 201l-290 -201h-31z" />
<glyph unicode="&#xcf;" horiz-adv-x="800" d="M-68 0l5 18q103 4 162.5 18t85 38t36.5 65l305 1147q9 29 4.5 51t-26.5 37.5t-71 24t-130 10.5l4 18h680l-4 -18q-104 -4 -162.5 -17.5t-84 -37t-36.5 -64.5l-307 -1149q-9 -29 -4.5 -51t26.5 -37.5t71 -24t130 -10.5l-4 -18h-680zM432 1669q0 58 36.5 104t86.5 46 q33 0 55.5 -21.5t22.5 -62.5q0 -57 -35.5 -104.5t-83.5 -47.5q-34 0 -58 22.5t-24 63.5zM811 1669q0 58 36.5 104t86.5 46q33 0 55.5 -21.5t22.5 -62.5q0 -57 -36 -104.5t-85 -47.5q-33 0 -56.5 22.5t-23.5 63.5z" />
<glyph unicode="&#xd0;" horiz-adv-x="1536" d="M-61 0l4 18q99 5 153 19.5t77 37t34 64.5l155 586h-198l10 39h199l141 522q10 37 2 62.5t-54.5 40.5t-142.5 20l5 18h497q181 0 318 -44t219.5 -123t123 -180t40.5 -222q0 -160 -64 -317t-186 -279q-262 -262 -682 -262h-651zM352 33h260q269 0 453 184 q126 126 194 317.5t68 409.5q0 230 -116 341.5t-369 111.5h-125l-170 -633h317l-10 -39h-317z" />
<glyph unicode="&#xd1;" horiz-adv-x="1613" d="M-68 0l5 18q57 9 94.5 17.5t69 22.5t50 30t35.5 44.5t28 60t24 81.5l254 957q21 75 -21 122.5t-172 57.5l4 16h354l592 -1185h4l240 913q14 50 19.5 82t2 60t-15 44t-38 30t-61.5 22t-91 16l4 18h514l-4 -18q-67 -11 -107.5 -23t-71 -27.5t-49.5 -45t-32 -63.5t-29 -95 l-315 -1190h-27l-649 1299h-2l-262 -990q-13 -50 -18.5 -81.5t-3.5 -60t13.5 -45t37 -30.5t60.5 -22.5t91 -16.5l-4 -18h-523zM801 1565q30 122 77.5 177.5t114.5 55.5q43 0 144.5 -50t138.5 -50q38 0 66.5 27.5t56.5 97.5h20q-30 -123 -77 -179.5t-113 -56.5 q-45 0 -146 51.5t-137 51.5q-40 0 -68 -27.5t-55 -97.5h-22z" />
<glyph unicode="&#xd2;" d="M127 553q0 168 66 332t177 291.5t271 206.5t336 79q235 0 390 -166t155 -422q0 -168 -66 -332t-177.5 -291.5t-271.5 -206.5t-335 -79q-236 0 -390.5 166.5t-154.5 421.5zM317 471q0 -146 36.5 -251t118.5 -166.5t206 -61.5q111 0 214.5 58t181.5 156t137 222t89.5 261 t30.5 269q0 146 -36 250.5t-117.5 166t-204.5 61.5q-140 0 -265 -89t-209 -229t-133 -310.5t-49 -336.5zM762 1892q0 31 22 52.5t54 21.5t54.5 -27t57.5 -98l137 -268h-10l-233 205q-41 38 -61.5 63.5t-20.5 50.5z" />
<glyph unicode="&#xd3;" d="M127 553q0 168 66 332t177 291.5t271 206.5t336 79q235 0 390 -166t155 -422q0 -168 -66 -332t-177.5 -291.5t-271.5 -206.5t-335 -79q-236 0 -390.5 166.5t-154.5 421.5zM317 471q0 -146 36.5 -251t118.5 -166.5t206 -61.5q111 0 214.5 58t181.5 156t137 222t89.5 261 t30.5 269q0 146 -36 250.5t-117.5 166t-204.5 61.5q-140 0 -265 -89t-209 -229t-133 -310.5t-49 -336.5zM944 1573l197 264q61 81 88 107t61 26q28 0 48 -19.5t20 -47.5q0 -32 -31.5 -62t-122.5 -94l-243 -174h-17z" />
<glyph unicode="&#xd4;" d="M127 553q0 168 66 332t177 291.5t271 206.5t336 79q235 0 390 -166t155 -422q0 -168 -66 -332t-177.5 -291.5t-271.5 -206.5t-335 -79q-236 0 -390.5 166.5t-154.5 421.5zM317 471q0 -146 36.5 -251t118.5 -166.5t206 -61.5q111 0 214.5 58t181.5 156t137 222t89.5 261 t30.5 269q0 146 -36 250.5t-117.5 166t-204.5 61.5q-140 0 -265 -89t-209 -229t-133 -310.5t-49 -336.5zM780 1573l355 373h18l150 -373h-25l-176 201l-291 -201h-31z" />
<glyph unicode="&#xd5;" d="M127 553q0 168 66 332t177 291.5t271 206.5t336 79q235 0 390 -166t155 -422q0 -168 -66 -332t-177.5 -291.5t-271.5 -206.5t-335 -79q-236 0 -390.5 166.5t-154.5 421.5zM317 471q0 -146 36.5 -251t118.5 -166.5t206 -61.5q111 0 214.5 58t181.5 156t137 222t89.5 261 t30.5 269q0 146 -36 250.5t-117.5 166t-204.5 61.5q-140 0 -265 -89t-209 -229t-133 -310.5t-49 -336.5zM760 1565q30 122 77.5 177.5t114.5 55.5q43 0 144.5 -50t138.5 -50q38 0 66.5 27.5t56.5 97.5h20q-30 -123 -77 -179.5t-113 -56.5q-44 0 -146 51.5t-137 51.5 q-40 0 -68 -27.5t-55 -97.5h-22z" />
<glyph unicode="&#xd6;" d="M127 553q0 168 66 332t177 291.5t271 206.5t336 79q235 0 390 -166t155 -422q0 -168 -66 -332t-177.5 -291.5t-271.5 -206.5t-335 -79q-236 0 -390.5 166.5t-154.5 421.5zM317 471q0 -146 36.5 -251t118.5 -166.5t206 -61.5q111 0 214.5 58t181.5 156t137 222t89.5 261 t30.5 269q0 146 -36 250.5t-117.5 166t-204.5 61.5q-140 0 -265 -89t-209 -229t-133 -310.5t-49 -336.5zM780 1669q0 58 36.5 104t86.5 46q33 0 55.5 -21.5t22.5 -62.5q0 -57 -35.5 -104.5t-83.5 -47.5q-34 0 -58 22.5t-24 63.5zM1159 1669q0 58 36.5 104t86.5 46 q33 0 55.5 -21.5t22.5 -62.5q0 -57 -36 -104.5t-85 -47.5q-33 0 -56.5 22.5t-23.5 63.5z" />
<glyph unicode="&#xd8;" d="M53 -74l211 224q-137 166 -137 403q0 168 66 332t177 291.5t271 206.5t336 79q113 0 211.5 -41.5t171.5 -117.5l186 198h47l-211 -223q140 -162 140 -404q0 -168 -66 -332t-177.5 -291.5t-271.5 -206.5t-335 -79q-229 0 -383 160l-189 -199h-47zM317 471q0 -141 31 -233 l938 989q-85 209 -313 209q-140 0 -265 -89t-209 -229t-133 -310.5t-49 -336.5zM360 201q85 -209 318 -209q111 0 214.5 58t181.5 156t137 222t89.5 261t30.5 269q0 134 -33 232z" />
<glyph unicode="&#xd9;" horiz-adv-x="1566" d="M242 358q0 80 20 150l209 778q9 28 5.5 49.5t-23 37t-65.5 24.5t-122 12l4 18h631l-4 -18q-77 -4 -124.5 -12.5t-73.5 -26t-36.5 -36t-19.5 -52.5l-205 -774q-22 -78 -22 -164q0 -148 87.5 -234.5t260.5 -86.5q199 0 317.5 103.5t180.5 340.5l182 688q13 50 18.5 82t2 60 t-15.5 44t-38.5 30t-62 22t-91.5 16l5 18h516l-4 -18q-57 -9 -93 -17.5t-66 -23t-47 -29t-33 -44t-26 -59t-24 -81.5l-191 -723q-29 -108 -71 -188t-109.5 -145.5t-170 -99.5t-238.5 -34q-115 0 -205 31t-145.5 85t-84 124.5t-28.5 152.5zM799 1892q0 31 21.5 52.5 t53.5 21.5t55 -27.5t58 -97.5l137 -268h-10l-233 205q-41 38 -61.5 63.5t-20.5 50.5z" />
<glyph unicode="&#xda;" horiz-adv-x="1566" d="M242 358q0 80 20 150l209 778q9 28 5.5 49.5t-23 37t-65.5 24.5t-122 12l4 18h631l-4 -18q-77 -4 -124.5 -12.5t-73.5 -26t-36.5 -36t-19.5 -52.5l-205 -774q-22 -78 -22 -164q0 -148 87.5 -234.5t260.5 -86.5q199 0 317.5 103.5t180.5 340.5l182 688q13 50 18.5 82t2 60 t-15.5 44t-38.5 30t-62 22t-91.5 16l5 18h516l-4 -18q-57 -9 -93 -17.5t-66 -23t-47 -29t-33 -44t-26 -59t-24 -81.5l-191 -723q-29 -108 -71 -188t-109.5 -145.5t-170 -99.5t-238.5 -34q-115 0 -205 31t-145.5 85t-84 124.5t-28.5 152.5zM993 1573l197 264q61 81 88 107 t61 26q28 0 48 -19.5t20 -47.5q0 -32 -31.5 -62t-122.5 -94l-243 -174h-17z" />
<glyph unicode="&#xdb;" horiz-adv-x="1566" d="M242 358q0 80 20 150l209 778q9 28 5.5 49.5t-23 37t-65.5 24.5t-122 12l4 18h631l-4 -18q-77 -4 -124.5 -12.5t-73.5 -26t-36.5 -36t-19.5 -52.5l-205 -774q-22 -78 -22 -164q0 -148 87.5 -234.5t260.5 -86.5q199 0 317.5 103.5t180.5 340.5l182 688q13 50 18.5 82t2 60 t-15.5 44t-38.5 30t-62 22t-91.5 16l5 18h516l-4 -18q-57 -9 -93 -17.5t-66 -23t-47 -29t-33 -44t-26 -59t-24 -81.5l-191 -723q-29 -108 -71 -188t-109.5 -145.5t-170 -99.5t-238.5 -34q-115 0 -205 31t-145.5 85t-84 124.5t-28.5 152.5zM831 1573l355 373h18l150 -373h-25 l-176 201l-291 -201h-31z" />
<glyph unicode="&#xdc;" horiz-adv-x="1566" d="M242 358q0 80 20 150l209 778q9 28 5.5 49.5t-23 37t-65.5 24.5t-122 12l4 18h631l-4 -18q-77 -4 -124.5 -12.5t-73.5 -26t-36.5 -36t-19.5 -52.5l-205 -774q-22 -78 -22 -164q0 -148 87.5 -234.5t260.5 -86.5q199 0 317.5 103.5t180.5 340.5l182 688q13 50 18.5 82t2 60 t-15.5 44t-38.5 30t-62 22t-91.5 16l5 18h516l-4 -18q-57 -9 -93 -17.5t-66 -23t-47 -29t-33 -44t-26 -59t-24 -81.5l-191 -723q-29 -108 -71 -188t-109.5 -145.5t-170 -99.5t-238.5 -34q-115 0 -205 31t-145.5 85t-84 124.5t-28.5 152.5zM831 1669q0 58 36.5 104t86.5 46 q33 0 55.5 -21.5t22.5 -62.5q0 -57 -35.5 -104.5t-83.5 -47.5q-34 0 -58 22.5t-24 63.5zM1210 1669q0 58 36.5 104t86.5 46q33 0 55.5 -21.5t22.5 -62.5q0 -57 -36 -104.5t-85 -47.5q-33 0 -56.5 22.5t-23.5 63.5z" />
<glyph unicode="&#xdd;" horiz-adv-x="1376" d="M225 1411l4 16h627l-4 -18q-131 -4 -187 -19.5t-64 -49.5t15 -91l193 -573l424 495q106 121 87.5 173.5t-175.5 64.5l4 18h512l-4 -18q-55 -6 -93 -16t-67.5 -23t-67 -47.5t-67 -66t-90.5 -101.5l-447 -516l-133 -498q-9 -29 -4.5 -51t26.5 -37.5t71 -24t130 -10.5 l-4 -18h-680l5 18q103 4 162 18.5t84 38t36 64.5l133 498l-209 604q-24 69 -46 100t-58.5 46t-112.5 24zM948 1573l197 264q61 81 88 107t61 26q28 0 48 -19.5t20 -47.5q0 -32 -31.5 -62t-122.5 -94l-243 -174h-17z" />
<glyph unicode="&#xde;" horiz-adv-x="1271" d="M-74 0l4 18q104 4 161.5 18.5t81 37.5t34.5 65l305 1147q9 28 5.5 49.5t-23 37t-65.5 24.5t-122 12l4 18h631l-4 -18q-77 -4 -124.5 -12.5t-73.5 -26t-36.5 -36t-19.5 -52.5l-41 -154h74q123 0 217.5 -20t151 -51.5t92 -76t48.5 -88t13 -93.5q0 -198 -176 -328.5 t-475 -130.5h-158l-51 -199q-8 -35 -0.5 -61t59.5 -42t156 -20l-4 -18h-664zM440 373h140q110 0 195 28t137 72.5t85.5 106.5t46.5 125t13 133q0 132 -73 196t-247 64h-102z" />
<glyph unicode="&#xdf;" horiz-adv-x="1013" d="M-350 -276q0 42 26.5 70t67.5 28t65.5 -26.5t24.5 -63.5q0 -27 -13.5 -50t-33.5 -36q24 -27 72 -27q36 0 61.5 13t52 50t49.5 107t46 180l231 1049q28 128 72 221t99 144t113 74.5t124 23.5q125 0 206.5 -64t81.5 -174q0 -63 -38.5 -117t-93 -93.5l-109 -79t-93 -90 t-38.5 -107.5q0 -44 33.5 -88t81.5 -83t95.5 -82t81 -102t33.5 -125q0 -54 -17.5 -104t-53 -94t-99.5 -71t-147 -27q-106 0 -180 50t-74 126q0 47 27.5 78.5t70.5 31.5q38 0 62 -26t24 -66q0 -58 -59 -94q14 -25 53 -48.5t96 -23.5q81 0 134 55.5t53 137.5q0 46 -17 86.5 t-44 70.5t-59.5 58.5l-65 57t-59.5 58t-44 68t-17 82.5q0 47 18 89t46 74.5t62.5 64.5t69 66t62.5 72t46 89.5t18 111.5q0 92 -42.5 148.5t-113.5 56.5q-168 0 -241 -340l-199 -934q-49 -233 -106 -361.5t-127.5 -178.5t-178.5 -50q-87 0 -141.5 37.5t-54.5 96.5z" />
<glyph unicode="&#xe0;" horiz-adv-x="1062" d="M72 299q0 109 46 225.5t119.5 211t176 155.5t207.5 61q144 0 206 -131l41 111l158 22l-111 -331l-114 -420q-19 -74 -19 -101q0 -45 42.5 -60t138.5 -5v-12q-106 -45 -193 -45q-67 0 -102 19.5t-35 76.5q0 48 20 112l-4 2q-71 -110 -144 -160t-165 -50q-124 0 -196 84 t-72 235zM238 305q0 -115 44 -187.5t124 -72.5q52 0 105.5 39t88.5 85.5t64 100.5l139 475q-16 88 -64 133.5t-110 45.5q-63 0 -125 -43.5t-108.5 -112.5t-83 -151.5t-55.5 -164.5t-19 -147zM434 1401q0 31 22 52.5t54 21.5t55 -27.5t58 -97.5l137 -269h-10l-234 205 q-41 37 -61.5 63.5t-20.5 51.5z" />
<glyph unicode="&#xe1;" horiz-adv-x="1062" d="M72 299q0 109 46 225.5t119.5 211t176 155.5t207.5 61q144 0 206 -131l41 111l158 22l-111 -331l-114 -420q-19 -74 -19 -101q0 -45 42.5 -60t138.5 -5v-12q-106 -45 -193 -45q-67 0 -102 19.5t-35 76.5q0 48 20 112l-4 2q-71 -110 -144 -160t-165 -50q-124 0 -196 84 t-72 235zM238 305q0 -115 44 -187.5t124 -72.5q52 0 105.5 39t88.5 85.5t64 100.5l139 475q-16 88 -64 133.5t-110 45.5q-63 0 -125 -43.5t-108.5 -112.5t-83 -151.5t-55.5 -164.5t-19 -147zM623 1081l196 265q60 80 88 106.5t62 26.5q28 0 47.5 -20t19.5 -48 q0 -32 -31.5 -62t-121.5 -94l-244 -174h-16z" />
<glyph unicode="&#xe2;" horiz-adv-x="1062" d="M72 299q0 109 46 225.5t119.5 211t176 155.5t207.5 61q144 0 206 -131l41 111l158 22l-111 -331l-114 -420q-19 -74 -19 -101q0 -45 42.5 -60t138.5 -5v-12q-106 -45 -193 -45q-67 0 -102 19.5t-35 76.5q0 48 20 112l-4 2q-71 -110 -144 -160t-165 -50q-124 0 -196 84 t-72 235zM238 305q0 -115 44 -187.5t124 -72.5q52 0 105.5 39t88.5 85.5t64 100.5l139 475q-16 88 -64 133.5t-110 45.5q-63 0 -125 -43.5t-108.5 -112.5t-83 -151.5t-55.5 -164.5t-19 -147zM432 1081l354 373h19l149 -373h-24l-176 201l-291 -201h-31z" />
<glyph unicode="&#xe3;" horiz-adv-x="1062" d="M72 299q0 109 46 225.5t119.5 211t176 155.5t207.5 61q144 0 206 -131l41 111l158 22l-111 -331l-114 -420q-19 -74 -19 -101q0 -45 42.5 -60t138.5 -5v-12q-106 -45 -193 -45q-67 0 -102 19.5t-35 76.5q0 48 20 112l-4 2q-71 -110 -144 -160t-165 -50q-124 0 -196 84 t-72 235zM238 305q0 -115 44 -187.5t124 -72.5q52 0 105.5 39t88.5 85.5t64 100.5l139 475q-16 88 -64 133.5t-110 45.5q-63 0 -125 -43.5t-108.5 -112.5t-83 -151.5t-55.5 -164.5t-19 -147zM426 1073q57 234 192 234q43 0 144.5 -50.5t138.5 -50.5q38 0 66.5 27.5 t56.5 97.5h20q-30 -123 -77 -179t-113 -56q-44 0 -146 51t-137 51q-39 0 -67 -27.5t-55 -97.5h-23z" />
<glyph unicode="&#xe4;" horiz-adv-x="1062" d="M72 299q0 109 46 225.5t119.5 211t176 155.5t207.5 61q144 0 206 -131l41 111l158 22l-111 -331l-114 -420q-19 -74 -19 -101q0 -45 42.5 -60t138.5 -5v-12q-106 -45 -193 -45q-67 0 -102 19.5t-35 76.5q0 48 20 112l-4 2q-71 -110 -144 -160t-165 -50q-124 0 -196 84 t-72 235zM238 305q0 -115 44 -187.5t124 -72.5q52 0 105.5 39t88.5 85.5t64 100.5l139 475q-16 88 -64 133.5t-110 45.5q-63 0 -125 -43.5t-108.5 -112.5t-83 -151.5t-55.5 -164.5t-19 -147zM453 1178q0 58 36 103.5t86 45.5q33 0 55.5 -21.5t22.5 -62.5q0 -57 -35 -104 t-83 -47q-34 0 -58 22.5t-24 63.5zM831 1178q0 58 36.5 103.5t86.5 45.5q33 0 55.5 -21.5t22.5 -62.5q0 -57 -35.5 -104t-85.5 -47q-33 0 -56.5 22.5t-23.5 63.5z" />
<glyph unicode="&#xe5;" horiz-adv-x="1062" d="M72 299q0 109 46 225.5t119.5 211t176 155.5t207.5 61q144 0 206 -131l41 111l158 22l-111 -331l-114 -420q-19 -74 -19 -101q0 -45 42.5 -60t138.5 -5v-12q-106 -45 -193 -45q-67 0 -102 19.5t-35 76.5q0 48 20 112l-4 2q-71 -110 -144 -160t-165 -50q-124 0 -196 84 t-72 235zM238 305q0 -115 44 -187.5t124 -72.5q52 0 105.5 39t88.5 85.5t64 100.5l139 475q-16 88 -64 133.5t-110 45.5q-63 0 -125 -43.5t-108.5 -112.5t-83 -151.5t-55.5 -164.5t-19 -147zM551 1266q0 101 74 172t182 71q85 0 136.5 -50t51.5 -124q0 -100 -75 -171.5 t-183 -71.5q-86 0 -136 49.5t-50 124.5zM641 1237q0 -57 25 -89t69 -32q74 0 122 80t48 168q0 57 -25 89t-69 32q-74 0 -122 -80t-48 -168z" />
<glyph unicode="&#xe6;" horiz-adv-x="1474" d="M39 186q0 142 179.5 223.5t467.5 79.5q16 76 16 181q0 250 -188 250q-71 0 -124 -25.5t-79 -65.5q72 -22 72 -92q0 -44 -25 -70t-67 -26q-45 0 -71.5 28.5t-26.5 71.5q0 84 98.5 146.5t232.5 62.5q252 0 291 -200h4q74 94 177.5 148t220.5 54q119 0 185 -55t66 -145 q0 -130 -160.5 -215t-478.5 -84q-10 -68 -10 -119q0 -155 53.5 -227t169.5 -72q160 0 297 174l21 -19q-169 -210 -385 -210q-59 0 -111 17t-96.5 51t-72 94t-31.5 139h-5q-50 -139 -155.5 -220t-222.5 -81q-115 0 -178.5 54.5t-63.5 151.5zM193 211q0 -76 40 -119t113 -43 q123 0 220 124t112 292q-485 -13 -485 -254zM836 479q487 7 487 316q0 60 -29.5 93.5t-85.5 33.5q-123 0 -228 -133t-144 -310z" />
<glyph unicode="&#xe7;" horiz-adv-x="880" d="M68 356q0 147 71.5 284.5t195 224.5t261.5 87q113 0 183.5 -49t70.5 -121q0 -50 -28 -80t-72 -30q-45 0 -73 27t-28 69q0 28 21 59t61 47q-39 50 -121 50q-81 0 -154.5 -54.5t-122 -139.5t-76.5 -185t-28 -193q0 -151 63.5 -233t180.5 -82q151 0 281 164l18 -19 q-134 -175 -293 -198l-176 -134l4 -6q105 -3 158 -45t53 -112q0 -83 -71.5 -138t-184.5 -55q-98 0 -180 53l12 21q79 -43 158 -43q66 0 111 39t45 104q0 57 -43.5 87t-110.5 30q-27 0 -61 -6l-7 16l244 185h-12q-151 0 -250.5 101t-99.5 275z" />
<glyph unicode="&#xe8;" horiz-adv-x="880" d="M61 324q0 91 28 183t79.5 171t120 141t155.5 97.5t179 35.5q119 0 185 -55t66 -145q0 -130 -160 -215t-478 -84q-11 -75 -11 -119q0 -154 53.5 -226.5t170.5 -72.5q159 0 296 174l21 -19q-169 -210 -385 -210q-63 0 -118 19t-101.5 58t-73.5 107.5t-27 159.5zM242 479 q487 7 487 316q0 60 -29.5 93.5t-85.5 33.5q-123 0 -228 -133t-144 -310zM350 1401q0 31 22 52.5t54 21.5t55 -27.5t58 -97.5l137 -269h-10l-234 205q-41 37 -61.5 63.5t-20.5 51.5z" />
<glyph unicode="&#xe9;" horiz-adv-x="880" d="M61 324q0 91 28 183t79.5 171t120 141t155.5 97.5t179 35.5q119 0 185 -55t66 -145q0 -130 -160 -215t-478 -84q-11 -75 -11 -119q0 -154 53.5 -226.5t170.5 -72.5q159 0 296 174l21 -19q-169 -210 -385 -210q-63 0 -118 19t-101.5 58t-73.5 107.5t-27 159.5zM242 479 q487 7 487 316q0 60 -29.5 93.5t-85.5 33.5q-123 0 -228 -133t-144 -310zM551 1081l197 265q61 81 88 107t61 26q28 0 48 -20t20 -48q0 -32 -31.5 -62t-122.5 -94l-244 -174h-16z" />
<glyph unicode="&#xea;" horiz-adv-x="880" d="M61 324q0 91 28 183t79.5 171t120 141t155.5 97.5t179 35.5q119 0 185 -55t66 -145q0 -130 -160 -215t-478 -84q-11 -75 -11 -119q0 -154 53.5 -226.5t170.5 -72.5q159 0 296 174l21 -19q-169 -210 -385 -210q-63 0 -118 19t-101.5 58t-73.5 107.5t-27 159.5zM242 479 q487 7 487 316q0 60 -29.5 93.5t-85.5 33.5q-123 0 -228 -133t-144 -310zM367 1081l354 373h18l150 -373h-25l-176 201l-291 -201h-30z" />
<glyph unicode="&#xeb;" horiz-adv-x="880" d="M61 324q0 91 28 183t79.5 171t120 141t155.5 97.5t179 35.5q119 0 185 -55t66 -145q0 -130 -160 -215t-478 -84q-11 -75 -11 -119q0 -154 53.5 -226.5t170.5 -72.5q159 0 296 174l21 -19q-169 -210 -385 -210q-63 0 -118 19t-101.5 58t-73.5 107.5t-27 159.5zM242 479 q487 7 487 316q0 60 -29.5 93.5t-85.5 33.5q-123 0 -228 -133t-144 -310zM375 1178q0 58 36.5 103.5t86.5 45.5q33 0 55 -21.5t22 -62.5q0 -57 -35 -104t-83 -47q-34 0 -58 22.5t-24 63.5zM754 1178q0 58 36.5 103.5t86.5 45.5q33 0 55 -21.5t22 -62.5q0 -58 -35.5 -104.5 t-84.5 -46.5q-33 0 -56.5 22.5t-23.5 63.5z" />
<glyph unicode="&#xec;" horiz-adv-x="575" d="M98 104q0 34 19 99l188 606q13 50 -25.5 73t-138.5 29v19l363 14l-234 -745q-18 -67 -18 -88q0 -49 46.5 -64t160.5 -4v-12q-17 -7 -47.5 -16.5t-82 -21t-87.5 -11.5q-144 0 -144 122zM147 1401q0 31 22 52.5t54 21.5t55 -27.5t58 -97.5l137 -269h-10l-234 205 q-41 37 -61.5 63.5t-20.5 51.5z" />
<glyph unicode="&#xed;" horiz-adv-x="575" d="M98 104q0 34 19 99l188 606q13 50 -25.5 73t-138.5 29v19l363 14l-234 -745q-18 -67 -18 -88q0 -49 46.5 -64t160.5 -4v-12q-17 -7 -47.5 -16.5t-82 -21t-87.5 -11.5q-144 0 -144 122zM336 1081l196 265q60 80 88 106.5t62 26.5q28 0 48 -20t20 -48q0 -32 -31.5 -62 t-122.5 -94l-244 -174h-16z" />
<glyph unicode="&#xee;" horiz-adv-x="575" d="M98 104q0 34 19 99l188 606q13 50 -25.5 73t-138.5 29v19l363 14l-234 -745q-18 -67 -18 -88q0 -49 46.5 -64t160.5 -4v-12q-17 -7 -47.5 -16.5t-82 -21t-87.5 -11.5q-144 0 -144 122zM150 1081l354 373h18l150 -373h-25l-176 201l-291 -201h-30z" />
<glyph unicode="&#xef;" horiz-adv-x="575" d="M98 104q0 34 19 99l188 606q13 50 -25.5 73t-138.5 29v19l363 14l-234 -745q-18 -67 -18 -88q0 -49 46.5 -64t160.5 -4v-12q-17 -7 -47.5 -16.5t-82 -21t-87.5 -11.5q-144 0 -144 122zM164 1178q0 58 36.5 103.5t86.5 45.5q33 0 55.5 -21.5t22.5 -62.5q0 -57 -35.5 -104 t-83.5 -47q-34 0 -58 22.5t-24 63.5zM543 1178q0 58 36.5 103.5t86.5 45.5q33 0 55 -21.5t22 -62.5q0 -58 -35.5 -104.5t-84.5 -46.5q-33 0 -56.5 22.5t-23.5 63.5z" />
<glyph unicode="&#xf0;" horiz-adv-x="1005" d="M68 362q0 109 36.5 214t102.5 189t166.5 135.5t218.5 51.5q90 0 158 -47q-27 203 -148 336l-266 -156l-17 29l263 152q-102 105 -275 182l10 20q203 -65 332 -163l176 102l15 -29l-164 -94q264 -213 258 -604q-1 -146 -39.5 -274t-106 -222.5t-167.5 -149t-220 -54.5 q-150 0 -241.5 104.5t-91.5 277.5zM213 289q0 -281 190 -281q72 0 135 47t105 119.5t72.5 159.5t44.5 167.5t14 143.5q0 281 -190 281q-72 0 -135 -47t-105 -119.5t-72.5 -159.5t-44.5 -167.5t-14 -143.5z" />
<glyph unicode="&#xf1;" horiz-adv-x="1071" d="M43 0l100 332l125 471q14 55 -13 78.5t-122 29.5v17l322 14l-66 -203l4 -4q105 97 209.5 156t188.5 59q90 0 138 -47t48 -135q0 -55 -25 -135l-145 -445q-19 -59 -19 -90q0 -46 41.5 -59t145.5 -2v-12q-107 -43 -189 -43q-71 0 -109 25t-38 87q0 42 18 101l140 432 q22 68 22 114q0 111 -123 111q-121 0 -313 -156l-170 -696h-170zM399 1073q57 234 193 234q43 0 144 -50.5t138 -50.5q38 0 66.5 27.5t56.5 97.5h21q-57 -235 -191 -235q-45 0 -146 51t-136 51q-40 0 -68 -27.5t-55 -97.5h-23z" />
<glyph unicode="&#xf2;" horiz-adv-x="993" d="M63 362q0 107 38 212.5t105 189.5t168.5 136t217.5 52q148 0 243 -106.5t95 -276.5q0 -107 -38 -211.5t-105 -189t-168.5 -136.5t-217.5 -52q-146 0 -242 106.5t-96 275.5zM217 285q0 -137 49 -207t142 -70q70 0 131.5 45t103.5 116t73 157.5t45.5 169t14.5 151.5 q0 279 -188 279q-70 0 -132 -45.5t-104.5 -116.5t-74 -158t-46 -169.5t-14.5 -151.5zM371 1401q0 31 21.5 52.5t53.5 21.5t55 -27.5t58 -97.5l137 -269h-10l-233 205q-41 37 -61.5 63.5t-20.5 51.5z" />
<glyph unicode="&#xf3;" horiz-adv-x="993" d="M63 362q0 107 38 212.5t105 189.5t168.5 136t217.5 52q148 0 243 -106.5t95 -276.5q0 -107 -38 -211.5t-105 -189t-168.5 -136.5t-217.5 -52q-146 0 -242 106.5t-96 275.5zM217 285q0 -137 49 -207t142 -70q70 0 131.5 45t103.5 116t73 157.5t45.5 169t14.5 151.5 q0 279 -188 279q-70 0 -132 -45.5t-104.5 -116.5t-74 -158t-46 -169.5t-14.5 -151.5zM561 1081l197 265q61 81 88 107t61 26q28 0 48 -20t20 -48q0 -32 -31.5 -62t-122.5 -94l-243 -174h-17z" />
<glyph unicode="&#xf4;" horiz-adv-x="993" d="M63 362q0 107 38 212.5t105 189.5t168.5 136t217.5 52q148 0 243 -106.5t95 -276.5q0 -107 -38 -211.5t-105 -189t-168.5 -136.5t-217.5 -52q-146 0 -242 106.5t-96 275.5zM217 285q0 -137 49 -207t142 -70q70 0 131.5 45t103.5 116t73 157.5t45.5 169t14.5 151.5 q0 279 -188 279q-70 0 -132 -45.5t-104.5 -116.5t-74 -158t-46 -169.5t-14.5 -151.5zM367 1081l354 373h18l150 -373h-25l-176 201l-291 -201h-30z" />
<glyph unicode="&#xf5;" horiz-adv-x="993" d="M63 362q0 107 38 212.5t105 189.5t168.5 136t217.5 52q148 0 243 -106.5t95 -276.5q0 -107 -38 -211.5t-105 -189t-168.5 -136.5t-217.5 -52q-146 0 -242 106.5t-96 275.5zM217 285q0 -137 49 -207t142 -70q70 0 131.5 45t103.5 116t73 157.5t45.5 169t14.5 151.5 q0 279 -188 279q-70 0 -132 -45.5t-104.5 -116.5t-74 -158t-46 -169.5t-14.5 -151.5zM360 1073q57 234 193 234q43 0 144.5 -50.5t138.5 -50.5q38 0 66 27.5t56 97.5h21q-57 -235 -191 -235q-44 0 -145 51t-137 51q-40 0 -68 -27.5t-55 -97.5h-23z" />
<glyph unicode="&#xf6;" horiz-adv-x="993" d="M63 362q0 107 38 212.5t105 189.5t168.5 136t217.5 52q148 0 243 -106.5t95 -276.5q0 -107 -38 -211.5t-105 -189t-168.5 -136.5t-217.5 -52q-146 0 -242 106.5t-96 275.5zM217 285q0 -137 49 -207t142 -70q70 0 131.5 45t103.5 116t73 157.5t45.5 169t14.5 151.5 q0 279 -188 279q-70 0 -132 -45.5t-104.5 -116.5t-74 -158t-46 -169.5t-14.5 -151.5zM385 1178q0 58 36.5 103.5t86.5 45.5q33 0 55.5 -21.5t22.5 -62.5q0 -57 -35.5 -104t-83.5 -47q-34 0 -58 22.5t-24 63.5zM764 1178q0 58 36.5 103.5t86.5 45.5q33 0 55.5 -21.5 t22.5 -62.5q0 -57 -35.5 -104t-85.5 -47q-33 0 -56.5 22.5t-23.5 63.5z" />
<glyph unicode="&#xf7;" horiz-adv-x="1179" d="M160 649l8 35h958l-8 -35h-958zM453 369q0 46 32.5 78t79.5 32q46 0 78.5 -32t32.5 -76q0 -47 -32.5 -80t-78.5 -33q-47 0 -79.5 32.5t-32.5 78.5zM610 963q0 45 33.5 77.5t79.5 32.5t79.5 -32t33.5 -76q0 -47 -33.5 -80t-79.5 -33t-79.5 32.5t-33.5 78.5z" />
<glyph unicode="&#xf8;" horiz-adv-x="993" d="M35 -47l121 139q-93 108 -93 270q0 107 38 212.5t105 189.5t168.5 136t217.5 52q135 0 227 -92l103 119h39l-121 -139q90 -111 90 -271q0 -107 -38 -211.5t-105 -189t-168.5 -136.5t-217.5 -52q-135 0 -227 92l-102 -119h-37zM217 285q0 -54 10 -109l531 615 q-40 135 -170 135q-70 0 -132 -45.5t-104.5 -116.5t-74 -158t-46 -169.5t-14.5 -151.5zM236 141q40 -133 172 -133q70 0 131.5 45t103.5 116t73 157.5t45.5 169t14.5 151.5q0 54 -10 109z" />
<glyph unicode="&#xf9;" horiz-adv-x="1107" d="M100 166q0 52 23 129l162 510q18 52 -11.5 77t-123.5 31v17l327 14l-198 -639q-19 -68 -19 -110q0 -115 135 -115q67 0 136.5 41t154.5 117l115 380l80 322h168l-224 -745q-16 -56 -16 -89q0 -48 40 -63.5t140 -5.5v-12q-25 -13 -84 -29t-112 -16q-138 0 -138 104 q0 39 25 106l-4 7q-210 -217 -373 -217q-97 0 -150 50t-53 136zM414 1401q0 31 21.5 52.5t53.5 21.5t55 -27.5t58 -97.5l137 -269h-10l-233 205q-41 37 -61.5 63.5t-20.5 51.5z" />
<glyph unicode="&#xfa;" horiz-adv-x="1107" d="M100 166q0 52 23 129l162 510q18 52 -11.5 77t-123.5 31v17l327 14l-198 -639q-19 -68 -19 -110q0 -115 135 -115q67 0 136.5 41t154.5 117l115 380l80 322h168l-224 -745q-16 -56 -16 -89q0 -48 40 -63.5t140 -5.5v-12q-25 -13 -84 -29t-112 -16q-138 0 -138 104 q0 39 25 106l-4 7q-210 -217 -373 -217q-97 0 -150 50t-53 136zM602 1081l197 265q61 81 88 107t61 26q28 0 48 -20t20 -48q0 -32 -31.5 -62t-122.5 -94l-244 -174h-16z" />
<glyph unicode="&#xfb;" horiz-adv-x="1107" d="M100 166q0 52 23 129l162 510q18 52 -11.5 77t-123.5 31v17l327 14l-198 -639q-19 -68 -19 -110q0 -115 135 -115q67 0 136.5 41t154.5 117l115 380l80 322h168l-224 -745q-16 -56 -16 -89q0 -48 40 -63.5t140 -5.5v-12q-25 -13 -84 -29t-112 -16q-138 0 -138 104 q0 39 25 106l-4 7q-210 -217 -373 -217q-97 0 -150 50t-53 136zM426 1081l354 373h19l149 -373h-24l-176 201l-291 -201h-31z" />
<glyph unicode="&#xfc;" horiz-adv-x="1107" d="M100 166q0 52 23 129l162 510q18 52 -11.5 77t-123.5 31v17l327 14l-198 -639q-19 -68 -19 -110q0 -115 135 -115q67 0 136.5 41t154.5 117l115 380l80 322h168l-224 -745q-16 -56 -16 -89q0 -48 40 -63.5t140 -5.5v-12q-25 -13 -84 -29t-112 -16q-138 0 -138 104 q0 39 25 106l-4 7q-210 -217 -373 -217q-97 0 -150 50t-53 136zM436 1178q0 58 36.5 103.5t86.5 45.5q33 0 55.5 -21.5t22.5 -62.5q0 -57 -35.5 -104t-83.5 -47q-34 0 -58 22.5t-24 63.5zM815 1178q0 58 36.5 103.5t86.5 45.5q33 0 55.5 -21.5t22.5 -62.5q0 -57 -35.5 -104 t-85.5 -47q-33 0 -56.5 22.5t-23.5 63.5z" />
<glyph unicode="&#xfd;" horiz-adv-x="907" d="M-145 -285q0 45 29 77t73 32q42 0 70 -29.5t28 -77.5q0 -44 -12 -65q167 43 309 266l-78 451l-75 440q-7 41 -20.5 59.5t-43 26t-90.5 6.5v17l285 28l61 -379l74 -485h4l141 231q65 104 106.5 195t53 129.5t21.5 87.5q-55 19 -85 52.5t-30 76.5q0 44 27.5 73t70.5 29 q51 0 80 -36.5t29 -92.5q0 -79 -58 -204t-243 -426q-96 -157 -176.5 -269t-138.5 -177t-110 -102t-87.5 -48t-75.5 -11q-68 0 -103.5 35t-35.5 90zM467 1081l197 265q61 81 88 107t61 26q28 0 48 -20t20 -48q0 -32 -31.5 -62t-122.5 -94l-244 -174h-16z" />
<glyph unicode="&#xfe;" horiz-adv-x="1030" d="M-213 -377q93 6 127 25.5t47 64.5l74 252l141 557l205 805q14 53 -25.5 78t-148.5 31v16l377 16l-195 -684l4 -4q82 88 157.5 130t160.5 42q109 0 181.5 -79.5t72.5 -225.5q0 -112 -45 -229.5t-120 -212t-182 -155t-221 -60.5q-105 0 -192 51l-84 -322q-14 -57 18.5 -74 t163.5 -20v-18h-516v16zM229 135q25 -52 76.5 -83.5t110.5 -31.5q83 0 157 56t124 143.5t79 194.5t29 209q0 118 -50 176.5t-139 58.5q-63 0 -125.5 -34.5t-109.5 -88.5z" />
<glyph unicode="&#xff;" horiz-adv-x="907" d="M-145 -285q0 45 29 77t73 32q42 0 70 -29.5t28 -77.5q0 -44 -12 -65q167 43 309 266l-78 451l-75 440q-7 41 -20.5 59.5t-43 26t-90.5 6.5v17l285 28l61 -379l74 -485h4l141 231q65 104 106.5 195t53 129.5t21.5 87.5q-55 19 -85 52.5t-30 76.5q0 44 27.5 73t70.5 29 q51 0 80 -36.5t29 -92.5q0 -79 -58 -204t-243 -426q-96 -157 -176.5 -269t-138.5 -177t-110 -102t-87.5 -48t-75.5 -11q-68 0 -103.5 35t-35.5 90zM324 1178q0 58 36 103.5t86 45.5q33 0 55.5 -21.5t22.5 -62.5q0 -57 -35 -104t-83 -47q-34 0 -58 22.5t-24 63.5zM702 1178 q0 58 36.5 103.5t86.5 45.5q33 0 55.5 -21.5t22.5 -62.5q0 -57 -35.5 -104t-85.5 -47q-33 0 -56.5 22.5t-23.5 63.5z" />
<glyph unicode="&#x11e;" horiz-adv-x="1474" d="M125 569q0 134 40 265t116.5 243.5t179.5 199t238 136t282 49.5q107 0 209.5 -33.5t163.5 -76.5l106 104h21l-123 -436h-23q-41 240 -118.5 328t-247.5 88q-115 0 -219.5 -54.5t-182 -146.5t-135 -210.5t-86.5 -250.5t-29 -262q0 -227 114.5 -373.5t305.5 -146.5 q154 0 273 82l114 436q10 37 2 63t-57 41t-149 19l4 18h579l-4 -18q-104 -6 -145.5 -33t-59.5 -90l-114 -412q-117 -63 -223.5 -98t-235.5 -35q-264 0 -430 171t-166 433zM799 1888h24q9 -190 205 -190q101 0 167 46.5t120 143.5h28q-48 -144 -134 -224.5t-210 -80.5 q-115 0 -169 81.5t-31 223.5z" />
<glyph unicode="&#x11f;" horiz-adv-x="1034" d="M-39 -223q0 54 32.5 86.5t78.5 32.5q44 0 69 -28t25 -73q0 -28 -17.5 -54.5t-48.5 -43.5q23 -36 69.5 -58t98.5 -22q124 0 202 96t128 285l41 156l-4 2q-67 -80 -130 -118t-145 -38q-120 0 -201 87t-81 235q0 106 42 218t111.5 203.5t168.5 150t204 58.5q148 0 230 -110 l32 90l162 22l-113 -333l-170 -625q-28 -104 -64 -176t-90 -125.5t-131 -79t-181 -25.5q-137 0 -227.5 54.5t-90.5 132.5zM242 319q0 -122 49.5 -186.5t136.5 -64.5q121 0 221 155l160 541q-27 76 -81 118t-114 42q-67 0 -128 -41.5t-104 -108t-75.5 -147t-48.5 -160.5 t-16 -148zM471 1397h25q9 -191 204 -191q101 0 167 47t120 144h29q-48 -144 -134 -224.5t-210 -80.5q-115 0 -169.5 81.5t-31.5 223.5z" />
<glyph unicode="&#x130;" horiz-adv-x="800" d="M-68 0l5 18q103 4 162.5 18t85 38t36.5 65l305 1147q9 29 4.5 51t-26.5 37.5t-71 24t-130 10.5l4 18h680l-4 -18q-104 -4 -162.5 -17.5t-84 -37t-36.5 -64.5l-307 -1149q-9 -29 -4.5 -51t26.5 -37.5t71 -24t130 -10.5l-4 -18h-680zM625 1671q0 57 36 103.5t84 46.5 q34 0 57 -21.5t23 -62.5q0 -59 -35 -106.5t-85 -47.5q-34 0 -57 23t-23 65z" />
<glyph unicode="&#x131;" horiz-adv-x="575" d="M98 104q0 34 19 99l188 606q13 50 -25.5 73t-138.5 29v19l363 14l-234 -745q-18 -67 -18 -88q0 -49 46.5 -64t160.5 -4v-12q-17 -7 -47.5 -16.5t-82 -21t-87.5 -11.5q-144 0 -144 122z" />
<glyph unicode="&#x152;" horiz-adv-x="2111" d="M139 588q0 153 61.5 301.5t178.5 265.5q127 127 309 199.5t410 72.5h1104l-101 -405h-22q-14 95 -21 139.5t-22.5 97t-32 71.5t-49 39t-72.5 24t-104 4h-295l-166 -627h151q52 0 83.5 5t61.5 17t55.5 41.5t52.5 69.5t67 111h20l-137 -539h-22q-3 64 -6 102.5t-12 71 t-20 48t-33.5 26.5t-48.5 13.5t-69 2.5h-153l-189 -706h348q72 0 123.5 7t96.5 28t76.5 45t71 75t71 99.5t85.5 135.5l9 15h24l-131 -438h-1024q-184 0 -326.5 47t-229 129.5t-130 186.5t-43.5 225zM334 500q0 -229 127.5 -348t386.5 -119h96l365 1364h-234 q-283 0 -483 -197q-124 -124 -191 -307t-67 -393z" />
<glyph unicode="&#x153;" horiz-adv-x="1560" d="M63 362q0 107 38 212.5t105 189.5t168.5 136t217.5 52q106 0 186.5 -56.5t118.5 -160.5q77 101 181.5 159t224.5 58q118 0 184.5 -55t66.5 -145q0 -130 -160.5 -215t-478.5 -84q-10 -68 -10 -119q0 -154 53 -226.5t168 -72.5q160 0 297 174l21 -19q-166 -210 -383 -210 q-97 0 -173 44.5t-108 137.5q-151 -182 -379 -182q-146 0 -242 106.5t-96 275.5zM217 285q0 -137 49 -207t142 -70q70 0 131.5 45t103.5 116t73 157.5t45.5 169t14.5 151.5q0 279 -188 279q-70 0 -132 -45.5t-104.5 -116.5t-74 -158t-46 -169.5t-14.5 -151.5zM922 479 q487 7 487 316q0 59 -30.5 93t-86.5 34q-82 0 -159.5 -65t-131.5 -164.5t-79 -213.5z" />
<glyph unicode="&#x15e;" horiz-adv-x="1112" d="M-12 -37l118 469h17q30 -132 70.5 -219.5t93.5 -133t108.5 -62.5t130.5 -17q160 0 250 93.5t90 234.5q0 48 -12 87t-43.5 83t-93 90t-154.5 94q-157 80 -224 157t-67 197q0 83 36 159t99.5 134t157.5 92.5t203 34.5q171 0 328 -96l112 108h21l-109 -432h-20 q-25 123 -60.5 203t-83 120t-95 54t-113.5 14q-138 0 -226 -85.5t-88 -217.5q0 -45 14 -83t35 -66.5t62 -59.5t78.5 -54t101.5 -58q104 -57 165 -106.5t97.5 -117t36.5 -153.5q0 -66 -17 -128.5t-55 -120t-93.5 -101t-137 -71.5t-180.5 -32l-160 -123l4 -6q105 -3 158 -45 t53 -112q0 -83 -71.5 -138t-184.5 -55q-98 0 -180 53l12 21q79 -43 158 -43q65 0 110 39t45 104q0 57 -43 87t-110 30q-28 0 -62 -6l-6 16l234 176q-200 3 -373 107l-115 -115h-22z" />
<glyph unicode="&#x15f;" horiz-adv-x="794" d="M2 -453l12 21q79 -43 158 -43q66 0 111 39t45 104q0 57 -43.5 87t-110.5 30q-26 0 -61 -6l-7 16l246 187q-14 -2 -43 -2q-74 0 -140 19t-110.5 59t-44.5 94q0 46 28.5 79t76.5 33q41 0 65.5 -27t24.5 -69q0 -59 -62 -100q11 -20 66.5 -40t114.5 -20q102 0 164.5 57 t62.5 144q0 29 -12.5 56.5t-26 44.5t-47 41t-49 33t-58.5 34q-48 28 -74.5 46t-61 49t-50.5 68.5t-16 82.5q0 120 92 204t252 84q110 0 188 -48.5t78 -119.5q0 -45 -26.5 -74.5t-71.5 -29.5q-40 0 -66 26t-26 64q0 60 63 102q-19 25 -63 39.5t-86 14.5q-92 0 -147.5 -55 t-55.5 -134q0 -25 6 -46.5t22.5 -42t27.5 -33t41 -33t41 -27.5t48 -29q48 -28 75.5 -47.5t61.5 -51t50 -69.5t16 -84q0 -99 -70.5 -181t-206.5 -105l-180 -138l4 -6q105 -3 158 -45t53 -112q0 -83 -71.5 -138t-184.5 -55q-98 0 -180 53z" />
<glyph unicode="&#x178;" horiz-adv-x="1376" d="M225 1411l4 16h627l-4 -18q-131 -4 -187 -19.5t-64 -49.5t15 -91l193 -573l424 495q106 121 87.5 173.5t-175.5 64.5l4 18h512l-4 -18q-55 -6 -93 -16t-67.5 -23t-67 -47.5t-67 -66t-90.5 -101.5l-447 -516l-133 -498q-9 -29 -4.5 -51t26.5 -37.5t71 -24t130 -10.5 l-4 -18h-680l5 18q103 4 162 18.5t84 38t36 64.5l133 498l-209 604q-24 69 -46 100t-58.5 46t-112.5 24zM735 1669q0 58 36.5 104t86.5 46q33 0 55.5 -21.5t22.5 -62.5q0 -57 -35.5 -104.5t-83.5 -47.5q-34 0 -58 22.5t-24 63.5zM1114 1669q0 58 36.5 104t86.5 46 q33 0 55.5 -21.5t22.5 -62.5q0 -57 -36 -104.5t-85 -47.5q-33 0 -56.5 22.5t-23.5 63.5z" />
<glyph unicode="&#x2c6;" horiz-adv-x="612" d="M229 1081l355 373h18l150 -373h-25l-176 201l-291 -201h-31z" />
<glyph unicode="&#x2da;" horiz-adv-x="528" d="M276 1266q0 101 74 172t182 71q86 0 137.5 -50t51.5 -124q0 -100 -75 -171.5t-183 -71.5q-87 0 -137 49.5t-50 124.5zM367 1237q0 -57 25 -89t69 -32q74 0 122 80t48 168q0 57 -25 89t-69 32q-74 0 -122 -80t-48 -168z" />
<glyph unicode="&#x2dc;" horiz-adv-x="677" d="M227 1073q57 234 193 234q43 0 144 -50.5t138 -50.5q38 0 66.5 27.5t56.5 97.5h21q-57 -235 -191 -235q-45 0 -146 51t-136 51q-40 0 -68 -27.5t-55 -97.5h-23z" />
<glyph unicode="&#x2000;" horiz-adv-x="985" />
<glyph unicode="&#x2001;" horiz-adv-x="1970" />
<glyph unicode="&#x2002;" horiz-adv-x="985" />
<glyph unicode="&#x2003;" horiz-adv-x="1970" />
<glyph unicode="&#x2004;" horiz-adv-x="656" />
<glyph unicode="&#x2005;" horiz-adv-x="492" />
<glyph unicode="&#x2006;" horiz-adv-x="328" />
<glyph unicode="&#x2007;" horiz-adv-x="328" />
<glyph unicode="&#x2008;" horiz-adv-x="246" />
<glyph unicode="&#x2009;" horiz-adv-x="394" />
<glyph unicode="&#x200a;" horiz-adv-x="109" />
<glyph unicode="&#x2010;" horiz-adv-x="749" d="M119 494l20 73h525l-21 -73h-524z" />
<glyph unicode="&#x2011;" horiz-adv-x="749" d="M119 494l20 73h525l-21 -73h-524z" />
<glyph unicode="&#x2012;" horiz-adv-x="749" d="M119 494l20 73h525l-21 -73h-524z" />
<glyph unicode="&#x2013;" horiz-adv-x="1105" d="M125 520l10 35h881l-10 -35h-881z" />
<glyph unicode="&#x2014;" horiz-adv-x="1617" d="M125 520l10 35h1393l-10 -35h-1393z" />
<glyph unicode="&#x2018;" horiz-adv-x="432" d="M256 1112q0 97 97.5 185.5t283.5 158.5l6 -18q-229 -103 -287 -238l9 -4q52 7 84 -21.5t32 -76.5q0 -46 -32.5 -78.5t-79.5 -32.5q-46 0 -79.5 36.5t-33.5 88.5z" />
<glyph unicode="&#x2019;" horiz-adv-x="436" d="M166 1001q233 103 287 238l-9 4q-52 -7 -84 21.5t-32 76.5q0 46 33 78.5t79 32.5t80.5 -36.5t34.5 -88.5q0 -97 -97.5 -185.5t-283.5 -158.5z" />
<glyph unicode="&#x201a;" horiz-adv-x="448" d="M-150 -262q233 103 287 237l-8 5q-52 -7 -84.5 22.5t-32.5 77.5q0 44 33.5 77t79.5 33t80.5 -37t34.5 -90q0 -97 -98 -185.5t-285 -158.5z" />
<glyph unicode="&#x201c;" horiz-adv-x="782" d="M256 1112q0 97 97.5 185.5t283.5 158.5l6 -18q-229 -103 -287 -238l9 -4q52 7 84 -21.5t32 -76.5q0 -46 -32.5 -78.5t-79.5 -32.5q-46 0 -79.5 36.5t-33.5 88.5zM606 1112q0 97 97.5 185.5t283.5 158.5l8 -18q-231 -103 -286 -238l8 -4q52 7 84.5 -22t32.5 -76 q0 -46 -33.5 -78.5t-79.5 -32.5t-80.5 36.5t-34.5 88.5z" />
<glyph unicode="&#x201d;" horiz-adv-x="786" d="M166 1001q233 103 287 238l-9 4q-52 -7 -84 21.5t-32 76.5q0 46 33 78.5t79 32.5t80.5 -36.5t34.5 -88.5q0 -97 -97.5 -185.5t-283.5 -158.5zM518 1001q229 103 287 238l-8 4q-52 -7 -84.5 22t-32.5 76q0 46 33 78.5t80 32.5q46 0 79 -36.5t33 -88.5q0 -97 -97.5 -185.5 t-283.5 -158.5z" />
<glyph unicode="&#x201e;" horiz-adv-x="804" d="M-150 -262q233 103 287 237l-8 5q-52 -7 -84.5 22.5t-32.5 77.5q0 44 33.5 77t79.5 33t80.5 -37t34.5 -90q0 -97 -98 -185.5t-285 -158.5zM203 -262q228 102 286 237l-8 5q-52 -7 -84 22.5t-32 77.5q0 45 32.5 77.5t79.5 32.5q46 0 79.5 -37t33.5 -90q0 -97 -97.5 -185.5 t-283.5 -158.5z" />
<glyph unicode="&#x2020;" horiz-adv-x="1126" d="M184 983q0 45 46 69.5t96 24.5q78 0 162.5 -35t150.5 -94l8 6l31 226q25 200 39 254q12 43 37.5 67.5t56.5 24.5q33 0 53.5 -22t20.5 -60q0 -40 -23.5 -98t-89.5 -193l-102 -205l6 -6q70 43 172 72.5t172 29.5q62 0 97.5 -20.5t35.5 -54.5q0 -36 -33.5 -59t-79.5 -23 q-41 0 -116.5 37t-130.5 37q-67 0 -105.5 -39t-38.5 -93q0 -19 6 -61l23 -121q-62 -113 -156 -356.5t-182 -515.5l-18 4q59 263 104 523.5t51 375.5l101 110q45 48 45 107q0 35 -30.5 60.5t-74.5 25.5t-129.5 -30.5t-112.5 -30.5q-45 0 -68.5 17t-23.5 46z" />
<glyph unicode="&#x2021;" horiz-adv-x="1200" d="M61 336q0 35 34 58.5t79 23.5q40 0 116 -37t132 -37q67 0 105 38t38 91q0 41 -6 62l-24 143l98 108q47 52 47 109q0 35 -30.5 60.5t-74.5 25.5t-129 -30.5t-112 -30.5q-45 0 -68.5 17t-23.5 46q0 45 45.5 69.5t95.5 24.5q78 0 162.5 -35t150.5 -94l9 6l30 226 q25 200 39 254q12 43 37.5 67.5t56.5 24.5q33 0 53.5 -22t20.5 -60q0 -40 -23.5 -98t-89.5 -193l-102 -205l6 -6q70 43 172 72.5t172 29.5q62 0 97.5 -20.5t35.5 -54.5q0 -36 -33 -59t-79 -23q-40 0 -116 37t-132 37q-67 0 -105 -39t-38 -93q0 -40 6 -61l24 -143l-98 -109 q-47 -52 -47 -108q0 -34 30.5 -60t73.5 -26q44 0 129.5 31.5t112.5 31.5q45 0 68.5 -18t23.5 -48q0 -43 -46 -67.5t-95 -24.5q-78 0 -163 34.5t-151 92.5l-8 -6l-30 -225q-26 -204 -39 -254q-12 -43 -38 -67.5t-57 -24.5q-33 0 -53 22t-20 60q0 41 23.5 100t88.5 191 l103 204l-6 6q-70 -43 -172 -72.5t-172 -29.5q-62 0 -98 21t-36 57z" />
<glyph unicode="&#x2022;" horiz-adv-x="925" d="M268 672q0 101 72.5 173.5t173.5 72.5q100 0 172 -72.5t72 -173.5q0 -100 -72 -171t-172 -71q-101 0 -173.5 71t-72.5 171z" />
<glyph unicode="&#x2026;" horiz-adv-x="1261" d="M10 78q0 45 33.5 77.5t79.5 32.5t79.5 -32t33.5 -76q0 -47 -33.5 -80t-79.5 -33t-79.5 32.5t-33.5 78.5zM426 78q0 45 33.5 77.5t79.5 32.5t79 -32t33 -76q0 -47 -33 -80t-79 -33t-79.5 32.5t-33.5 78.5zM842 78q0 46 33 78t79 32t79.5 -32t33.5 -76q0 -47 -33.5 -80 t-79.5 -33t-79 32.5t-33 78.5z" />
<glyph unicode="&#x202f;" horiz-adv-x="394" />
<glyph unicode="&#x2039;" horiz-adv-x="606" d="M78 479q0 12 51 49l446 332l17 -18l-383 -377l178 -395l-20 -13l-258 365q-31 45 -31 57z" />
<glyph unicode="&#x203a;" horiz-adv-x="606" d="M33 78l381 377l-178 395l22 12l258 -364q31 -45 31 -58q0 -12 -51 -49l-449 -332z" />
<glyph unicode="&#x2044;" horiz-adv-x="1241" d="M-59 -66l700 732l686 720h49l-694 -729l-692 -723h-49z" />
<glyph unicode="&#x205f;" horiz-adv-x="492" />
<glyph unicode="&#x20ac;" horiz-adv-x="1335" d="M72 549l10 35h186q13 109 45 196h-170l13 33h170q46 120 119 223.5t166 180.5t208.5 121t237.5 44q148 0 236.5 -72.5t88.5 -174.5q0 -68 -36.5 -110t-92.5 -42q-46 0 -77 31t-31 78q0 48 35.5 85.5t93.5 49.5q-9 47 -64.5 88t-152.5 41q-99 0 -189 -44.5t-159 -121 t-121.5 -172t-85.5 -205.5h495l-12 -33h-493q-27 -111 -35 -196h467l-11 -35h-458q-2 -18 -2 -53q0 -209 96 -318.5t258 -109.5q103 0 203.5 56.5t208.5 186.5l16 -14q-53 -73 -105.5 -128.5t-117.5 -104t-140.5 -74t-158.5 -25.5q-213 0 -333 135t-120 363q0 57 4 86h-192z " />
<glyph unicode="&#x2122;" horiz-adv-x="1204" d="M311 1276l47 151h392l-35 -151h-15q-6 72 -27 102.5t-67 30.5h-20l-103 -385q-5 -17 10 -24t60 -7l-4 -16h-232l5 16q45 0 63 6.5t23 24.5l102 385h-21q-45 0 -82 -31t-79 -102h-17zM684 977l4 14q48 4 66.5 23t31.5 69l72 269q15 59 -57 61l4 14h166l37 -331h6l213 331 h170l-4 -14q-45 -3 -61.5 -9.5t-20.5 -23.5l-97 -356q-4 -17 9.5 -23t56.5 -8l-4 -16h-211l4 16q37 2 51.5 8t18.5 23l94 350h-12l-254 -399h-17l-51 399h-10l-76 -291q-13 -47 -4.5 -66.5t51.5 -25.5l-4 -14h-172z" />
<glyph unicode="&#x25fc;" horiz-adv-x="962" d="M0 0v963h963v-963h-963z" />
</font>
</defs>
</svg>
