<?xml version="1.0" standalone="no"?>
<!DOCTYPE svg PUBLIC "-//W3C//DTD SVG 1.1//EN" "http://www.w3.org/Graphics/SVG/1.1/DTD/svg11.dtd" >
<svg xmlns="http://www.w3.org/2000/svg" xmlns:xlink="http://www.w3.org/1999/xlink" version="1.1">
<metadata></metadata>
<defs>
<font id="chronicle_displayblack" horiz-adv-x="1603" >
<font-face units-per-em="2048" ascent="1638" descent="-410" />
<missing-glyph horiz-adv-x="397" />
<glyph unicode="&#xfb01;" horiz-adv-x="1345" d="M20 864v39l179 37v55q0 250 104 357q129 129 397 129q226 0 333.5 -63t107.5 -173q0 -73 -45 -120.5t-119 -47.5t-123 41t-49 113q0 43 21 81t61 62q-59 66 -158 66q-106 0 -151 -45q-36 -36 -50 -93t-14 -172v-194h287l379 18v-858q0 -39 26 -54.5t111 -16.5v-25h-576 v25q123 3 123 71v772h-350v-772q0 -68 119 -71v-25h-572v25q84 1 111 16.5t27 54.5v768h-179z" />
<glyph unicode="&#xfb02;" horiz-adv-x="1353" d="M20 864v39l179 37v68q0 247 104 354q119 119 373 119q188 0 282 -56l238 56v-1385q0 -39 26.5 -54.5t110.5 -16.5v-25h-575v25q123 3 123 71v772h-367v-772q0 -68 119 -71v-25h-572v25q84 1 111 16.5t27 54.5v768h-179zM514 936h367v172q-68 3 -111 43t-43 111 q0 37 18.5 77.5t47.5 61.5q-42 39 -103 39q-78 0 -117 -39q-31 -31 -45 -91t-14 -175v-199z" />
<glyph horiz-adv-x="0" />
<glyph horiz-adv-x="682" />
<glyph unicode=" "  horiz-adv-x="397" />
<glyph unicode="&#x09;" horiz-adv-x="397" />
<glyph unicode="&#xa0;" horiz-adv-x="397" />
<glyph unicode="!" horiz-adv-x="593" d="M113 141q0 73 54 127t132 54t130 -52t52 -125t-54 -126.5t-132 -53.5t-130 51.5t-52 124.5zM127 1274q0 99 44.5 155t127.5 56q82 0 127 -56.5t45 -154.5q0 -76 -68.5 -389t-87.5 -453h-32q-19 140 -87.5 453t-68.5 389z" />
<glyph unicode="&#x22;" horiz-adv-x="970" d="M141 838l43 336q19 151 37 196q17 40 49 61t72 21q60 0 106 -41t46 -98q0 -20 -11 -49q-18 -46 -108 -166l-203 -273zM551 838l43 336q19 151 37 196q17 40 49 61t72 21q60 0 105.5 -41t45.5 -98q0 -22 -10 -49q-11 -29 -32.5 -61t-76.5 -105l-202 -273z" />
<glyph unicode="#" horiz-adv-x="1449" d="M78 389v43h323l103 518h-336v43h344l92 461h53l-90 -461h437l92 461h53l-90 -461h321v-43h-329l-103 -518h344v-43h-352l-94 -475h-53l92 475h-436l-95 -475h-53l92 475h-315zM457 432h436l102 518h-436z" />
<glyph unicode="$" horiz-adv-x="1159" d="M59 336q0 66 47 120t130 54q74 0 118.5 -47.5t44.5 -114.5q0 -112 -116 -166q27 -40 97.5 -68t168.5 -34v461q-13 5 -28.5 10.5t-34.5 12.5t-31 11q-66 24 -112.5 44.5t-99.5 54t-86 70.5t-55 91t-22 119q0 112 66 196.5t175.5 128t247.5 46.5v150h54v-152 q194 -6 318 -79.5t124 -186.5q0 -64 -42 -111t-112 -47q-81 0 -123.5 44.5t-42.5 111.5q0 41 24 82t62 61q-69 77 -208 84v-424q50 -20 84 -31q56 -20 97 -38t90 -44t82.5 -56t63.5 -68.5t45 -88.5t15 -108q0 -168 -122 -273.5t-376 -111.5v-172h-53v172q-226 4 -358 86 t-132 211zM358 1094q0 -72 49.5 -120.5t161.5 -94.5v405q-91 -5 -151 -53.5t-60 -136.5zM602 80q110 3 172 54.5t62 141.5t-52 141t-182 103v-440z" />
<glyph unicode="%" horiz-adv-x="1671" d="M96 907q0 123 60 235.5t163.5 182.5t221.5 70q150 0 211 -115q92 -45 217 -45q94 0 176 44.5t176 145.5h65l-1007 -1478h-100l968 1345l-6 6q-80 -69 -166.5 -100t-200.5 -31q-44 0 -90 9q4 -36 4 -60q0 -56 -14 -122t-45.5 -137t-76 -128.5t-113 -95t-148.5 -37.5 q-137 0 -216 82t-79 229zM317 821q0 -91 37 -128.5t90 -37.5q62 0 118 45t92.5 114t58.5 149t22 151q0 42 -6 72q-119 31 -221 100q-83 -59 -137 -197.5t-54 -267.5zM891 283q0 123 60 235t163 182t221 70t183 -72.5t65 -205.5q0 -56 -14 -122t-45.5 -137.5t-76 -129 t-113 -95t-148.5 -37.5q-137 0 -216 82.5t-79 229.5zM1112 197q0 -91 37 -128.5t90 -37.5q62 0 118 45t92.5 113.5t58.5 148.5t22 151q0 100 -36.5 153.5t-94.5 53.5q-79 0 -147 -82.5t-104 -196.5t-36 -220z" />
<glyph unicode="&#x26;" horiz-adv-x="1583" d="M57 307q0 276 359 393q-90 85 -127 160t-37 160q0 154 111.5 255t304.5 101q187 0 287 -87t100 -206q0 -102 -75 -185t-226 -132q209 -171 288 -299q31 86 72 146.5t84 90.5t80 42t74 12q84 0 136 -49.5t52 -128.5q0 -66 -47 -114t-113 -48q-65 0 -110 47.5t-45 114.5 q0 10 2 18l-8 6q-88 -54 -148 -170q57 -92 106 -152.5t90.5 -90t73.5 -40t70 -10.5q31 0 57 10t72 39l16 -18q-175 -207 -360 -207q-105 0 -176 47.5t-150 182.5q-148 -230 -430 -230q-167 0 -275 93t-108 249zM352 399q0 -134 77.5 -209t203.5 -75q57 0 116 28.5t101 83.5 q-58 93 -174 220.5t-225 222.5q-99 -116 -99 -271zM512 1149q0 -83 37.5 -153t155.5 -187q63 65 88.5 136.5t25.5 176.5t-43 163t-119 58q-64 0 -104.5 -51t-40.5 -143z" />
<glyph unicode="'" horiz-adv-x="561" d="M141 838l43 336q19 151 37 196q17 40 49 61t72 21q60 0 106 -41t46 -98q0 -20 -11 -49q-18 -46 -108 -166l-203 -273z" />
<glyph unicode="(" horiz-adv-x="784" d="M129 612q0 123 30.5 239t83.5 210t122.5 176.5t150 145.5t162.5 108.5t164 73.5l12 -25q-139 -95 -229.5 -214.5t-141.5 -298.5t-51 -415t51 -414.5t141.5 -298t229.5 -214.5l-12 -25q-99 34 -196.5 91.5t-192 145t-166 192t-115 240.5t-43.5 283z" />
<glyph unicode=")" horiz-adv-x="784" d="M-70 -315q139 95 229.5 214.5t141.5 298t51 414.5t-51 415t-141.5 298.5t-229.5 214.5l13 25q99 -34 196.5 -91.5t191.5 -145t165.5 -192t115 -241t43.5 -283.5t-43.5 -283t-115 -240.5t-165.5 -192t-191.5 -145t-196.5 -91.5z" />
<glyph unicode="*" horiz-adv-x="866" d="M111.5 973.5q4.5 37.5 40.5 64.5q11 8 35.5 17.5t58.5 18t61 15t61.5 14t41.5 9.5v21q-5 1 -54 12t-81.5 18.5t-70.5 20t-52 22.5q-36 27 -40.5 64.5t21.5 70.5q25 33 58.5 40.5t72.5 -19.5q37 -29 152 -221l20 6q0 4 -5 56t-7 84.5t-2 73t6 56.5q14 43 47.5 58t73.5 2 q40 -12 58 -45t5 -76q-14 -42 -168 -213l13 -17q7 3 52 22t77.5 32.5t70.5 26t54 12.5q44 0 69 -27.5t25 -69.5q0 -41 -25 -68.5t-69 -27.5q-41 0 -252 90l-13 -18q152 -169 166 -213q13 -43 -5 -76t-58 -45q-40 -13 -73.5 1.5t-47.5 57.5q-5 13 -6 39.5t1 62t4 64.5t5 64 t4 43l-20 6q-4 -7 -29.5 -47.5t-43.5 -69t-41.5 -60t-37.5 -42.5q-38 -27 -72 -20t-59 40q-26 33 -21.5 70.5z" />
<glyph unicode="+" horiz-adv-x="1138" d="M111 649v45h434v432h53v-432h430v-45h-430v-438h-53v438h-434z" />
<glyph unicode="," horiz-adv-x="552" d="M63 -311q116 60 180.5 146t71.5 151l-8 4q-33 -13 -63 -13q-60 0 -107 45.5t-47 120.5q0 73 48.5 126t123.5 53q91 0 146 -63.5t55 -164.5q0 -144 -105 -264t-282 -166z" />
<glyph unicode="-" horiz-adv-x="749" d="M113 492v83h524v-83h-524z" />
<glyph unicode="." horiz-adv-x="552" d="M92 141q0 73 54.5 127t132.5 54t130 -52t52 -125t-54.5 -126.5t-132.5 -53.5t-130 51.5t-52 124.5z" />
<glyph unicode="/" horiz-adv-x="935" d="M16 -440l435 983l426 985h61l-434 -985l-426 -983h-62z" />
<glyph unicode="0" horiz-adv-x="1333" d="M78 676q0 204 70.5 366.5t206.5 257.5t315 95q182 0 316 -93t201.5 -253t67.5 -365q0 -203 -70.5 -364t-206 -255t-314.5 -94q-182 0 -316 91.5t-202 250t-68 363.5zM440 680q0 -137 6.5 -238t22 -186t42 -137.5t68 -81.5t97.5 -29q46 0 80.5 18.5t58 59t38.5 93 t23.5 133t11.5 165.5t3 203q0 174 -10 292t-35.5 208.5t-72 133t-116.5 42.5q-46 0 -80.5 -18.5t-58.5 -59.5t-39.5 -94t-24 -134t-11.5 -166.5t-3 -203.5z" />
<glyph unicode="1" horiz-adv-x="905" d="M66 1319v22l567 45v-1245q0 -40 17 -63t68 -36.5t144 -14.5v-27h-792v27q133 1 182 28t49 86v1002q0 51 -6 78t-30 50t-70.5 33t-128.5 15z" />
<glyph unicode="2" horiz-adv-x="1196" d="M78 1061q0 155 142 244.5t360 89.5q259 0 389.5 -103t130.5 -268q0 -149 -131 -278.5t-469 -331.5l-219 -131v-9h567q89 0 127 37t96 174l27 -2l-6 -483h-1012v199l266 188q163 116 248 203.5t125.5 189.5t40.5 242q0 95 -17 161.5t-49 103.5t-71.5 53t-92.5 16 q-72 0 -136.5 -27t-94.5 -82q80 -31 118 -77t38 -115q0 -78 -51 -134.5t-136 -56.5q-86 0 -138 56.5t-52 140.5z" />
<glyph unicode="3" horiz-adv-x="1175" d="M53 268q0 86 54 142.5t137 56.5q82 0 130 -51t48 -123q0 -61 -34 -110.5t-95 -80.5q25 -39 93.5 -66.5t145.5 -27.5q120 0 186 89t66 265q0 156 -75.5 234t-262.5 78h-69v45h69q171 0 237.5 84t66.5 258q0 152 -57 223.5t-187 71.5q-50 0 -107 -26t-84 -60 q57 -22 96.5 -68.5t39.5 -116.5q0 -72 -47 -123t-132 -51q-77 0 -127.5 49t-50.5 132q0 138 134.5 220.5t338.5 82.5q249 0 386 -87.5t137 -240.5q0 -138 -110.5 -228t-367.5 -132v-9q250 -9 381 -100t131 -244q0 -187 -151.5 -285t-442.5 -98q-220 0 -348.5 80t-128.5 217z " />
<glyph unicode="4" horiz-adv-x="1255" d="M31 381v94l700 891h230v-788h241v-197h-241v-250q0 -54 35 -78.5t126 -25.5v-27h-665v27q91 1 131.5 26t40.5 78v250h-598zM190 578h439v559h-8z" />
<glyph unicode="5" horiz-adv-x="1144" d="M82 252q0 84 52.5 140.5t137.5 56.5q80 0 124 -49t44 -119q0 -69 -37 -117.5t-96 -71.5q33 -37 87.5 -60.5t123.5 -23.5q60 0 103.5 21.5t69 56.5t40.5 92t20 115.5t5 138.5q0 96 -20.5 163t-58.5 103.5t-84 52t-106 15.5q-153 0 -288 -115l-39 19l18 696h883l-49 -285 h-793l-10 -379q68 56 169.5 89.5t205.5 33.5q135 0 235 -29.5t160 -84t88.5 -126.5t28.5 -163q0 -201 -146 -326t-415 -125q-120 0 -220.5 29.5t-166.5 95t-66 156.5z" />
<glyph unicode="6" horiz-adv-x="1220" d="M72 559q0 340 223 563q132 132 311 197t486 82v-25q-170 -38 -285 -90.5t-192 -132.5t-122 -176.5t-81 -241.5l8 -4q43 85 129.5 131.5t204.5 46.5q190 0 297.5 -116.5t107.5 -303.5q0 -114 -33.5 -208t-98 -163.5t-167 -108t-233.5 -38.5q-253 0 -404 155t-151 433z M397 440q0 -434 234 -434q99 0 146.5 107.5t47.5 326.5q0 404 -188 404q-103 0 -171.5 -111t-68.5 -293z" />
<glyph unicode="7" horiz-adv-x="1120" d="M115 862l16 504h977v-25l-326 -723l-266 -638h-295v18l725 1083h-602q-69 0 -104.5 -39.5t-98.5 -181.5z" />
<glyph unicode="8" horiz-adv-x="1191" d="M66 313q0 216 292 324q-121 61 -191.5 146t-70.5 210q0 116 69.5 209.5t181 143t239.5 49.5q221 0 355 -88t134 -244q0 -91 -74.5 -166.5t-195.5 -122.5q69 -30 122 -62.5t100.5 -78t73 -106.5t25.5 -134q0 -121 -72.5 -218.5t-192 -150.5t-259.5 -53q-261 0 -398.5 89.5 t-137.5 252.5zM334 328q0 -59 17 -114.5t50 -102t88 -75t123 -28.5q110 0 169 66t59 190q0 46 -18.5 87.5t-48 72t-74.5 59t-88 48.5t-97 40q-56 21 -100 39q-47 -55 -63.5 -123.5t-16.5 -158.5zM375 1120q0 -48 20 -90t49 -71.5t76.5 -58t89 -47t99.5 -40.5l30 -12 q68 91 68 262q0 75 -22.5 138.5t-77.5 108t-136 44.5q-97 0 -146.5 -61.5t-49.5 -172.5z" />
<glyph unicode="9" horiz-adv-x="1220" d="M72 877q0 153 59 268t181.5 182.5t297.5 67.5q265 0 407 -156t142 -453q0 -323 -221 -544q-133 -133 -313 -200t-486 -85v25q170 39 285 92.5t192 135t121.5 178.5t81.5 243l-8 4q-90 -178 -315 -178q-192 0 -308 118t-116 302zM406 926q0 -404 188 -404q103 0 171.5 111 t68.5 293q0 434 -216 434q-101 0 -156.5 -109.5t-55.5 -324.5z" />
<glyph unicode=":" horiz-adv-x="593" d="M113 141q0 73 54 127t132 54t130 -52t52 -125t-54 -126.5t-132 -53.5t-130 51.5t-52 124.5zM113 682q0 73 54 126.5t132 53.5t130 -51.5t52 -124.5t-54 -126.5t-132 -53.5t-130 51.5t-52 124.5z" />
<glyph unicode=";" horiz-adv-x="593" d="M84 -311q116 60 180.5 146t71.5 151l-8 4q-32 -13 -64 -13q-60 0 -106.5 45.5t-46.5 120.5q0 73 48.5 126t123.5 53q91 0 145.5 -63.5t54.5 -164.5q0 -144 -105 -264t-282 -166zM113 682q0 73 54 126.5t132 53.5t130 -51.5t52 -124.5t-54 -126.5t-132 -53.5t-130 51.5 t-52 124.5z" />
<glyph unicode="&#x3c;" horiz-adv-x="1136" d="M172 645v49l795 436v-61l-731 -399l731 -396v-63z" />
<glyph unicode="=" horiz-adv-x="1138" d="M121 444v45h897v-45h-897zM121 850v45h897v-45h-897z" />
<glyph unicode="&#x3e;" horiz-adv-x="1136" d="M170 211v61l731 400l-731 395v63l795 -434v-49z" />
<glyph unicode="?" horiz-adv-x="1085" d="M16 1167q0 94 65 166.5t175 110t246 37.5q256 0 395 -101.5t139 -269.5q0 -317 -528 -420v-258h-55v289q146 58 201 153.5t55 243.5q0 326 -254 326q-73 0 -134.5 -28t-87.5 -73q75 -21 114.5 -71.5t39.5 -116.5q0 -74 -47.5 -129t-130.5 -55q-84 0 -138.5 55.5 t-54.5 140.5zM295 141q0 73 54 127t132 54t130.5 -52t52.5 -125t-54.5 -126.5t-132.5 -53.5t-130 51.5t-52 124.5z" />
<glyph unicode="@" horiz-adv-x="1861" d="M125 535q0 185 65 346t179.5 275t277.5 179.5t352 65.5q201 0 370 -88.5t268.5 -248t99.5 -355.5q0 -113 -30.5 -210.5t-81 -166.5t-116 -118.5t-135 -73t-137.5 -23.5q-57 0 -98 7t-66.5 17.5t-43 31t-26.5 40.5t-18 53l-8 4q-67 -70 -125 -103.5t-133 -33.5 q-119 0 -188.5 84.5t-69.5 222.5q0 137 69 264t181.5 205t232.5 78q83 0 127 -27.5t72 -80.5h10l23 88l266 16l-109 -297l-82 -285q-74 -233 52 -233q58 0 125 38.5t126.5 105t98.5 171.5t39 224q0 181 -91 331t-252.5 237t-359.5 87q-178 0 -332 -64.5t-260 -174.5 t-166.5 -260t-60.5 -318q0 -171 56 -318.5t158 -254.5t253.5 -168.5t333.5 -61.5q156 0 275.5 42.5t234.5 125.5l22 -29q-119 -89 -247 -134.5t-295 -45.5q-240 0 -430 102.5t-298 293t-108 438.5zM725 408q0 -82 34 -122t93 -40q29 0 54.5 14t60.5 49l155 518 q-21 48 -46.5 69.5t-65.5 21.5q-68 0 -135 -78.5t-108.5 -197.5t-41.5 -234z" />
<glyph unicode="A" horiz-adv-x="1478" d="M-68 0v29q101 26 168.5 103t126.5 230l418 1094h180l467 -1270q30 -80 70 -109.5t151 -47.5v-29h-780v29q145 7 187 41q25 20 25 57q0 24 -11 55l-127 359h-461l-74 -197q-38 -100 -38 -165q0 -36 12 -60q32 -70 174 -90v-29h-488zM360 582h433l-207 579h-11z" />
<glyph unicode="B" horiz-adv-x="1486" d="M59 0v29q122 4 163.5 26.5t41.5 77.5v1161q0 56 -42 79.5t-163 27.5v26h721q133 0 235 -20t164 -52.5t101 -78t53.5 -91.5t14.5 -98q0 -127 -108.5 -215.5t-342.5 -113.5v-8q246 -6 373 -103t127 -250q0 -82 -29.5 -149.5t-95.5 -125t-186.5 -90t-286.5 -32.5h-740z M608 37h148q77 0 131.5 18.5t85 47.5t47.5 78.5t22 97.5t5 120q0 332 -314 332h-125v-694zM608 766h123q81 0 136 22t84.5 66t41 97.5t11.5 129.5q0 56 -6.5 99.5t-25 85t-48.5 68.5t-80.5 43t-118.5 16h-117v-627z" />
<glyph unicode="C" horiz-adv-x="1488" d="M78 686q0 178 62.5 326t169 245.5t247 151t297.5 53.5q209 0 383 -96l96 107h25v-560h-33q-48 104 -86 174.5t-86 139t-95.5 108.5t-108 64t-130.5 24q-170 0 -268 -182t-98 -506q0 -327 125.5 -505.5t328.5 -178.5q160 0 271 76t188 246l39 -19q-170 -389 -614 -389 q-336 0 -524.5 191t-188.5 530z" />
<glyph unicode="D" horiz-adv-x="1615" d="M59 0v29q122 4 163.5 26.5t41.5 77.5v1161q0 56 -42 79.5t-163 27.5v26h695q194 0 343.5 -50t244.5 -141t143.5 -216t48.5 -279q0 -120 -25 -226.5t-82 -202t-141.5 -164t-211 -108.5t-283.5 -40h-732zM608 37h119q163 0 256 61.5t137.5 209t44.5 409.5q0 194 -28 325.5 t-86.5 208.5t-139 109.5t-196.5 32.5h-107v-1356z" />
<glyph unicode="E" horiz-adv-x="1492" d="M59 0v29q122 4 163.5 26.5t41.5 77.5v1161q0 56 -42 79.5t-163 27.5v26h1252l6 -505l-33 -4q-50 105 -75.5 155t-64.5 117t-68.5 95t-73 58.5t-92 40t-113.5 9.5h-189v-635h68q124 0 199 64t116 212h27v-592h-27q-41 150 -116 215.5t-199 65.5h-68v-686h174q77 0 135 10 t108 37t86.5 61t76 96.5t71.5 128t78 169.5l33 -4l-10 -535h-1301z" />
<glyph unicode="F" horiz-adv-x="1392" d="M59 0v29q122 4 163.5 26.5t41.5 77.5v1161q0 56 -42 79.5t-163 27.5v26h1250l12 -512l-33 -4q-40 84 -66 135t-59 108.5t-60 90t-62 65t-72 48t-83 25.5t-102 10h-176v-658h68q124 0 197 63.5t114 211.5h27v-590h-27q-41 150 -114.5 214t-196.5 64h-68v-565 q0 -41 14 -61.5t59.5 -32t139.5 -14.5v-25h-762z" />
<glyph unicode="G" horiz-adv-x="1564" d="M82 711q0 223 101.5 395t275.5 264t391 92q215 0 385 -96l106 107h25v-519h-33q-58 118 -108.5 198t-110.5 145t-128 95.5t-148 30.5q-167 0 -274 -181.5t-107 -526.5q0 -347 109.5 -529t285.5 -182q136 0 215 62v464q0 56 -47 82.5t-170 30.5v27h694v-27 q-87 -5 -119 -27t-32 -84v-419q-254 -148 -576 -148q-216 0 -381.5 87.5t-259.5 258t-94 400.5z" />
<glyph unicode="H" horiz-adv-x="1748" d="M59 0v29q123 4 164 26t41 78v1161q0 57 -41.5 80t-163.5 27v26h740v-26q-101 -5 -146 -28t-45 -79v-532h533v532q0 56 -45.5 79t-145.5 28v26h740v-26q-123 -4 -164 -27t-41 -80v-1161q0 -57 40.5 -78.5t164.5 -25.5v-29h-740v29q102 5 146.5 26.5t44.5 77.5v588h-533 v-588q0 -56 44 -77.5t147 -26.5v-29h-740z" />
<glyph unicode="I" horiz-adv-x="915" d="M76 0v29q125 4 168 26.5t43 77.5v1161q0 56 -43.5 79.5t-167.5 27.5v26h764v-26q-124 -4 -167.5 -27.5t-43.5 -79.5v-1161q0 -55 43 -77.5t168 -26.5v-29h-764z" />
<glyph unicode="J" horiz-adv-x="1226" d="M33 285q0 95 57 157t141 62t141.5 -55t57.5 -138q0 -90 -59 -148t-160 -61q30 -37 86 -62.5t121 -25.5q129 0 185 104t56 333v843q0 56 -47.5 79t-160.5 28v26h747v-26q-113 -4 -153.5 -28t-40.5 -79v-807q0 -265 -127 -393.5t-377 -128.5q-233 0 -350 89.5t-117 230.5z " />
<glyph unicode="K" horiz-adv-x="1568" d="M39 0v29q123 4 164 26t41 78v1161q0 57 -41.5 80t-163.5 27v26h739v-26q-101 -5 -145.5 -28t-44.5 -79v-657l440 485q49 52 74 98q26 47 26 86q0 38 -34 62q-35 26 -105 33v26h555v-26q-131 -29 -255 -114.5t-279 -252.5l-99 -106l465 -678q80 -116 112 -149 q61 -62 152 -72v-29h-712v29q106 9 122 47q3 8 3 18q0 38 -47 107l-322 481l-96 -104v-445q0 -56 44 -77.5t146 -26.5v-29h-739z" />
<glyph unicode="L" horiz-adv-x="1388" d="M39 0v29q122 4 163.5 26.5t41.5 77.5v1161q0 56 -42 79.5t-163 27.5v26h752v-26q-124 -4 -163.5 -26.5t-39.5 -80.5v-1257h92q78 0 137 9.5t111.5 35.5t92 62t82.5 98.5t81 134t88 180.5l33 -2l-19 -555h-1247z" />
<glyph unicode="M" horiz-adv-x="2076" d="M57 0v29q142 17 198 90.5t56 232.5v832q0 97 -63.5 155.5t-190.5 61.5v26h625l405 -1011h11l362 1011h557v-26q-121 -4 -163 -27.5t-42 -79.5v-1161q0 -55 41.5 -77.5t163.5 -26.5v-29h-735v29q101 5 146 27t45 77v1151h-11l-463 -1284h-94l-530 1284h-13v-932 q0 -158 61 -231t212 -92v-29h-578z" />
<glyph unicode="N" horiz-adv-x="1677" d="M57 0v29q142 17 198 90.5t56 232.5v807q0 101 -64 167t-190 75v26h521l770 -985h2v635q0 155 -67.5 231t-221.5 93v26h594v-26q-142 -20 -198 -93.5t-56 -230.5v-1095h-121l-915 1165h-3v-795q0 -158 65 -233t220 -90v-29h-590z" />
<glyph unicode="O" d="M82 711q0 169 54 310t149 237.5t227.5 150t288.5 53.5q325 0 523 -201t198 -542q0 -170 -54 -312t-149 -238.5t-228.5 -150t-289.5 -53.5q-160 0 -293 52t-227 147.5t-146.5 236t-52.5 310.5zM457 715q0 -367 86.5 -539t267.5 -172q177 0 256.5 170t79.5 541 q0 364 -87 536t-267 172q-177 0 -256.5 -169.5t-79.5 -538.5z" />
<glyph unicode="P" horiz-adv-x="1427" d="M59 0v29q122 4 163.5 26.5t41.5 77.5v1161q0 56 -42 79.5t-163 27.5v26h662q144 0 254 -19t182.5 -53.5t118 -86t65 -112t19.5 -136.5q0 -90 -33.5 -162t-106.5 -129.5t-200.5 -89t-302.5 -31.5h-109v-475q0 -41 14 -61.5t60.5 -32t142.5 -14.5v-25h-766zM608 643h86 q92 0 153 22.5t96.5 71t50 116t14.5 167.5q0 180 -70.5 276.5t-235.5 96.5h-94v-750z" />
<glyph unicode="Q" d="M82 715q0 169 53.5 309.5t149 236t228 148.5t288.5 53q214 0 377 -88.5t253.5 -256.5t90.5 -394q0 -312 -169.5 -510t-447.5 -231q58 -21 116.5 -65.5t103 -91.5t87 -91t85.5 -72.5t83 -28.5q62 0 62 56q0 17 -14 35t-34 36t-39.5 37.5t-33.5 46t-14 54.5 q0 60 40.5 102.5t104.5 42.5q68 0 111 -50t43 -122q0 -89 -57.5 -165.5t-156.5 -121.5t-216 -45q-78 0 -147.5 31t-119 74.5t-95.5 87.5t-97.5 75t-104.5 31q-78 0 -140 -34.5t-144 -116.5l-23 22q170 219 365 277q-270 39 -429 231.5t-159 497.5zM457 719 q0 -366 86.5 -535.5t267.5 -169.5q178 0 257 167.5t79 537.5q0 364 -87 534t-267 170q-178 0 -257 -167.5t-79 -536.5z" />
<glyph unicode="R" horiz-adv-x="1536" d="M59 0v29q122 4 163.5 26.5t41.5 77.5v1161q0 56 -42 79.5t-163 27.5v26h740q125 0 224 -18.5t163.5 -50t107 -76.5t60.5 -94.5t18 -106.5q0 -139 -100.5 -226.5t-333.5 -121.5v-6q110 -2 187.5 -26t122.5 -69t68 -98.5t32 -125.5l14 -191q15 -117 51.5 -149.5 t159.5 -36.5v-27q-98 -12 -219 -12q-86 0 -145 10.5t-96 28.5t-58.5 51.5t-30.5 70.5t-14 95l-15 172q-7 83 -22.5 134.5t-49.5 88t-89 51.5t-140 15h-86v-576q0 -55 45.5 -77t147.5 -27v-29h-742zM608 741h117q92 0 147.5 14.5t89.5 53t46 96.5t12 154q0 167 -70.5 250.5 t-242.5 83.5h-99v-652z" />
<glyph unicode="S" horiz-adv-x="1218" d="M100 -35v527h33q112 -227 247 -353.5t275 -126.5q124 0 195.5 70.5t71.5 173.5q0 110 -86.5 182t-274.5 133q-56 18 -96 33t-90 38t-84.5 45.5t-70 55t-57 69t-35 84.5t-13.5 103q0 204 137 329.5t360 125.5q170 0 320 -86l98 98h25v-471h-33q-114 219 -218.5 319.5 t-219.5 100.5q-99 0 -171.5 -61t-72.5 -166q0 -108 88 -176.5t281 -128.5q69 -21 119 -41.5t109.5 -56t96.5 -77.5t62.5 -105t25.5 -140q0 -97 -30 -182.5t-88.5 -155.5t-157 -111t-225.5 -41q-89 0 -195.5 27.5t-183.5 71.5l-117 -107h-25z" />
<glyph unicode="T" horiz-adv-x="1525" d="M96 938l13 489h1310l11 -489l-33 -4q-127 240 -223.5 349.5t-208.5 109.5h-29v-1260q0 -55 49.5 -78t183.5 -26v-29h-811v29q133 3 183.5 26t50.5 78v1260h-31q-112 0 -208.5 -109.5t-223.5 -349.5z" />
<glyph unicode="U" horiz-adv-x="1681" d="M43 1401v26h737v-26q-99 -5 -143.5 -28.5t-44.5 -78.5v-860q0 -208 96 -302.5t277 -94.5q74 0 142.5 23.5t111.5 66.5q116 116 116 346v604q0 155 -66 231t-220 93v26h598v-26q-143 -20 -199.5 -94t-56.5 -230v-604q0 -508 -535 -508q-301 0 -454.5 123.5t-153.5 386.5 v819q0 56 -42.5 79.5t-162.5 27.5z" />
<glyph unicode="V" horiz-adv-x="1482" d="M-33 1401v26h776v-26q-143 -5 -181 -43q-20 -20 -20 -55q0 -30 15 -70l350 -897h13l301 801q26 67 26 116q0 39 -16 65q-36 60 -174 83v26h489v-26q-113 -23 -171.5 -88.5t-127.5 -245.5l-420 -1087h-135l-485 1222q-41 104 -87 144.5t-153 54.5z" />
<glyph unicode="W" horiz-adv-x="2164" d="M-12 1401v26h714v-26q-114 -7 -144 -45q-15 -19 -15 -49q0 -31 16 -74l281 -852h12l233 647l-61 174q-36 107 -78 151t-131 48v26h713v-26q-120 -6 -156 -44q-19 -21 -20 -55q0 -29 14 -69l281 -848h12l233 752q20 64 20 111q0 42 -16 70q-34 60 -151 83v26h469v-26 q-118 -23 -174.5 -88t-116.5 -246l-342 -1087h-131l-342 985l-340 -985h-135l-418 1222q-35 104 -78.5 144.5t-148.5 54.5z" />
<glyph unicode="X" horiz-adv-x="1495" d="M-20 0v29q133 17 219 83t219 246l213 289l-377 578q-61 94 -108 126t-162 50v26h757v-26q-121 -6 -150 -45q-10 -14 -10 -33q0 -35 33 -88l236 -383l213 287q53 73 64 127q3 12 3 24q0 39 -29 66q-37 36 -124 45v26h518v-26q-117 -18 -206.5 -91t-217.5 -241l-190 -252 l405 -620q26 -38 38 -54t35.5 -40.5t47 -35t61 -21.5t88.5 -17v-29h-768v29q124 6 154 42q11 13 11 33q0 34 -33 89l-261 419l-233 -323q-68 -91 -68 -153q0 -14 4 -27q19 -68 144 -80v-29h-526z" />
<glyph unicode="Y" horiz-adv-x="1435" d="M-41 1401v26h768v-26q-100 -6 -145.5 -27t-45.5 -58t31 -91l295 -559l262 473q49 89 49 142q0 18 -6 32q-22 55 -143 88v26h473v-26q-106 -19 -183.5 -89t-174.5 -243l-248 -444v-492q0 -55 43 -77.5t168 -26.5v-29h-764v29q125 4 168 26.5t43 77.5v449l-356 651 q-46 79 -93.5 113.5t-140.5 54.5z" />
<glyph unicode="Z" horiz-adv-x="1390" d="M57 29l877 1357h-324q-115 0 -220.5 -109t-244.5 -359l-32 4l24 505h1184l2 -28l-877 -1358h375q112 0 215.5 117.5t249.5 380.5l33 -4l-19 -535h-1241z" />
<glyph unicode="[" horiz-adv-x="765" d="M188 -338v1903h625v-41h-342v-1821h342v-41h-625z" />
<glyph unicode="\" horiz-adv-x="935" d="M-4 1528h61l426 -985l435 -983h-62l-426 983z" />
<glyph unicode="]" horiz-adv-x="765" d="M-47 -297h342v1821h-342v41h625v-1903h-625v41z" />
<glyph unicode="^" horiz-adv-x="739" d="M35 1032l317 539h35l318 -539h-50l-284 258l-287 -258h-49z" />
<glyph unicode="_" horiz-adv-x="901" d="M-4 0v63h909v-63h-909z" />
<glyph unicode="`" horiz-adv-x="487" d="M47 1446q0 50 40.5 84.5t96.5 34.5q61 0 90 -49t58 -189l53 -254h-39l-156 168q-89 96 -116 133t-27 72z" />
<glyph unicode="a" horiz-adv-x="1079" d="M55 242q0 62 35.5 122.5t97.5 94.5q63 34 157 48.5t183 18.5t117 13v184q0 104 -33 150.5t-108 46.5q-81 0 -137 -37q57 -51 57 -123t-40 -112t-116 -40q-65 0 -110 43.5t-45 106.5q0 203 444 203q204 0 302.5 -80.5t98.5 -257.5v-441q0 -75 34 -93q12 -6 28 -6 q33 0 86 23l12 -22q-66 -46 -119 -69t-114 -23q-101 0 -152 38t-69 117h-9q-138 -157 -305 -157q-143 0 -219 75.5t-76 176.5zM387 272q0 -72 35.5 -113.5t95.5 -41.5q37 0 72 20.5t55 52.5v308q-153 -17 -205.5 -64t-52.5 -162z" />
<glyph unicode="b" horiz-adv-x="1181" d="M-16 1419v25l460 24v-620q136 119 306 119q91 0 163 -36.5t117 -100t68.5 -145.5t23.5 -177q0 -233 -124.5 -378.5t-335.5 -145.5q-89 0 -181.5 22t-158.5 64l-154 -115h-43l4 201v1163q0 51 -28 75t-117 25zM444 152q65 -127 164 -127q63 0 104 62t58.5 165t17.5 246 q0 167 -51.5 270.5t-146.5 103.5q-38 0 -69 -13t-77 -44v-663z" />
<glyph unicode="c" horiz-adv-x="1015" d="M53 461q0 236 145.5 371t376.5 135q105 0 185.5 -21.5t125.5 -56.5t67 -74.5t22 -81.5q0 -75 -42.5 -120.5t-117.5 -45.5q-82 0 -126 45t-44 111q0 48 24 85t56 52q-15 29 -51 49.5t-88 20.5q-94 0 -146.5 -122.5t-52.5 -326.5q0 -81 16 -152.5t48.5 -130.5t87.5 -93.5 t127 -34.5q79 0 161 44.5t138 121.5l22 -15q-152 -237 -430 -237q-236 0 -370 125.5t-134 351.5z" />
<glyph unicode="d" horiz-adv-x="1185" d="M53 455q0 102 31.5 193.5t91 163t153 113.5t208.5 42q95 0 192 -33v385q0 51 -29 75t-116 25v25l460 24v-1349q0 -49 30 -76t110 -27v-16l-451 -8v123q-106 -131 -266 -131q-192 0 -303 129.5t-111 341.5zM385 487q0 -108 23.5 -194.5t74.5 -141.5t123 -55q40 0 66.5 11 t56.5 36v688q-23 41 -66 68t-96 27q-85 0 -133.5 -121t-48.5 -318z" />
<glyph unicode="e" horiz-adv-x="1042" d="M53 461q0 157 67.5 273t180.5 174.5t254 58.5q217 -1 332 -129q105 -117 105 -307q0 -18 -1 -37h-606v-29v-4q0 -193 76.5 -291t224.5 -98q87 0 153 41t126 123l22 -15q-152 -237 -430 -237q-230 0 -367 124.5t-137 352.5zM385 535h291q7 66 7 123q1 97 -21 163 q-34 105 -119 105q-145 0 -158 -391z" />
<glyph unicode="f" horiz-adv-x="772" d="M20 864v39l179 37v82q0 241 106 350t348 109q163 0 246.5 -52.5t83.5 -140.5q0 -71 -39 -113t-113 -42q-71 0 -115 39.5t-44 115.5q0 33 16.5 74.5t36.5 62.5q-34 15 -72 15q-53 0 -84 -31q-55 -55 -55 -270v-203h254v-68h-254v-772q0 -38 37.5 -52.5t153.5 -18.5v-25 h-644v25q84 1 111 16.5t27 54.5v768h-179z" />
<glyph unicode="g" horiz-adv-x="997" d="M20 -215q0 66 52 105t172 57v4q-86 29 -129 85.5t-43 119.5q0 56 64 112.5t175 79.5q-112 35 -174.5 108t-62.5 183q0 146 120.5 234t311.5 88q100 0 192 -29q38 89 100.5 145t141.5 56q63 0 97 -33.5t34 -87.5q0 -46 -28.5 -77.5t-79.5 -31.5q-43 0 -78 34.5t-35 88.5 q-31 -14 -62.5 -43t-52.5 -65q94 -38 147.5 -107t53.5 -164q0 -147 -120 -235t-310 -88q-63 0 -131 10q-61 -17 -86 -38t-25 -52q0 -62 170 -62h240q338 0 338 -245q0 -143 -153.5 -245t-393.5 -102q-194 0 -319.5 53.5t-125.5 141.5zM217 -190q0 -96 75 -139.5t226 -43.5 q133 0 213 52.5t80 146.5q0 59 -49.5 89t-169.5 30h-299q-76 -58 -76 -135zM373 643q0 -151 32 -217t109 -66q72 0 97.5 63.5t25.5 219.5q0 140 -32.5 210.5t-108.5 70.5q-74 0 -98.5 -62t-24.5 -219z" />
<glyph unicode="h" horiz-adv-x="1241" d="M18 1419v25l461 24v-708q65 91 161 146t194 55q262 0 262 -306v-559q0 -39 27 -54.5t112 -16.5v-25h-557v25q54 2 78 18t24 53v557q0 81 -34.5 125.5t-102.5 44.5q-80 0 -164 -104v-623q0 -36 24.5 -52.5t78.5 -18.5v-25h-555v25q83 1 110 16.5t27 54.5v1223q0 51 -29 75 t-117 25z" />
<glyph unicode="i" horiz-adv-x="665" d="M43 0v25q85 1 116 17t31 54v709q0 49 -32 74t-115 26v25l463 24v-858q0 -39 26 -54.5t111 -16.5v-25h-600zM162 1270q0 84 50 135t132 51q83 0 132.5 -48t49.5 -130q0 -85 -49.5 -134.5t-132.5 -49.5t-132.5 46.5t-49.5 129.5z" />
<glyph unicode="j" horiz-adv-x="657" d="M-248 -223q0 70 42 111.5t110 41.5q67 0 111 -42t44 -105q0 -54 -12 -81t-49 -56q5 -2 14.5 -6.5t18 -6.5t20.5 -2q144 0 144 240v934q0 52 -35 74.5t-131 25.5v25l477 24v-903q0 -143 -26.5 -218.5t-92.5 -141.5q-43 -43 -134 -72t-187 -29q-152 0 -233 54t-81 133z M162 1270q0 84 50 135t132 51q83 0 132.5 -48t49.5 -130q0 -85 -49.5 -134.5t-132.5 -49.5t-132.5 46.5t-49.5 129.5z" />
<glyph unicode="k" horiz-adv-x="1185" d="M18 1419v25l461 24v-1036l260 285q49 55 55 95q1 7 1 13q-1 31 -25 53q-30 26 -94 48v24h473v-24q-105 -27 -192.5 -83t-188.5 -157l-35 -35l332 -501q51 -78 81.5 -97.5t102.5 -27.5v-25h-571v25q65 3 76 23q3 5 3 12q0 22 -26 67l-194 317l-58 -61v-287 q0 -36 24.5 -52.5t78.5 -18.5v-25h-555v25q83 1 110 16.5t27 54.5v1223q0 51 -29 75t-117 25z" />
<glyph unicode="l" horiz-adv-x="636" d="M18 1419v25l461 24v-1372q0 -39 26.5 -54.5t110.5 -16.5v-25h-589v25q83 1 110 16.5t27 54.5v1223q0 51 -29 75t-117 25z" />
<glyph unicode="m" horiz-adv-x="1837" d="M41 0v25q84 1 111.5 16.5t27.5 54.5v709q0 50 -28.5 74.5t-110.5 25.5v25l451 24v-194q67 94 153.5 147.5t183.5 53.5q220 0 256 -213q63 94 156 153.5t186 59.5q267 0 267 -306v-559q0 -39 26.5 -54.5t110.5 -16.5v-25h-545v25q53 1 72.5 17t19.5 54v557q0 170 -129 170 q-32 0 -74.5 -31t-82.5 -85q2 -25 2 -52v-559q0 -38 19.5 -54t70.5 -17v-25h-498v25q54 1 73 17t19 54v557q0 170 -137 170q-29 0 -55 -15t-42 -32t-48 -57v-623q0 -38 18.5 -54t71.5 -17v-25h-545z" />
<glyph unicode="n" horiz-adv-x="1249" d="M41 0v25q84 1 111.5 16.5t27.5 54.5v709q0 50 -28.5 74.5t-110.5 25.5v25l451 24v-194q65 91 160.5 146t193.5 55q260 0 260 -306v-559q0 -39 26.5 -54.5t110.5 -16.5v-25h-557v25q55 2 80 18.5t25 52.5v557q0 170 -132 170q-79 0 -163 -104v-623q0 -36 23.5 -52.5 t76.5 -18.5v-25h-555z" />
<glyph unicode="o" horiz-adv-x="1124" d="M53 473q0 228 137.5 361t372.5 133q241 0 374.5 -128.5t133.5 -357.5q0 -230 -137 -363.5t-371 -133.5q-243 0 -376.5 129t-133.5 360zM387 477q0 -220 42.5 -336t141.5 -116q49 0 82.5 30.5t51.5 93t25 140.5t7 188q0 144 -16.5 240t-58 152.5t-109.5 56.5 q-50 0 -83.5 -30t-51 -92t-24.5 -139t-7 -188z" />
<glyph unicode="p" horiz-adv-x="1191" d="M8 905v25l451 24v-120q77 65 147 99t152 34q181 0 281 -130.5t100 -353.5q0 -103 -29.5 -193t-83.5 -158.5t-138.5 -108t-187.5 -39.5q-136 0 -237 43v-318q0 -38 37 -52.5t153 -18.5v-25h-643v25q84 1 110.5 16.5t26.5 54.5v1096q0 50 -28.5 74.5t-110.5 25.5zM463 143 q59 -118 174 -118q80 0 125 111.5t45 334.5q0 83 -10.5 151t-32.5 122.5t-60.5 85t-91.5 30.5q-69 0 -149 -55v-662z" />
<glyph unicode="q" horiz-adv-x="1181" d="M59 442q0 231 125.5 378t335.5 147q89 0 181.5 -22t158.5 -64l154 114h43l-4 -200v-1086q0 -39 26.5 -54.5t110.5 -16.5v-25h-643v25q116 4 153 18.5t37 52.5v393q-135 -118 -305 -118q-120 0 -206.5 64t-126.5 166t-40 228zM393 453q0 -166 52 -270.5t147 -104.5 q38 0 68.5 13t76.5 44v664q-65 127 -164 127q-92 0 -136 -128t-44 -345z" />
<glyph unicode="r" horiz-adv-x="974" d="M41 0v25q84 1 111.5 16.5t27.5 54.5v709q0 50 -28.5 74.5t-110.5 25.5v25l451 24v-192q47 93 124 146t162 53q93 0 145 -51.5t52 -133.5q0 -79 -45.5 -129.5t-116.5 -50.5q-80 0 -127 47.5t-47 112.5q0 38 16 92q-37 -3 -83 -39t-76 -88v-625q0 -38 36 -52.5t152 -18.5 v-25h-643z" />
<glyph unicode="s" horiz-adv-x="925" d="M70 -16v360h30q103 -162 197.5 -240.5t200.5 -78.5q72 0 111.5 36.5t39.5 102.5q0 67 -53 104.5t-217 87.5q-170 51 -239.5 112.5t-69.5 174.5q0 149 105.5 236.5t283.5 87.5q163 0 278 -76l62 76h24v-324h-30q-50 76 -85 122t-76 86t-82.5 57.5t-90.5 17.5 q-66 0 -105 -40.5t-39 -109.5q0 -58 55 -91.5t165 -59.5q179 -42 265.5 -112t86.5 -196q0 -145 -115 -239t-295 -94q-58 0 -170 27.5t-151 51.5l-62 -79h-24z" />
<glyph unicode="t" horiz-adv-x="804" d="M8 864v39l182 37v260l312 86v-350h289v-68h-289v-606q0 -89 27 -129.5t94 -40.5q49 0 84.5 31t64.5 100l27 -12q-42 -119 -111.5 -173t-191.5 -54q-66 0 -120 15.5t-97.5 49t-68 92.5t-24.5 140v583h-178z" />
<glyph unicode="u" horiz-adv-x="1230" d="M16 922v24l455 8v-653q0 -174 135 -174q46 0 82 22.5t74 73.5v598q0 49 -30 72.5t-109 26.5v24l454 10v-850q0 -45 27 -59.5t113 -19.5v-25h-451v182q-60 -96 -142 -147t-178 -51q-138 0 -214 78.5t-76 230.5v528q0 50 -29 75t-111 26z" />
<glyph unicode="v" horiz-adv-x="1089" d="M-35 926v24h596v-24q-67 -8 -93 -20.5t-26 -41.5q0 -15 9 -39l215 -598h8l194 506q19 49 19 78q0 47 -38 75t-120 40v24h412v-24q-146 -16 -197 -144l-317 -794h-183l-315 813q-25 65 -57.5 88t-106.5 37z" />
<glyph unicode="w" horiz-adv-x="1662" d="M-35 926v24h586v-24q-60 -8 -85.5 -21t-25.5 -41q0 -12 9 -39l206 -592h9l167 426l-49 142q-23 65 -52.5 87.5t-96.5 37.5v24h575v-24q-63 -8 -88.5 -21t-25.5 -43q0 -16 6 -37l182 -585h8l150 473q20 66 20 102q0 47 -33 73t-108 38v24h401v-24q-158 -18 -202 -144 l-265 -794h-192l-209 610l-229 -610h-189l-305 813q-25 65 -57.5 88t-106.5 37z" />
<glyph unicode="x" horiz-adv-x="1077" d="M-31 0v25q81 15 131.5 46t108.5 99l215 256l-260 367q-55 77 -86.5 100.5t-100.5 32.5v24h580v-24q-73 -10 -93 -32q-8 -9 -8 -22q0 -19 17 -47l162 -241l131 164q48 59 53.5 94t-24.5 53t-103 31v24h395v-24q-78 -14 -130 -50t-119 -114l-174 -207l272 -389 q49 -70 84 -97.5t106 -43.5v-25h-579v25q85 7 100 32q5 8 5 17q0 23 -25 57l-174 266l-168 -207q-46 -57 -48.5 -90t30.5 -48.5t108 -26.5v-25h-406z" />
<glyph unicode="y" horiz-adv-x="1056" d="M-41 926v24h602v-24q-83 -9 -106 -30q-11 -10 -11 -28t11 -43l233 -528l172 436q20 50 20 85q0 30 -14 49q-30 42 -141 59v24h412v-24q-71 -8 -120.5 -41.5t-78.5 -102.5l-373 -893q-124 -299 -329 -299q-99 0 -153 44.5t-54 125.5q0 58 40 103t107 45q59 0 100 -42 t41 -104q0 -76 -55 -127q81 6 145 72.5t121 212.5l13 29l-412 852q-34 69 -64 91t-106 34z" />
<glyph unicode="z" horiz-adv-x="1026" d="M47 33l608 876h-174q-63 0 -112.5 -25.5t-109 -99t-134.5 -209.5l-35 5l23 370h872l4 -32l-610 -877h192q97 0 167.5 70.5t195.5 283.5l35 -4l-23 -391h-895z" />
<glyph unicode="{" horiz-adv-x="821" d="M47 616v33q108 7 172 23.5t97.5 49.5t43 72t9.5 107q0 31 -20.5 135t-20.5 158q0 188 136 275t425 96v-27q-39 -3 -70.5 -8.5t-56.5 -16t-44 -19.5t-33 -26.5t-23.5 -30t-16 -37.5t-10 -40t-4.5 -46.5t-1.5 -49t-0.5 -54.5v-12q0 -26 7 -105t7 -128q0 -106 -41.5 -170 t-141 -101.5t-278.5 -56.5v-10q255 -21 358 -98.5t103 -235.5q0 -49 -7 -133.5t-7 -110.5v-12q0 -73 2 -107t14.5 -84t39 -73.5t77.5 -44t127 -25.5v-29q-284 0 -422.5 94t-138.5 285q0 55 20.5 163.5t20.5 139.5q0 54 -6 89t-24.5 68t-53.5 52t-93.5 32.5t-144.5 18.5z" />
<glyph unicode="|" horiz-adv-x="626" d="M287 -440v1968h53v-1968h-53z" />
<glyph unicode="}" horiz-adv-x="821" d="M-68 -297q76 5 127 25.5t77.5 44t39.5 74t15 85t2 107.5v10q0 26 -7.5 110.5t-7.5 133.5q0 158 103 235.5t358 98.5v10q-179 19 -278.5 56.5t-141 101.5t-41.5 170q0 49 7.5 128t7.5 105v10q0 73 -2 107t-15 83t-39.5 71.5t-77.5 42.5t-127 26v27q289 -9 425.5 -96 t136.5 -275q0 -54 -20.5 -158t-20.5 -135q0 -68 9.5 -107t42.5 -72t97 -49.5t172 -23.5v-33q-72 -4 -124 -13.5t-87.5 -26t-57.5 -35.5t-33.5 -49t-15 -60.5t-3.5 -75.5q0 -31 20.5 -139.5t20.5 -163.5q0 -191 -139 -285t-423 -94v29z" />
<glyph unicode="~" horiz-adv-x="831" d="M74 549q10 163 59.5 235t145.5 72q48 0 118 -29t132.5 -58.5t93.5 -29.5q39 0 60.5 25.5t41.5 97.5h33q-10 -163 -59.5 -235t-145.5 -72q-48 0 -118 29.5t-132.5 58.5t-93.5 29q-39 0 -61 -25.5t-42 -97.5h-32z" />
<glyph unicode="&#xa2;" horiz-adv-x="1148" d="M115 461q0 221 141 357t365 147v141h53v-139q83 -2 153 -19.5t116 -44t78.5 -60t47 -67t14.5 -65.5q0 -71 -40.5 -116.5t-110.5 -45.5q-82 0 -124 45t-42 111q0 48 24 85t56 52q-22 35 -66 61t-106 27v-854q34 -6 74 -6q90 0 174.5 52t144.5 134l23 -14 q-76 -118 -174 -184t-242 -72v-164h-53v162q-232 8 -369 136t-137 341zM449 481q0 -312 172 -387v830q-86 -20 -129 -123t-43 -320z" />
<glyph unicode="&#xa3;" horiz-adv-x="1265" d="M43 104q0 84 82 138.5t203 54.5q30 0 88 -4q12 30 12 72q0 40 -12.5 85t-25.5 72.5t-42 83t-39 76.5h-209l2 43h185q-54 118 -54 227q0 202 149 322.5t400 120.5q172 0 293 -85.5t121 -217.5q0 -82 -47 -137.5t-123 -55.5q-87 0 -137.5 47.5t-50.5 136.5q0 64 38.5 112.5 t102.5 72.5q-82 88 -211 88q-94 0 -152.5 -62.5t-58.5 -195.5q0 -68 20.5 -130.5t57 -134t49.5 -108.5h295l-2 -43h-281q13 -63 13 -90q0 -193 -220 -309q17 -2 86 -12.5t104.5 -14.5t101.5 -9t130 -5q132 0 190.5 39t82.5 155l35 -2q-6 -467 -332 -467q-204 0 -447 246 q-53 -130 -110.5 -188t-143.5 -58q-68 0 -105.5 38.5t-37.5 98.5z" />
<glyph unicode="&#xa5;" horiz-adv-x="1421" d="M-10 1339v27h745v-27q-74 -4 -115 -15.5t-53.5 -34t-7 -49t28.5 -71.5l241 -477l191 352q25 46 38.5 82t19.5 62.5t-1.5 47.5t-17 34.5t-34 26t-46 20.5t-59.5 20v29h458v-27q-99 -19 -166 -84t-147 -219l-184 -354h376v-43h-399l-10 -21v-135h409v-43h-409v-295 q0 -27 6 -44t25.5 -35t62 -27.5t109.5 -11.5v-27h-740v27q67 2 109.5 11.5t62 27.5t25.5 35t6 44v295h-408v43h408v138l-10 18h-398v43h375l-266 496q-42 76 -88 108t-137 53z" />
<glyph unicode="&#xa7;" horiz-adv-x="1150" d="M96 477q0 103 74 182t201 113v4q-226 93 -226 268q0 109 60.5 190t162 121t228.5 40q106 0 195.5 -21.5t152 -74t62.5 -128.5q0 -66 -40.5 -110.5t-103.5 -44.5q-67 0 -107 42t-40 101q0 89 71 137q-23 25 -73.5 41.5t-112.5 16.5q-97 0 -153 -47.5t-56 -126.5 q0 -24 7 -44t16.5 -35.5t32 -32t40 -27.5t55.5 -27.5t63.5 -26t76.5 -29.5q106 -39 168.5 -68t113 -67t71 -84t20.5 -108q0 -203 -260 -303v-4q119 -59 165 -117t46 -150q0 -170 -124.5 -265t-334.5 -95q-200 0 -324.5 64.5t-124.5 183.5q0 63 42 111t116 48q71 0 111.5 -43 t40.5 -104q0 -96 -99 -147q36 -34 104.5 -53t147.5 -19q112 0 164.5 53.5t52.5 132.5q0 73 -72 123t-253 115q-52 19 -85 31.5t-75 31.5t-67.5 36t-53 40.5t-42.5 48.5t-24.5 57.5t-9.5 69.5zM305 610q0 -24 10.5 -45.5t25.5 -38t43.5 -34t50.5 -29t62.5 -27t63.5 -23 t68 -22.5q57 -17 119 -43q50 26 76 63t26 78q0 37 -12.5 63t-45.5 50t-73.5 42.5t-112.5 45.5l-184 64q-58 -18 -87.5 -51.5t-29.5 -92.5z" />
<glyph unicode="&#xa8;" horiz-adv-x="854" d="M37 1251q0 73 47.5 122.5t120.5 49.5t120.5 -49.5t47.5 -122.5q0 -71 -47.5 -119.5t-120.5 -48.5t-120.5 48.5t-47.5 119.5zM481 1251q0 73 47.5 122.5t120.5 49.5t120.5 -49.5t47.5 -122.5q0 -71 -47.5 -119.5t-120.5 -48.5t-120.5 48.5t-47.5 119.5z" />
<glyph unicode="&#xa9;" horiz-adv-x="1708" d="M70 715q0 162 61 307t165 249t249.5 165t308.5 61t308.5 -61t249.5 -165t165 -249t61 -307q0 -164 -61 -310t-165 -250t-249.5 -164.5t-308.5 -60.5t-308.5 60.5t-249.5 164.5t-165 250t-61 310zM111 715q0 -153 57 -291.5t155 -239t236.5 -160t294.5 -59.5t294.5 59.5 t236.5 160t155 239t57 291.5q0 205 -96.5 376t-267.5 271t-379 100t-379 -100t-267.5 -271t-96.5 -376zM453 707q0 130 61.5 229t160 149t216.5 50q127 0 205 -56l49 60h24v-320h-32q-118 285 -265 285q-96 0 -148 -96t-52 -275q0 -178 69 -274.5t174 -96.5q83 0 148 47.5 t104 139.5l33 -14q-97 -230 -342 -230q-192 0 -298.5 103.5t-106.5 298.5z" />
<glyph unicode="&#xaa;" horiz-adv-x="927" d="M57 879q0 116 101 172q48 26 122.5 37.5t144.5 15.5t91 10v148q0 72 -22 101.5t-82 29.5q-71 0 -117 -27q43 -37 43 -92q0 -54 -30 -84.5t-87 -30.5q-47 0 -82 34t-35 81q0 72 86 114t261 42q159 0 234 -60t75 -192v-332q0 -112 114 -62l11 -20q-101 -70 -185 -70 q-76 0 -115 28.5t-50 88.5h-9q-103 -119 -235 -119q-112 0 -173 51.5t-61 135.5zM315 907q0 -54 28.5 -83t74.5 -29q28 0 56.5 14.5t41.5 36.5v231q-116 -14 -158.5 -49t-42.5 -121z" />
<glyph unicode="&#xab;" horiz-adv-x="1062" d="M68 463q0 9 2 14t13.5 17.5t35.5 33.5l411 344l25 -18l-229 -391l229 -393l-25 -17l-411 344q-24 20 -35.5 33t-13.5 18.5t-2 14.5zM496 463q0 9 2 14t13.5 17.5t35.5 33.5l411 344l25 -18l-229 -391l229 -393l-25 -17l-411 344q-24 20 -35.5 33t-13.5 18.5t-2 14.5z" />
<glyph unicode="&#xad;" horiz-adv-x="749" d="M113 492v83h524v-83h-524z" />
<glyph unicode="&#xae;" horiz-adv-x="788" d="M78 1184q0 137 89 225t224 88q139 0 228.5 -88t89.5 -225t-90 -227.5t-228 -90.5q-134 0 -223.5 91t-89.5 227zM109 1184q0 -127 77.5 -210t204.5 -83t207 83.5t80 209.5t-79.5 207.5t-207.5 81.5q-127 0 -204.5 -81.5t-77.5 -207.5zM236 1026v14q47 0 47 27v252 q0 22 -47 22v17h163q148 0 148 -80q0 -34 -21 -53.5t-75 -26.5v-6q49 -7 66 -21.5t20 -46.5l4 -45q1 -21 12.5 -29t34.5 -8v-14q-24 -6 -60 -6q-38 0 -53.5 14.5t-17.5 48.5l-2 37q-1 35 -15 49.5t-45 14.5h-33v-119q0 -27 44 -27v-14h-170zM362 1202h35q36 0 49 16.5 t13 57.5q0 36 -14 50.5t-52 14.5h-31v-139z" />
<glyph unicode="&#xb0;" horiz-adv-x="811" d="M63 1169q0 138 97 223t248 85q153 0 246.5 -82t93.5 -219q0 -138 -95.5 -224t-244.5 -86q-157 0 -251 81.5t-94 221.5zM262 1174q0 -263 150 -263q78 0 108.5 65.5t30.5 197.5q0 258 -150 258q-79 0 -109 -63t-30 -195z" />
<glyph unicode="&#xb1;" horiz-adv-x="1085" d="M121 0v45h844v-45h-844zM121 643v45h397v395h53v-395h394v-45h-394v-401h-53v401h-397z" />
<glyph unicode="&#xb4;" horiz-adv-x="487" d="M102 1073l54 254q29 140 57.5 189t89.5 49q56 0 96.5 -34.5t40.5 -84.5q0 -35 -27 -72t-116 -133l-156 -168h-39z" />
<glyph unicode="&#xb6;" horiz-adv-x="1388" d="M113 864q0 226 174 364t489 138h539v-27q-107 -3 -156 -12.5t-64.5 -27.5t-15.5 -58v-1446h-53v1530h-190v-1530h-56v565q-196 4 -345.5 63t-235.5 173t-86 268z" />
<glyph unicode="&#xb7;" horiz-adv-x="552" d="M92 649q0 73 54.5 126.5t132.5 53.5t130 -51.5t52 -124.5t-54.5 -126.5t-132.5 -53.5t-130 51.5t-52 124.5z" />
<glyph unicode="&#xb8;" horiz-adv-x="577" d="M18 -481l17 35q100 -23 155 -23q56 0 83.5 25t27.5 67q0 45 -44.5 73t-121.5 28q-15 0 -67 -9l-13 19l269 260h53l-129 -125l4 -6q123 -6 186.5 -62t63.5 -125q0 -87 -71.5 -138.5t-201.5 -51.5q-124 0 -211 33z" />
<glyph unicode="&#xba;" horiz-adv-x="942" d="M78 1057q0 172 105.5 271t287.5 99q187 0 290 -96t103 -268t-106 -272.5t-287 -100.5q-188 0 -290.5 97t-102.5 270zM336 1061q0 -169 30.5 -251.5t110.5 -82.5q33 0 56 15.5t37.5 41.5t22.5 70t10.5 91.5t2.5 115.5q0 167 -30.5 248.5t-110.5 81.5q-41 0 -67.5 -21 t-39.5 -67.5t-17.5 -101t-4.5 -140.5z" />
<glyph unicode="&#xbb;" horiz-adv-x="1062" d="M80 70l229 391l-229 393l24 16l412 -344q24 -21 35.5 -33.5t13.5 -17.5t2 -14t-2 -14.5t-13.5 -18.5t-35.5 -33l-412 -344zM508 70l229 391l-229 393l24 16l412 -344q24 -21 35.5 -33.5t13.5 -17.5t2 -14t-2 -14.5t-13.5 -18.5t-35.5 -33l-412 -344z" />
<glyph unicode="&#xc0;" horiz-adv-x="1478" d="M-68 0v29q101 26 168.5 103t126.5 230l418 1094h180l467 -1270q30 -80 70 -109.5t151 -47.5v-29h-780v29q145 7 187 41t14 112l-127 359h-461l-74 -197q-59 -155 -26.5 -225t174.5 -90v-29h-488zM360 582h433l-207 579h-11zM543 1937q0 50 40.5 84.5t96.5 34.5 q61 0 89.5 -48.5t57.5 -188.5l54 -254h-39l-156 168q-90 96 -116.5 132.5t-26.5 71.5z" />
<glyph unicode="&#xc1;" horiz-adv-x="1478" d="M-68 0v29q101 26 168.5 103t126.5 230l418 1094h180l467 -1270q30 -80 70 -109.5t151 -47.5v-29h-780v29q145 7 187 41t14 112l-127 359h-461l-74 -197q-59 -155 -26.5 -225t174.5 -90v-29h-488zM360 582h433l-207 579h-11zM659 1565l54 254q29 140 57.5 188.5t89.5 48.5 q56 0 96.5 -34.5t40.5 -84.5q0 -35 -26.5 -71.5t-116.5 -132.5l-156 -168h-39z" />
<glyph unicode="&#xc2;" horiz-adv-x="1478" d="M-68 0v29q101 26 168.5 103t126.5 230l418 1094h180l467 -1270q30 -80 70 -109.5t151 -47.5v-29h-780v29q145 7 187 41t14 112l-127 359h-461l-74 -197q-59 -155 -26.5 -225t174.5 -90v-29h-488zM360 582h433l-207 579h-11zM412 1544l305 436h26l289 -436h-33l-276 176 l-279 -176h-32z" />
<glyph unicode="&#xc3;" horiz-adv-x="1478" d="M-68 0v29q101 26 168.5 103t126.5 230l418 1094h180l467 -1270q30 -80 70 -109.5t151 -47.5v-29h-780v29q145 7 187 41t14 112l-127 359h-461l-74 -197q-59 -155 -26.5 -225t174.5 -90v-29h-488zM360 582h433l-207 579h-11zM397 1567q10 163 59.5 235t145.5 72 q48 0 118 -29t132.5 -58.5t93.5 -29.5q39 0 61 25.5t42 97.5h32q-10 -163 -59 -235t-145 -72q-48 0 -118 29.5t-133 58.5t-94 29q-39 0 -60.5 -25.5t-41.5 -97.5h-33z" />
<glyph unicode="&#xc4;" horiz-adv-x="1478" d="M-68 0v29q101 26 168.5 103t126.5 230l418 1094h180l467 -1270q30 -80 70 -109.5t151 -47.5v-29h-780v29q145 7 187 41t14 112l-127 359h-461l-74 -197q-59 -155 -26.5 -225t174.5 -90v-29h-488zM338 1743q0 73 47.5 122.5t120.5 49.5t120.5 -49.5t47.5 -122.5 q0 -71 -47.5 -119.5t-120.5 -48.5t-120.5 48.5t-47.5 119.5zM360 582h433l-207 579h-11zM782 1743q0 73 47.5 122.5t120.5 49.5t120.5 -49.5t47.5 -122.5q0 -71 -47.5 -119.5t-120.5 -48.5t-120.5 48.5t-47.5 119.5z" />
<glyph unicode="&#xc5;" horiz-adv-x="1478" d="M-68 0v29q101 26 168.5 103t126.5 230l410 1072q-84 20 -129 76.5t-45 136.5q0 100 72.5 162.5t193.5 62.5q125 0 195.5 -61.5t70.5 -161.5q0 -76 -43.5 -132t-120.5 -79l461 -1252q30 -80 70 -109.5t151 -47.5v-29h-780v29q145 7 187 41t14 112l-127 359h-461l-74 -197 q-59 -155 -26.5 -225t174.5 -90v-29h-488zM360 582h433l-207 579h-11zM631 1645q0 -191 102 -191q94 0 94 191q0 190 -102 190q-50 0 -72 -48t-22 -142z" />
<glyph unicode="&#xc6;" horiz-adv-x="2211" d="M-72 0v29q97 26 194 112.5t183 220.5l559 885q29 47 29 70q0 38 -57 57t-189 27v26h1383l6 -505l-33 -4q-50 105 -75.5 155t-64.5 117t-68.5 95t-73 58.5t-92 40t-113.5 9.5h-189v-635h68q124 0 199 64t116 212h27v-592h-27q-41 150 -116 215.5t-199 65.5h-68v-686h174 q77 0 135 10t108 37t86.5 61t76 96.5t71.5 128t78 169.5l33 -4l-10 -535h-1301v29q122 4 163.5 26.5t41.5 77.5v434h-494l-151 -241q-72 -115 -72 -181q0 -90 146 -116v-29h-484zM514 608h469v744h-8z" />
<glyph unicode="&#xc7;" horiz-adv-x="1488" d="M78 686q0 178 62.5 326t169 245.5t247 151t297.5 53.5q209 0 383 -96l96 107h25v-560h-33q-48 104 -86 174.5t-86 139t-95.5 108.5t-108 64t-130.5 24q-170 0 -268 -182t-98 -506q0 -327 125.5 -505.5t328.5 -178.5q160 0 271 76t188 246l39 -19q-157 -356 -543 -385 l-102 -100l4 -6q123 -6 186.5 -62t63.5 -125q0 -87 -71.5 -138.5t-201.5 -51.5q-124 0 -211 33l17 35q100 -23 155 -23q56 0 83.5 25t27.5 67q0 45 -44.5 73t-121.5 28q-15 0 -67 -9l-13 19l238 231h-14q-336 0 -524.5 191t-188.5 530z" />
<glyph unicode="&#xc8;" horiz-adv-x="1492" d="M59 0v29q122 4 163.5 26.5t41.5 77.5v1161q0 56 -42 79.5t-163 27.5v26h1252l6 -505l-33 -4q-50 105 -75.5 155t-64.5 117t-68.5 95t-73 58.5t-92 40t-113.5 9.5h-189v-635h68q124 0 199 64t116 212h27v-592h-27q-41 150 -116 215.5t-199 65.5h-68v-686h174q77 0 135 10 t108 37t86.5 61t76 96.5t71.5 128t78 169.5l33 -4l-10 -535h-1301zM526 1937q0 50 41 84.5t97 34.5q61 0 89.5 -48.5t57.5 -188.5l53 -254h-39l-155 168q-91 98 -117.5 133.5t-26.5 70.5z" />
<glyph unicode="&#xc9;" horiz-adv-x="1492" d="M59 0v29q122 4 163.5 26.5t41.5 77.5v1161q0 56 -42 79.5t-163 27.5v26h1252l6 -505l-33 -4q-50 105 -75.5 155t-64.5 117t-68.5 95t-73 58.5t-92 40t-113.5 9.5h-189v-635h68q124 0 199 64t116 212h27v-592h-27q-41 150 -116 215.5t-199 65.5h-68v-686h174q77 0 135 10 t108 37t86.5 61t76 96.5t71.5 128t78 169.5l33 -4l-10 -535h-1301zM705 1565l53 254q29 140 57.5 188.5t89.5 48.5q56 0 96.5 -34.5t40.5 -84.5q0 -35 -26.5 -71.5t-116.5 -132.5l-156 -168h-38z" />
<glyph unicode="&#xca;" horiz-adv-x="1492" d="M59 0v29q122 4 163.5 26.5t41.5 77.5v1161q0 56 -42 79.5t-163 27.5v26h1252l6 -505l-33 -4q-50 105 -75.5 155t-64.5 117t-68.5 95t-73 58.5t-92 40t-113.5 9.5h-189v-635h68q124 0 199 64t116 212h27v-592h-27q-41 150 -116 215.5t-199 65.5h-68v-686h174q77 0 135 10 t108 37t86.5 61t76 96.5t71.5 128t78 169.5l33 -4l-10 -535h-1301zM416 1565l305 436h27l288 -436h-32l-277 176l-278 -176h-33z" />
<glyph unicode="&#xcb;" horiz-adv-x="1492" d="M59 0v29q122 4 163.5 26.5t41.5 77.5v1161q0 56 -42 79.5t-163 27.5v26h1252l6 -505l-33 -4q-50 105 -75.5 155t-64.5 117t-68.5 95t-73 58.5t-92 40t-113.5 9.5h-189v-635h68q124 0 199 64t116 212h27v-592h-27q-41 150 -116 215.5t-199 65.5h-68v-686h174q77 0 135 10 t108 37t86.5 61t76 96.5t71.5 128t78 169.5l33 -4l-10 -535h-1301zM367 1743q0 73 47.5 122.5t120.5 49.5t120 -49.5t47 -122.5q0 -71 -47 -119.5t-120 -48.5t-120.5 48.5t-47.5 119.5zM811 1743q0 73 47.5 122.5t120.5 49.5t120.5 -49.5t47.5 -122.5q0 -71 -47.5 -119.5 t-120.5 -48.5t-120.5 48.5t-47.5 119.5z" />
<glyph unicode="&#xcc;" horiz-adv-x="915" d="M76 0v29q125 4 168 26.5t43 77.5v1161q0 56 -43.5 79.5t-167.5 27.5v26h764v-26q-124 -4 -167.5 -27.5t-43.5 -79.5v-1161q0 -55 43 -77.5t168 -26.5v-29h-764zM231 1937q0 50 41 84.5t97 34.5q61 0 89.5 -48.5t57.5 -188.5l53 -254h-39l-155 168q-91 98 -117.5 133.5 t-26.5 70.5z" />
<glyph unicode="&#xcd;" horiz-adv-x="915" d="M76 0v29q125 4 168 26.5t43 77.5v1161q0 56 -43.5 79.5t-167.5 27.5v26h764v-26q-124 -4 -167.5 -27.5t-43.5 -79.5v-1161q0 -55 43 -77.5t168 -26.5v-29h-764zM397 1565l54 254q29 140 57.5 188.5t89.5 48.5q56 0 96.5 -34.5t40.5 -84.5q0 -35 -26.5 -71.5 t-116.5 -132.5l-156 -168h-39z" />
<glyph unicode="&#xce;" horiz-adv-x="915" d="M76 0v29q125 4 168 26.5t43 77.5v1161q0 56 -43.5 79.5t-167.5 27.5v26h764v-26q-124 -4 -167.5 -27.5t-43.5 -79.5v-1161q0 -55 43 -77.5t168 -26.5v-29h-764zM147 1565l306 436h26l289 -436h-33l-276 176l-279 -176h-33z" />
<glyph unicode="&#xcf;" horiz-adv-x="915" d="M68 1743q0 73 47.5 122.5t120.5 49.5t120 -49.5t47 -122.5q0 -71 -47 -119.5t-120 -48.5t-120.5 48.5t-47.5 119.5zM76 0v29q125 4 168 26.5t43 77.5v1161q0 56 -43.5 79.5t-167.5 27.5v26h764v-26q-124 -4 -167.5 -27.5t-43.5 -79.5v-1161q0 -55 43 -77.5t168 -26.5v-29 h-764zM512 1743q0 73 47.5 122.5t120.5 49.5t120.5 -49.5t47.5 -122.5q0 -71 -47.5 -119.5t-120.5 -48.5t-120.5 48.5t-47.5 119.5z" />
<glyph unicode="&#xd0;" horiz-adv-x="1615" d="M59 0v29q122 4 163.5 26.5t41.5 77.5v584h-198v53h198v524q0 56 -42 79.5t-163 27.5v26h695q194 0 343.5 -50t244.5 -141t143.5 -216t48.5 -279q0 -120 -25 -226.5t-82 -202t-141.5 -164t-211 -108.5t-283.5 -40h-732zM608 37h119q163 0 256 61.5t137.5 209t44.5 409.5 q0 194 -28 325.5t-86.5 208.5t-139 109.5t-196.5 32.5h-107v-623h281v-53h-281v-680z" />
<glyph unicode="&#xd1;" horiz-adv-x="1677" d="M57 0v29q142 17 198 90.5t56 232.5v807q0 101 -64 167t-190 75v26h521l770 -985h2v635q0 155 -67.5 231t-221.5 93v26h594v-26q-142 -20 -198 -93.5t-56 -230.5v-1095h-121l-915 1165h-3v-795q0 -158 65 -233t220 -90v-29h-590zM557 1567q10 163 59.5 235t145.5 72 q48 0 118 -29t132.5 -58.5t93.5 -29.5q39 0 60.5 25.5t41.5 97.5h33q-10 -163 -59.5 -235t-145.5 -72q-48 0 -118 29.5t-132.5 58.5t-93.5 29q-39 0 -60.5 -25.5t-41.5 -97.5h-33z" />
<glyph unicode="&#xd2;" d="M82 711q0 169 54 310t149 237.5t227.5 150t288.5 53.5q325 0 523 -201t198 -542q0 -170 -54 -312t-149 -238.5t-228.5 -150t-289.5 -53.5q-160 0 -293 52t-227 147.5t-146.5 236t-52.5 310.5zM457 715q0 -367 86.5 -539t267.5 -172q177 0 256.5 170t79.5 541 q0 364 -87 536t-267 172q-177 0 -256.5 -169.5t-79.5 -538.5zM563 1937q0 50 40.5 84.5t96.5 34.5q61 0 90 -49t58 -188l53 -254h-39l-155 168q-91 98 -117.5 133.5t-26.5 70.5z" />
<glyph unicode="&#xd3;" d="M82 711q0 169 54 310t149 237.5t227.5 150t288.5 53.5q325 0 523 -201t198 -542q0 -170 -54 -312t-149 -238.5t-228.5 -150t-289.5 -53.5q-160 0 -293 52t-227 147.5t-146.5 236t-52.5 310.5zM457 715q0 -367 86.5 -539t267.5 -172q177 0 256.5 170t79.5 541 q0 364 -87 536t-267 172q-177 0 -256.5 -169.5t-79.5 -538.5zM741 1565l54 254q29 140 57.5 188.5t89.5 48.5q56 0 96.5 -34.5t40.5 -84.5q0 -35 -26.5 -71.5t-116.5 -132.5l-156 -168h-39z" />
<glyph unicode="&#xd4;" d="M82 711q0 169 54 310t149 237.5t227.5 150t288.5 53.5q325 0 523 -201t198 -542q0 -170 -54 -312t-149 -238.5t-228.5 -150t-289.5 -53.5q-160 0 -293 52t-227 147.5t-146.5 236t-52.5 310.5zM457 715q0 -367 86.5 -539t267.5 -172q177 0 256.5 170t79.5 541 q0 364 -87 536t-267 172q-177 0 -256.5 -169.5t-79.5 -538.5zM492 1565l305 436h26l289 -436h-33l-276 176l-279 -176h-32z" />
<glyph unicode="&#xd5;" d="M82 711q0 169 54 310t149 237.5t227.5 150t288.5 53.5q325 0 523 -201t198 -542q0 -170 -54 -312t-149 -238.5t-228.5 -150t-289.5 -53.5q-160 0 -293 52t-227 147.5t-146.5 236t-52.5 310.5zM457 715q0 -367 86.5 -539t267.5 -172q177 0 256.5 170t79.5 541 q0 364 -87 536t-267 172q-177 0 -256.5 -169.5t-79.5 -538.5zM459 1567q10 163 59.5 235t145.5 72q48 0 118 -29t132.5 -58.5t93.5 -29.5q39 0 60.5 25.5t41.5 97.5h33q-10 -163 -59.5 -235t-145.5 -72q-48 0 -118 29.5t-132.5 58.5t-93.5 29q-39 0 -60.5 -25.5t-41.5 -97.5 h-33z" />
<glyph unicode="&#xd6;" d="M82 711q0 169 54 310t149 237.5t227.5 150t288.5 53.5q325 0 523 -201t198 -542q0 -170 -54 -312t-149 -238.5t-228.5 -150t-289.5 -53.5q-160 0 -293 52t-227 147.5t-146.5 236t-52.5 310.5zM412 1743q0 73 47.5 122.5t120.5 49.5t120.5 -49.5t47.5 -122.5 q0 -71 -47.5 -119.5t-120.5 -48.5t-120.5 48.5t-47.5 119.5zM457 715q0 -367 86.5 -539t267.5 -172q177 0 256.5 170t79.5 541q0 364 -87 536t-267 172q-177 0 -256.5 -169.5t-79.5 -538.5zM856 1743q0 73 47.5 122.5t120.5 49.5t120.5 -49.5t47.5 -122.5 q0 -71 -47.5 -119.5t-120.5 -48.5t-120.5 48.5t-47.5 119.5z" />
<glyph unicode="&#xd8;" d="M82 711q0 169 54 310t149 237.5t227.5 150t288.5 53.5q277 0 467 -151l157 190h68l-186 -223q103 -99 159 -241t56 -318q0 -170 -54 -312t-149 -238.5t-228.5 -150t-289.5 -53.5q-276 0 -465 150l-158 -189h-67l186 224q-215 202 -215 561zM457 715q0 -208 26 -344 l623 749q-75 303 -313 303q-177 0 -256.5 -169.5t-79.5 -538.5zM496 307q40 -155 117.5 -229t197.5 -74q177 0 256.5 170t79.5 541q0 199 -27 340z" />
<glyph unicode="&#xd9;" horiz-adv-x="1681" d="M43 1401v26h737v-26q-99 -5 -143.5 -28.5t-44.5 -78.5v-860q0 -208 96 -302.5t277 -94.5q74 0 142.5 23.5t111.5 66.5q116 116 116 346v604q0 155 -66 231t-220 93v26h598v-26q-143 -20 -199.5 -94t-56.5 -230v-604q0 -508 -535 -508q-301 0 -454.5 123.5t-153.5 386.5 v819q0 56 -42.5 79.5t-162.5 27.5zM629 1937q0 50 40.5 84.5t96.5 34.5q61 0 89.5 -48.5t57.5 -188.5l54 -254h-39l-156 168q-90 96 -116.5 132.5t-26.5 71.5z" />
<glyph unicode="&#xda;" horiz-adv-x="1681" d="M43 1401v26h737v-26q-99 -5 -143.5 -28.5t-44.5 -78.5v-860q0 -208 96 -302.5t277 -94.5q74 0 142.5 23.5t111.5 66.5q116 116 116 346v604q0 155 -66 231t-220 93v26h598v-26q-143 -20 -199.5 -94t-56.5 -230v-604q0 -508 -535 -508q-301 0 -454.5 123.5t-153.5 386.5 v819q0 56 -42.5 79.5t-162.5 27.5zM823 1565l54 254q29 140 57.5 188.5t89.5 48.5q56 0 96.5 -34.5t40.5 -84.5q0 -35 -26.5 -71.5t-116.5 -132.5l-156 -168h-39z" />
<glyph unicode="&#xdb;" horiz-adv-x="1681" d="M43 1401v26h737v-26q-99 -5 -143.5 -28.5t-44.5 -78.5v-860q0 -208 96 -302.5t277 -94.5q74 0 142.5 23.5t111.5 66.5q116 116 116 346v604q0 155 -66 231t-220 93v26h598v-26q-143 -20 -199.5 -94t-56.5 -230v-604q0 -508 -535 -508q-301 0 -454.5 123.5t-153.5 386.5 v819q0 56 -42.5 79.5t-162.5 27.5zM604 1565l305 436h27l289 -436h-33l-277 176l-278 -176h-33z" />
<glyph unicode="&#xdc;" horiz-adv-x="1681" d="M43 1401v26h737v-26q-99 -5 -143.5 -28.5t-44.5 -78.5v-860q0 -208 96 -302.5t277 -94.5q74 0 142.5 23.5t111.5 66.5q116 116 116 346v604q0 155 -66 231t-220 93v26h598v-26q-143 -20 -199.5 -94t-56.5 -230v-604q0 -508 -535 -508q-301 0 -454.5 123.5t-153.5 386.5 v819q0 56 -42.5 79.5t-162.5 27.5zM492 1743q0 73 47 122.5t120 49.5t120.5 -49.5t47.5 -122.5q0 -71 -47.5 -119.5t-120.5 -48.5t-120 48.5t-47 119.5zM936 1743q0 73 47.5 122.5t120.5 49.5t120.5 -49.5t47.5 -122.5q0 -71 -47.5 -119.5t-120.5 -48.5t-120.5 48.5 t-47.5 119.5z" />
<glyph unicode="&#xdd;" horiz-adv-x="1435" d="M-41 1401v26h768v-26q-100 -6 -145.5 -27t-45.5 -58t31 -91l295 -559l262 473q65 119 43 174t-143 88v26h473v-26q-106 -19 -183.5 -89t-174.5 -243l-248 -444v-492q0 -55 43 -77.5t168 -26.5v-29h-764v29q125 4 168 26.5t43 77.5v449l-356 651q-46 79 -93.5 113.5 t-140.5 54.5zM801 1565l53 254q29 140 57.5 188.5t89.5 48.5q56 0 97 -34.5t41 -84.5q0 -35 -26.5 -70.5t-117.5 -133.5l-155 -168h-39z" />
<glyph unicode="&#xde;" horiz-adv-x="1427" d="M59 0v29q122 4 163.5 26.5t41.5 77.5v1161q0 56 -42 79.5t-163 27.5v26h766v-22q-96 -3 -142.5 -15t-60.5 -32.5t-14 -61.5v-155h113q144 0 254 -19.5t182.5 -54t118 -86t65 -112t19.5 -136.5q0 -90 -33.5 -161.5t-106.5 -129t-200.5 -89t-302.5 -31.5h-109v-189 q0 -41 14 -61.5t60.5 -32t142.5 -14.5v-25h-766zM608 356h86q92 0 153 22.5t96.5 71t50 116t14.5 167.5q0 180 -70.5 276.5t-235.5 96.5h-94v-750z" />
<glyph unicode="&#xdf;" horiz-adv-x="1361" d="M20 864v39l179 37v72q0 256 122.5 362.5t383.5 106.5q226 0 346 -70t120 -184q0 -44 -11.5 -76.5t-40 -61t-60.5 -49.5t-90 -53q-89 -48 -117.5 -79.5t-28.5 -84.5q0 -41 53 -81t154 -93q59 -32 96 -54t78.5 -54t64.5 -63t38.5 -73t15.5 -90q0 -142 -101.5 -236.5 t-279.5 -94.5q-83 0 -153.5 21t-118 68.5t-47.5 112.5q0 51 35.5 90t93.5 39q55 0 86.5 -37t31.5 -88q0 -65 -71 -114q18 -24 62 -40t89 -16q83 0 127.5 44.5t44.5 113.5q0 71 -49.5 123t-171.5 117q-143 75 -200.5 135.5t-57.5 136.5q0 63 27.5 107t101.5 102 q75 59 98 121.5t23 183.5q0 113 -46 174.5t-153 61.5q-46 0 -76.5 -12.5t-55.5 -45t-36.5 -95.5t-11.5 -159v-1128h-453v25q84 1 111 16.5t27 54.5v768h-179z" />
<glyph unicode="&#xe0;" horiz-adv-x="1079" d="M55 242q0 62 35.5 122.5t97.5 94.5q63 34 157 48.5t183 19t117 12.5v184q0 104 -33 150.5t-108 46.5q-81 0 -137 -37q57 -51 57 -123t-40 -112t-116 -40q-65 0 -110 43.5t-45 106.5q0 203 444 203q204 0 302.5 -80.5t98.5 -257.5v-441q0 -75 34 -93t114 17l12 -22 q-66 -46 -119 -69t-114 -23q-101 0 -152 38t-69 117h-9q-138 -157 -305 -157q-143 0 -219 75.5t-76 176.5zM260 1446q0 50 40.5 84.5t96.5 34.5q61 0 90 -49t58 -189l53 -254h-39l-156 168q-89 96 -116 133t-27 72zM387 272q0 -72 35.5 -113.5t95.5 -41.5q37 0 72 20.5 t55 52.5v308q-153 -17 -205.5 -64t-52.5 -162z" />
<glyph unicode="&#xe1;" horiz-adv-x="1079" d="M55 242q0 62 35.5 122.5t97.5 94.5q63 34 157 48.5t183 19t117 12.5v184q0 104 -33 150.5t-108 46.5q-81 0 -137 -37q57 -51 57 -123t-40 -112t-116 -40q-65 0 -110 43.5t-45 106.5q0 203 444 203q204 0 302.5 -80.5t98.5 -257.5v-441q0 -75 34 -93t114 17l12 -22 q-66 -46 -119 -69t-114 -23q-101 0 -152 38t-69 117h-9q-138 -157 -305 -157q-143 0 -219 75.5t-76 176.5zM387 272q0 -72 35.5 -113.5t95.5 -41.5q37 0 72 20.5t55 52.5v308q-153 -17 -205.5 -64t-52.5 -162zM500 1073l53 254q29 140 57.5 189t89.5 49q56 0 97 -34.5 t41 -84.5q0 -35 -27 -71.5t-117 -133.5l-155 -168h-39z" />
<glyph unicode="&#xe2;" horiz-adv-x="1079" d="M55 242q0 62 35.5 122.5t97.5 94.5q63 34 157 48.5t183 19t117 12.5v184q0 104 -33 150.5t-108 46.5q-81 0 -137 -37q57 -51 57 -123t-40 -112t-116 -40q-65 0 -110 43.5t-45 106.5q0 203 444 203q204 0 302.5 -80.5t98.5 -257.5v-441q0 -75 34 -93t114 17l12 -22 q-66 -46 -119 -69t-114 -23q-101 0 -152 38t-69 117h-9q-138 -157 -305 -157q-143 0 -219 75.5t-76 176.5zM250 1073l305 436h27l288 -436h-32l-277 176l-278 -176h-33zM387 272q0 -72 35.5 -113.5t95.5 -41.5q37 0 72 20.5t55 52.5v308q-153 -17 -205.5 -64t-52.5 -162z " />
<glyph unicode="&#xe3;" horiz-adv-x="1079" d="M55 242q0 62 35.5 122.5t97.5 94.5q63 34 157 48.5t183 19t117 12.5v184q0 104 -33 150.5t-108 46.5q-81 0 -137 -37q57 -51 57 -123t-40 -112t-116 -40q-65 0 -110 43.5t-45 106.5q0 203 444 203q204 0 302.5 -80.5t98.5 -257.5v-441q0 -75 34 -93t114 17l12 -22 q-66 -46 -119 -69t-114 -23q-101 0 -152 38t-69 117h-9q-138 -157 -305 -157q-143 0 -219 75.5t-76 176.5zM221 1075q10 163 59.5 235t145.5 72q48 0 118 -29t132.5 -58t93.5 -29q39 0 60.5 25.5t41.5 97.5h33q-10 -163 -59.5 -235.5t-145.5 -72.5q-48 0 -118 29.5 t-132.5 58.5t-93.5 29q-39 0 -60.5 -25.5t-41.5 -97.5h-33zM387 272q0 -72 35.5 -113.5t95.5 -41.5q37 0 72 20.5t55 52.5v308q-153 -17 -205.5 -64t-52.5 -162z" />
<glyph unicode="&#xe4;" horiz-adv-x="1079" d="M55 242q0 62 35.5 122.5t97.5 94.5q63 34 157 48.5t183 19t117 12.5v184q0 104 -33 150.5t-108 46.5q-81 0 -137 -37q57 -51 57 -123t-40 -112t-116 -40q-65 0 -110 43.5t-45 106.5q0 203 444 203q204 0 302.5 -80.5t98.5 -257.5v-441q0 -75 34 -93t114 17l12 -22 q-66 -46 -119 -69t-114 -23q-101 0 -152 38t-69 117h-9q-138 -157 -305 -157q-143 0 -219 75.5t-76 176.5zM170 1251q0 73 47.5 122.5t120.5 49.5t120.5 -49.5t47.5 -122.5q0 -71 -47.5 -119.5t-120.5 -48.5t-120.5 48.5t-47.5 119.5zM387 272q0 -72 35.5 -113.5t95.5 -41.5 q37 0 72 20.5t55 52.5v308q-153 -17 -205.5 -64t-52.5 -162zM614 1251q0 73 47.5 122.5t120.5 49.5t120.5 -49.5t47.5 -122.5q0 -71 -47.5 -119.5t-120.5 -48.5t-120.5 48.5t-47.5 119.5z" />
<glyph unicode="&#xe5;" horiz-adv-x="1079" d="M55 242q0 62 35.5 122.5t97.5 94.5q63 34 157 48.5t183 19t117 12.5v184q0 104 -33 150.5t-108 46.5q-81 0 -137 -37q57 -51 57 -123t-40 -112t-116 -40q-65 0 -110 43.5t-45 106.5q0 203 444 203q204 0 302.5 -80.5t98.5 -257.5v-441q0 -75 34 -93t114 17l12 -22 q-66 -46 -119 -69t-114 -23q-101 0 -152 38t-69 117h-9q-138 -157 -305 -157q-143 0 -219 75.5t-76 176.5zM281 1309q0 100 72.5 162.5t193.5 62.5q125 0 195.5 -61.5t70.5 -161.5t-72 -164t-194 -64q-125 0 -195.5 62t-70.5 164zM387 272q0 -72 35.5 -113.5t95.5 -41.5 q37 0 72 20.5t55 52.5v308q-153 -17 -205.5 -64t-52.5 -162zM449 1309q0 -189 102 -189q51 0 72.5 47.5t21.5 141.5q0 188 -102 188q-51 0 -72.5 -47.5t-21.5 -140.5z" />
<glyph unicode="&#xe6;" horiz-adv-x="1634" d="M55 242q0 62 35.5 122.5t97.5 94.5q63 34 162 48.5t193.5 19t122.5 12.5v184q0 197 -162 197q-81 0 -137 -37q57 -51 57 -123t-40 -112t-116 -40q-65 0 -110 43.5t-45 106.5q0 203 444 203q193 0 297 -87q121 93 293 93q217 0 332 -128.5t104 -344.5h-606v-29v-4 q0 -193 76.5 -291t224.5 -98q87 0 152.5 41t125.5 123l23 -15q-152 -237 -430 -237q-139 0 -248.5 52t-175.5 144h-8q-62 -83 -158 -136.5t-219 -53.5q-71 0 -127 22t-89.5 59t-51 80.5t-17.5 90.5zM387 272q0 -72 35.5 -113.5t95.5 -41.5q39 0 84 21t64 52v308 q-156 -18 -217.5 -66t-61.5 -160zM977 535h291q20 181 -14.5 286t-118.5 105q-145 0 -158 -391z" />
<glyph unicode="&#xe7;" horiz-adv-x="1015" d="M53 461q0 236 145.5 371t376.5 135q105 0 185.5 -21.5t125.5 -56.5t67 -74.5t22 -81.5q0 -75 -42.5 -120.5t-117.5 -45.5q-82 0 -126 45t-44 111q0 48 24 85t56 52q-15 29 -51 49.5t-88 20.5q-94 0 -146.5 -122.5t-52.5 -326.5q0 -81 16 -152.5t48.5 -130.5t87.5 -93.5 t127 -34.5q79 0 161 44.5t138 121.5l22 -15q-131 -203 -344 -231l-125 -121l4 -6q123 -6 186.5 -62t63.5 -125q0 -87 -71.5 -138.5t-200.5 -51.5q-124 0 -211 33l16 35q100 -23 156 -23t83 25t27 67q0 45 -44 73t-121 28q-16 0 -68 -9l-12 19l258 250h-27q-236 0 -370 125.5 t-134 351.5z" />
<glyph unicode="&#xe8;" horiz-adv-x="1042" d="M53 461q0 157 67.5 273t180.5 174.5t254 58.5q217 0 332 -128.5t104 -344.5h-606v-29v-4q0 -193 76.5 -291t224.5 -98q87 0 153 41t126 123l22 -15q-152 -237 -430 -237q-230 0 -367 124.5t-137 352.5zM283 1446q0 50 40.5 84.5t96.5 34.5q61 0 89.5 -49t57.5 -189 l54 -254h-39l-156 168q-89 96 -116 133t-27 72zM385 535h291q20 181 -14.5 286t-118.5 105q-145 0 -158 -391z" />
<glyph unicode="&#xe9;" horiz-adv-x="1042" d="M53 461q0 157 67.5 273t180.5 174.5t254 58.5q217 0 332 -128.5t104 -344.5h-606v-29v-4q0 -193 76.5 -291t224.5 -98q87 0 153 41t126 123l22 -15q-152 -237 -430 -237q-230 0 -367 124.5t-137 352.5zM385 535h291q20 181 -14.5 286t-118.5 105q-145 0 -158 -391z M481 1073l54 254q29 140 57.5 189t89.5 49q56 0 96.5 -34.5t40.5 -84.5q0 -35 -27 -72t-116 -133l-156 -168h-39z" />
<glyph unicode="&#xea;" horiz-adv-x="1042" d="M53 461q0 157 67.5 273t180.5 174.5t254 58.5q217 0 332 -128.5t104 -344.5h-606v-29v-4q0 -193 76.5 -291t224.5 -98q87 0 153 41t126 123l22 -15q-152 -237 -430 -237q-230 0 -367 124.5t-137 352.5zM242 1073l305 436h26l289 -436h-33l-276 176l-279 -176h-32z M385 535h291q20 181 -14.5 286t-118.5 105q-145 0 -158 -391z" />
<glyph unicode="&#xeb;" horiz-adv-x="1042" d="M53 461q0 157 67.5 273t180.5 174.5t254 58.5q217 0 332 -128.5t104 -344.5h-606v-29v-4q0 -193 76.5 -291t224.5 -98q87 0 153 41t126 123l22 -15q-152 -237 -430 -237q-230 0 -367 124.5t-137 352.5zM164 1251q0 73 47.5 122.5t120.5 49.5t120.5 -49.5t47.5 -122.5 q0 -71 -47.5 -119.5t-120.5 -48.5t-120.5 48.5t-47.5 119.5zM385 535h291q20 181 -14.5 286t-118.5 105q-145 0 -158 -391zM608 1251q0 73 47.5 122.5t120.5 49.5t120.5 -49.5t47.5 -122.5q0 -71 -47.5 -119.5t-120.5 -48.5t-120.5 48.5t-47.5 119.5z" />
<glyph unicode="&#xec;" horiz-adv-x="665" d="M33 0v25q85 1 116 17t31 54v709q0 49 -32 74t-115 26v25l463 24v-858q0 -39 26 -54.5t111 -16.5v-25h-600zM33 1446q0 50 40.5 84.5t96.5 34.5q61 0 89.5 -49t57.5 -189l54 -254h-39l-156 168q-89 96 -116 133t-27 72z" />
<glyph unicode="&#xed;" horiz-adv-x="665" d="M33 0v25q85 1 116 17t31 54v709q0 49 -32 74t-115 26v25l463 24v-858q0 -39 26 -54.5t111 -16.5v-25h-600zM231 1073l54 254q29 140 57.5 189t89.5 49q56 0 96.5 -34.5t40.5 -84.5q0 -35 -27 -72t-116 -133l-156 -168h-39z" />
<glyph unicode="&#xee;" horiz-adv-x="665" d="M-8 1073l305 436h27l288 -436h-32l-277 176l-278 -176h-33zM33 0v25q85 1 116 17t31 54v709q0 49 -32 74t-115 26v25l463 24v-858q0 -39 26 -54.5t111 -16.5v-25h-600z" />
<glyph unicode="&#xef;" horiz-adv-x="665" d="M-82 1251q0 73 47.5 122.5t120.5 49.5t120.5 -49.5t47.5 -122.5q0 -71 -47.5 -119.5t-120.5 -48.5t-120.5 48.5t-47.5 119.5zM33 0v25q85 1 116 17t31 54v709q0 49 -32 74t-115 26v25l463 24v-858q0 -39 26 -54.5t111 -16.5v-25h-600zM362 1251q0 73 47.5 122.5 t120.5 49.5t120.5 -49.5t47.5 -122.5q0 -71 -47.5 -119.5t-120.5 -48.5t-120.5 48.5t-47.5 119.5z" />
<glyph unicode="&#xf0;" horiz-adv-x="1122" d="M53 473q0 217 137.5 354.5t339.5 137.5q135 0 191 -101l8 4q-27 197 -127 328l-256 -123l-16 37l248 119q-113 130 -318 213l10 31q281 -48 459 -170l203 98l16 -37l-180 -88q303 -225 303 -645q0 -158 -27.5 -274t-88.5 -201.5t-165 -128.5t-251 -43q-222 0 -354 130.5 t-132 358.5zM387 477q0 -220 42.5 -336t141.5 -116q50 0 83 31.5t51 97.5t25 152t7 212q0 408 -174 408q-50 0 -85 -32t-54.5 -93.5t-28 -140t-8.5 -183.5z" />
<glyph unicode="&#xf1;" horiz-adv-x="1249" d="M41 0v25q84 1 111.5 16.5t27.5 54.5v709q0 50 -28.5 74.5t-110.5 25.5v25l451 24v-194q65 91 160.5 146t193.5 55q260 0 260 -306v-559q0 -39 26.5 -54.5t110.5 -16.5v-25h-557v25q55 2 80 18.5t25 52.5v557q0 170 -132 170q-79 0 -163 -104v-623q0 -36 23.5 -52.5 t76.5 -18.5v-25h-555zM283 1075q10 163 59 235t145 72q48 0 118 -29t132.5 -58t93.5 -29q39 0 61 25.5t42 97.5h33q-10 -163 -59.5 -235.5t-145.5 -72.5q-48 0 -118 29.5t-132.5 58.5t-93.5 29q-39 0 -61 -25.5t-42 -97.5h-32z" />
<glyph unicode="&#xf2;" horiz-adv-x="1124" d="M53 473q0 228 137.5 361t372.5 133q241 0 374.5 -128.5t133.5 -357.5q0 -230 -137 -363.5t-371 -133.5q-243 0 -376.5 129t-133.5 360zM283 1446q0 50 40.5 84.5t96.5 34.5q61 0 89.5 -49t57.5 -189l54 -254h-39l-156 168q-89 96 -116 133t-27 72zM387 477 q0 -220 42.5 -336t141.5 -116q49 0 82.5 30.5t51.5 93t25 140.5t7 188q0 144 -16.5 240t-58 152.5t-109.5 56.5q-50 0 -83.5 -30t-51 -92t-24.5 -139t-7 -188z" />
<glyph unicode="&#xf3;" horiz-adv-x="1124" d="M53 473q0 228 137.5 361t372.5 133q241 0 374.5 -128.5t133.5 -357.5q0 -230 -137 -363.5t-371 -133.5q-243 0 -376.5 129t-133.5 360zM387 477q0 -220 42.5 -336t141.5 -116q49 0 82.5 30.5t51.5 93t25 140.5t7 188q0 144 -16.5 240t-58 152.5t-109.5 56.5 q-50 0 -83.5 -30t-51 -92t-24.5 -139t-7 -188zM502 1073l53 254q29 140 57.5 189t89.5 49q56 0 97 -34.5t41 -84.5q0 -35 -27 -71.5t-117 -133.5l-155 -168h-39z" />
<glyph unicode="&#xf4;" horiz-adv-x="1124" d="M53 473q0 228 137.5 361t372.5 133q241 0 374.5 -128.5t133.5 -357.5q0 -230 -137 -363.5t-371 -133.5q-243 0 -376.5 129t-133.5 360zM252 1073l305 436h27l288 -436h-32l-277 176l-278 -176h-33zM387 477q0 -220 42.5 -336t141.5 -116q49 0 82.5 30.5t51.5 93t25 140.5 t7 188q0 144 -16.5 240t-58 152.5t-109.5 56.5q-50 0 -83.5 -30t-51 -92t-24.5 -139t-7 -188z" />
<glyph unicode="&#xf5;" horiz-adv-x="1124" d="M53 473q0 228 137.5 361t372.5 133q241 0 374.5 -128.5t133.5 -357.5q0 -230 -137 -363.5t-371 -133.5q-243 0 -376.5 129t-133.5 360zM219 1075q10 163 59.5 235t145.5 72q48 0 118 -29t132.5 -58t93.5 -29q39 0 60.5 25.5t41.5 97.5h33q-10 -163 -59.5 -235.5 t-145.5 -72.5q-48 0 -118 29.5t-132.5 58.5t-93.5 29q-39 0 -60.5 -25.5t-41.5 -97.5h-33zM387 477q0 -220 42.5 -336t141.5 -116q49 0 82.5 30.5t51.5 93t25 140.5t7 188q0 144 -16.5 240t-58 152.5t-109.5 56.5q-50 0 -83.5 -30t-51 -92t-24.5 -139t-7 -188z" />
<glyph unicode="&#xf6;" horiz-adv-x="1124" d="M53 473q0 228 137.5 361t372.5 133q241 0 374.5 -128.5t133.5 -357.5q0 -230 -137 -363.5t-371 -133.5q-243 0 -376.5 129t-133.5 360zM172 1251q0 73 47.5 122.5t120.5 49.5t120.5 -49.5t47.5 -122.5q0 -71 -47.5 -119.5t-120.5 -48.5t-120.5 48.5t-47.5 119.5zM387 477 q0 -220 42.5 -336t141.5 -116q49 0 82.5 30.5t51.5 93t25 140.5t7 188q0 144 -16.5 240t-58 152.5t-109.5 56.5q-50 0 -83.5 -30t-51 -92t-24.5 -139t-7 -188zM616 1251q0 73 47.5 122.5t120.5 49.5t120.5 -49.5t47.5 -122.5q0 -71 -47.5 -119.5t-120.5 -48.5t-120.5 48.5 t-47.5 119.5z" />
<glyph unicode="&#xf7;" horiz-adv-x="1177" d="M111 649v45h956v-45h-956zM469 375q0 50 35 84.5t86 34.5q50 0 84.5 -35t34.5 -84t-34.5 -84t-84.5 -35q-51 0 -86 34.5t-35 84.5zM469 969q0 50 35 84t86 34q50 0 84.5 -34.5t34.5 -83.5t-34.5 -84t-84.5 -35q-51 0 -86 34.5t-35 84.5z" />
<glyph unicode="&#xf8;" horiz-adv-x="1124" d="M53 473q0 228 137.5 361t372.5 133q188 0 318 -84l100 116h55l-121 -141q156 -131 156 -377q0 -230 -137 -363.5t-371 -133.5q-196 0 -321 84l-99 -117h-55l121 141q-156 128 -156 381zM387 477q0 -91 6 -168l330 387q-36 230 -170 230q-50 0 -83.5 -30t-51 -92 t-24.5 -139t-7 -188zM401 254q36 -229 170 -229q49 0 82.5 30.5t51.5 93t25 140.5t7 188q0 91 -6 164z" />
<glyph unicode="&#xf9;" horiz-adv-x="1230" d="M16 922v24l455 8v-653q0 -174 135 -174q46 0 82 22.5t74 73.5v598q0 49 -30 72.5t-109 26.5v24l454 10v-850q0 -45 27 -59.5t113 -19.5v-25h-451v182q-60 -96 -142 -147t-178 -51q-138 0 -214 78.5t-76 230.5v528q0 50 -29 75t-111 26zM336 1446q0 50 40.5 84.5 t96.5 34.5q61 0 90 -49t58 -189l53 -254h-39l-156 168q-89 96 -116 133t-27 72z" />
<glyph unicode="&#xfa;" horiz-adv-x="1230" d="M16 922v24l455 8v-653q0 -174 135 -174q46 0 82 22.5t74 73.5v598q0 49 -30 72.5t-109 26.5v24l454 10v-850q0 -45 27 -59.5t113 -19.5v-25h-451v182q-60 -96 -142 -147t-178 -51q-138 0 -214 78.5t-76 230.5v528q0 50 -29 75t-111 26zM494 1073l53 254q29 140 57.5 189 t89.5 49q56 0 96.5 -34.5t40.5 -84.5q0 -35 -27 -72t-116 -133l-156 -168h-38z" />
<glyph unicode="&#xfb;" horiz-adv-x="1230" d="M16 922v24l455 8v-653q0 -174 135 -174q46 0 82 22.5t74 73.5v598q0 49 -30 72.5t-109 26.5v24l454 10v-850q0 -45 27 -59.5t113 -19.5v-25h-451v182q-60 -96 -142 -147t-178 -51q-138 0 -214 78.5t-76 230.5v528q0 50 -29 75t-111 26zM276 1073l306 436h26l289 -436h-33 l-276 176l-279 -176h-33z" />
<glyph unicode="&#xfc;" horiz-adv-x="1230" d="M16 922v24l455 8v-653q0 -174 135 -174q46 0 82 22.5t74 73.5v598q0 49 -30 72.5t-109 26.5v24l454 10v-850q0 -45 27 -59.5t113 -19.5v-25h-451v182q-60 -96 -142 -147t-178 -51q-138 0 -214 78.5t-76 230.5v528q0 50 -29 75t-111 26zM195 1251q0 73 47 122.5t120 49.5 t120.5 -49.5t47.5 -122.5q0 -71 -47.5 -119.5t-120.5 -48.5t-120 48.5t-47 119.5zM639 1251q0 73 47.5 122.5t120.5 49.5t120.5 -49.5t47.5 -122.5q0 -71 -47.5 -119.5t-120.5 -48.5t-120.5 48.5t-47.5 119.5z" />
<glyph unicode="&#xfd;" horiz-adv-x="1056" d="M-41 926v24h602v-24q-83 -9 -106 -30t0 -71l233 -528l172 436q36 92 6 134t-141 59v24h412v-24q-71 -8 -120.5 -41.5t-78.5 -102.5l-373 -893q-124 -299 -329 -299q-99 0 -153 44.5t-54 125.5q0 58 40 103t107 45q59 0 100 -42t41 -104q0 -76 -55 -127q81 6 145 72.5 t121 212.5l13 29l-412 852q-34 69 -64 91t-106 34zM602 1073l53 254q29 140 58 189t90 49q56 0 96.5 -34.5t40.5 -84.5q0 -35 -27 -72t-116 -133l-156 -168h-39z" />
<glyph unicode="&#xfe;" horiz-adv-x="1181" d="M-16 1419v25l460 24v-630q76 64 144.5 96.5t150.5 32.5q181 0 281 -130.5t100 -353.5q0 -138 -49.5 -250t-150.5 -180.5t-238 -68.5t-238 43v-318q0 -38 37.5 -52.5t153.5 -18.5v-25h-643v25q84 1 110.5 16.5t26.5 54.5v1610q0 51 -28 75t-117 25zM444 143 q59 -118 174 -118q80 0 125 111.5t45 334.5q0 83 -10 151t-32 123t-60.5 85t-91.5 30q-70 0 -150 -55v-662z" />
<glyph unicode="&#xff;" horiz-adv-x="1056" d="M-41 926v24h602v-24q-83 -9 -106 -30t0 -71l233 -528l172 436q36 92 6 134t-141 59v24h412v-24q-71 -8 -120.5 -41.5t-78.5 -102.5l-373 -893q-124 -299 -329 -299q-99 0 -153 44.5t-54 125.5q0 58 40 103t107 45q59 0 100 -42t41 -104q0 -76 -55 -127q81 6 145 72.5 t121 212.5l13 29l-412 852q-34 69 -64 91t-106 34zM217 1251q0 73 47.5 122.5t120.5 49.5t120.5 -49.5t47.5 -122.5q0 -71 -47.5 -119.5t-120.5 -48.5t-120.5 48.5t-47.5 119.5zM662 1251q0 73 47 122.5t120 49.5t120.5 -49.5t47.5 -122.5q0 -71 -47.5 -119.5t-120.5 -48.5 t-120 48.5t-47 119.5z" />
<glyph unicode="&#x11e;" horiz-adv-x="1564" d="M82 711q0 223 101.5 395t275.5 264t391 92q215 0 385 -96l106 107h25v-519h-33q-58 118 -108.5 198t-110.5 145t-128 95.5t-148 30.5q-167 0 -274 -181.5t-107 -526.5q0 -347 109.5 -529t285.5 -182q136 0 215 62v464q0 56 -47 82.5t-170 30.5v27h694v-27 q-87 -5 -119 -27t-32 -84v-419q-254 -148 -576 -148q-216 0 -381.5 87.5t-259.5 258t-94 400.5zM512 1927h31q28 -84 100 -128t160 -44q92 0 164.5 45t99.5 127h31q-10 -171 -89.5 -261.5t-201.5 -90.5t-202.5 90.5t-92.5 261.5z" />
<glyph unicode="&#x11f;" horiz-adv-x="997" d="M20 -215q0 66 52 105t172 57v4q-86 29 -129 85.5t-43 119.5q0 56 64 112.5t175 79.5q-112 35 -174.5 108t-62.5 183q0 146 120.5 234t311.5 88q100 0 192 -29q38 89 100.5 145t141.5 56q63 0 97 -33.5t34 -87.5q0 -46 -28.5 -77.5t-79.5 -31.5q-43 0 -78 34.5t-35 88.5 q-31 -14 -62.5 -43t-52.5 -65q94 -38 147.5 -107t53.5 -164q0 -147 -120 -235t-310 -88q-63 0 -131 10q-61 -17 -86 -38t-25 -52q0 -62 170 -62h240q338 0 338 -245q0 -143 -153.5 -245t-393.5 -102q-194 0 -319.5 53.5t-125.5 141.5zM217 -190q0 -96 75 -139.5t226 -43.5 q133 0 213 52.5t80 146.5q0 59 -49.5 89t-169.5 30h-299q-76 -58 -76 -135zM227 1436h31q28 -84 100 -128t160 -44q92 0 164.5 45t99.5 127h31q-10 -171 -89.5 -262t-201.5 -91t-202.5 91t-92.5 262zM373 643q0 -151 32 -217t109 -66q72 0 97.5 63.5t25.5 219.5 q0 140 -32.5 210.5t-108.5 70.5q-74 0 -98.5 -62t-24.5 -219z" />
<glyph unicode="&#x130;" horiz-adv-x="915" d="M76 0v29q125 4 168 26.5t43 77.5v1161q0 56 -43.5 79.5t-167.5 27.5v26h764v-26q-124 -4 -167.5 -27.5t-43.5 -79.5v-1161q0 -55 43 -77.5t168 -26.5v-29h-764zM274 1751q0 84 50.5 135t132.5 51q83 0 132.5 -48t49.5 -130q0 -85 -49.5 -134.5t-132.5 -49.5t-133 46.5 t-50 129.5z" />
<glyph unicode="&#x131;" horiz-adv-x="665" d="M33 0v25q85 1 116 17t31 54v709q0 49 -32 74t-115 26v25l463 24v-858q0 -39 26 -54.5t111 -16.5v-25h-600z" />
<glyph unicode="&#x152;" horiz-adv-x="2236" d="M82 686q0 120 25 226.5t82 202t141.5 164t211 108.5t283.5 40h1229l6 -505l-32 -4q-50 104 -75.5 155t-64.5 117.5t-68.5 94.5t-73 58.5t-92.5 40t-114 9.5h-188v-635h67q124 0 200 64t116 212h26v-592h-26q-41 150 -116.5 215.5t-199.5 65.5h-67v-686h174q77 0 135 10 t108 37t86.5 61t76 96.5t71.5 128t78 169.5l33 -4l-11 -535h-1241q-194 0 -343.5 50t-244.5 141t-143.5 216t-48.5 279zM451 711q0 -159 21 -278.5t57.5 -194t91 -120.5t114 -63.5t135.5 -17.5q138 0 138 96v1161q0 95 -129 95q-156 0 -247 -60.5t-136 -209t-45 -408.5z" />
<glyph unicode="&#x153;" horiz-adv-x="1718" d="M53 473q0 228 137.5 361t372.5 133q207 0 338 -121q130 121 330 121q217 0 332 -128.5t104 -344.5h-606v-29v-4q0 -193 76.5 -291t224.5 -98q87 0 152.5 41t125.5 123l23 -15q-152 -237 -430 -237q-198 0 -330 116q-129 -116 -340 -116q-243 0 -376.5 129t-133.5 360z M387 477q0 -220 42.5 -336t141.5 -116q49 0 82.5 30.5t51.5 93t25 140.5t7 188q0 144 -16.5 240t-58 152.5t-109.5 56.5q-50 0 -83.5 -30t-51 -92t-24.5 -139t-7 -188zM1061 535h291q20 181 -14.5 286t-118.5 105q-145 0 -158 -391z" />
<glyph unicode="&#x15e;" horiz-adv-x="1218" d="M100 -35v527h33q112 -227 247 -353.5t275 -126.5q124 0 195.5 70.5t71.5 173.5q0 110 -86.5 182t-274.5 133q-56 18 -96 33t-90 38t-84.5 45.5t-70 55t-57 69t-35 84.5t-13.5 103q0 204 137 329.5t360 125.5q170 0 320 -86l98 98h25v-471h-33q-114 219 -218.5 319.5 t-219.5 100.5q-99 0 -171.5 -61t-72.5 -166q0 -108 88 -176.5t281 -128.5q69 -21 119 -41.5t109.5 -56t96.5 -77.5t62.5 -105t25.5 -140q0 -91 -26.5 -173t-79 -150t-139.5 -112t-199 -53l-111 -106l4 -6q123 -6 186.5 -62t63.5 -125q0 -87 -71.5 -138.5t-200.5 -51.5 q-124 0 -211 33l16 35q100 -23 156 -23t83.5 25t27.5 67q0 45 -44.5 73t-121.5 28q-16 0 -68 -9l-12 19l246 239q-89 0 -195.5 27.5t-183.5 71.5l-117 -107h-25z" />
<glyph unicode="&#x15f;" horiz-adv-x="925" d="M70 -16v360h30q103 -162 197.5 -240.5t200.5 -78.5q72 0 111.5 36.5t39.5 102.5q0 67 -53 104.5t-217 87.5q-170 51 -239.5 112.5t-69.5 174.5q0 149 105.5 236.5t283.5 87.5q163 0 278 -76l62 76h24v-324h-30q-50 76 -85 122t-76 86t-82.5 57.5t-90.5 17.5 q-66 0 -105 -40.5t-39 -109.5q0 -58 55 -91.5t165 -59.5q179 -42 265.5 -112t86.5 -196q0 -129 -92 -218.5t-242 -108.5l-123 -121l4 -6q123 -6 186.5 -62t63.5 -125q0 -87 -71.5 -138.5t-200.5 -51.5q-124 0 -211 33l16 35q100 -23 156 -23t83 25t27 67q0 45 -44.5 73 t-121.5 28q-15 0 -67 -9l-12 19l258 250h-19q-58 0 -170 27.5t-151 51.5l-62 -79h-24z" />
<glyph unicode="&#x178;" horiz-adv-x="1435" d="M-41 1401v26h768v-26q-100 -6 -145.5 -27t-45.5 -58t31 -91l295 -559l262 473q65 119 43 174t-143 88v26h473v-26q-106 -19 -183.5 -89t-174.5 -243l-248 -444v-492q0 -55 43 -77.5t168 -26.5v-29h-764v29q125 4 168 26.5t43 77.5v449l-356 651q-46 79 -93.5 113.5 t-140.5 54.5zM467 1743q0 73 47.5 122.5t120.5 49.5t120.5 -49.5t47.5 -122.5q0 -71 -47.5 -119.5t-120.5 -48.5t-120.5 48.5t-47.5 119.5zM911 1743q0 73 47.5 122.5t120.5 49.5t120.5 -49.5t47.5 -122.5q0 -71 -47.5 -119.5t-120.5 -48.5t-120.5 48.5t-47.5 119.5z" />
<glyph unicode="&#x2c6;" horiz-adv-x="673" d="M27 1073l305 436h26l289 -436h-33l-276 176l-279 -176h-32z" />
<glyph unicode="&#x2da;" horiz-adv-x="577" d="M23 1309q0 100 72.5 162.5t193.5 62.5q125 0 195.5 -61.5t70.5 -161.5t-72 -164t-194 -64q-125 0 -195.5 62t-70.5 164zM190 1309q0 -189 103 -189q51 0 72.5 47.5t21.5 141.5q0 188 -102 188q-51 0 -73 -47.5t-22 -140.5z" />
<glyph unicode="&#x2dc;" horiz-adv-x="749" d="M33 1075q10 163 59.5 235t145.5 72q48 0 118 -29t132.5 -58t93.5 -29q39 0 60.5 25.5t41.5 97.5h33q-10 -163 -59.5 -235.5t-145.5 -72.5q-48 0 -118 29.5t-132.5 58.5t-93.5 29q-39 0 -60.5 -25.5t-41.5 -97.5h-33z" />
<glyph unicode="&#x2000;" horiz-adv-x="1028" />
<glyph unicode="&#x2001;" horiz-adv-x="2056" />
<glyph unicode="&#x2002;" horiz-adv-x="1028" />
<glyph unicode="&#x2003;" horiz-adv-x="2056" />
<glyph unicode="&#x2004;" horiz-adv-x="685" />
<glyph unicode="&#x2005;" horiz-adv-x="514" />
<glyph unicode="&#x2006;" horiz-adv-x="342" />
<glyph unicode="&#x2007;" horiz-adv-x="342" />
<glyph unicode="&#x2008;" horiz-adv-x="257" />
<glyph unicode="&#x2009;" horiz-adv-x="411" />
<glyph unicode="&#x200a;" horiz-adv-x="114" />
<glyph unicode="&#x2010;" horiz-adv-x="749" d="M113 492v83h524v-83h-524z" />
<glyph unicode="&#x2011;" horiz-adv-x="749" d="M113 492v83h524v-83h-524z" />
<glyph unicode="&#x2012;" horiz-adv-x="749" d="M113 492v83h524v-83h-524z" />
<glyph unicode="&#x2013;" horiz-adv-x="1105" d="M113 518v45h880v-45h-880z" />
<glyph unicode="&#x2014;" horiz-adv-x="1617" d="M113 518v45h1392v-45h-1392z" />
<glyph unicode="&#x2018;" horiz-adv-x="552" d="M90 1038q0 144 105 264t282 166l12 -24q-79 -41 -137.5 -100t-84 -108t-29.5 -89l8 -4q30 12 63 12q60 0 107 -45.5t47 -120.5q0 -73 -48.5 -125.5t-123.5 -52.5q-91 0 -146 63t-55 164z" />
<glyph unicode="&#x2019;" horiz-adv-x="552" d="M63 827q116 60 180.5 146t71.5 151l-8 4q-30 -12 -63 -12q-60 0 -107 45.5t-47 120.5q0 73 48.5 125.5t123.5 52.5q91 0 146 -63t55 -164q0 -144 -105 -264t-282 -166z" />
<glyph unicode="&#x201a;" horiz-adv-x="552" d="M63 -311q116 60 180.5 146t71.5 151l-8 4q-33 -13 -63 -13q-60 0 -107 45.5t-47 120.5q0 73 48.5 126t123.5 53q91 0 146 -63.5t55 -164.5q0 -144 -105 -264t-282 -166z" />
<glyph unicode="&#x201c;" horiz-adv-x="1009" d="M90 1038q0 144 105 264t282 166l12 -24q-79 -41 -137.5 -100t-84 -108t-29.5 -89l8 -4q30 12 63 12q60 0 107 -45.5t47 -120.5q0 -73 -48.5 -125.5t-123.5 -52.5q-91 0 -146 63t-55 164zM547 1038q0 144 105 264t282 166l12 -24q-116 -60 -180.5 -146t-71.5 -151l8 -4 q30 12 64 12q60 0 107 -45.5t47 -120.5q0 -73 -48.5 -125.5t-123.5 -52.5q-91 0 -146 63t-55 164z" />
<glyph unicode="&#x201d;" horiz-adv-x="1009" d="M63 827q116 60 180.5 146t71.5 151l-8 4q-30 -12 -63 -12q-60 0 -107 45.5t-47 120.5q0 73 48.5 125.5t123.5 52.5q91 0 146 -63t55 -164q0 -144 -105 -264t-282 -166zM520 827q116 60 180.5 146t71.5 151l-8 4q-30 -12 -64 -12q-60 0 -106.5 45.5t-46.5 120.5 q0 73 48.5 125.5t123.5 52.5q91 0 146 -63t55 -164q0 -144 -105.5 -264t-282.5 -166z" />
<glyph unicode="&#x201e;" horiz-adv-x="1009" d="M63 -311q116 60 180.5 146t71.5 151l-8 4q-33 -13 -63 -13q-60 0 -107 45.5t-47 120.5q0 73 48.5 126t123.5 53q91 0 146 -63.5t55 -164.5q0 -144 -105 -264t-282 -166zM520 -311q116 60 180.5 146t71.5 151l-8 4q-32 -13 -64 -13q-60 0 -106.5 45.5t-46.5 120.5 q0 73 48.5 126t123.5 53q91 0 146 -63.5t55 -164.5q0 -144 -105.5 -264t-282.5 -166z" />
<glyph unicode="&#x2020;" horiz-adv-x="1198" d="M49 961q0 54 51 93.5t123 39.5q57 0 124.5 -23.5t115 -50t117.5 -70.5l6 6l-66 211q-47 146 -47 234q0 67 34 108t93 41t93 -41t34 -108q0 -88 -47 -234l-66 -211l7 -6q70 44 117.5 70.5t115 50t123.5 23.5q72 0 123 -39.5t51 -93.5q0 -55 -39.5 -84t-95.5 -29 q-31 0 -80 25.5t-106 51t-109 25.5q-45 0 -72.5 -26.5t-27.5 -65.5q0 -43 34 -86l105 -129q-34 -100 -80 -356.5t-66 -507.5h-28q-20 251 -66 507.5t-80 356.5l105 129q35 44 35 86q0 39 -28 65.5t-73 26.5q-52 0 -109 -25.5t-106 -51t-80 -25.5q-56 0 -95.5 29t-39.5 84z " />
<glyph unicode="&#x2021;" horiz-adv-x="1239" d="M70 336q0 55 39.5 84t95.5 29q31 0 80 -25.5t106 -51.5t109 -26q45 0 71.5 21t26.5 59q0 50 -39 109l-84 129l84 127q39 59 39 104q0 40 -26.5 62t-71.5 22q-52 0 -109 -25.5t-106 -51t-80 -25.5q-56 0 -95.5 28.5t-39.5 83.5q0 54 51 93.5t123 39.5q81 0 165 -37.5 t191 -105.5l6 6l-65 203q-47 146 -47 221q0 64 34 102.5t93 38.5t93 -38.5t34 -102.5q0 -72 -48 -221l-65 -203l6 -6q107 68 191 105.5t165 37.5q72 0 123 -39.5t51 -93.5q0 -55 -39.5 -83.5t-95.5 -28.5q-31 0 -80 25.5t-106 51t-109 25.5q-45 0 -71.5 -21t-26.5 -59 q0 -49 39 -108l84 -127l-84 -129q-39 -59 -39 -105q0 -40 26.5 -62t71.5 -22q52 0 109 26t106 51.5t80 25.5q56 0 95.5 -29t39.5 -84q0 -54 -51 -93.5t-123 -39.5q-81 0 -165 37.5t-191 105.5l-6 -6l65 -203q48 -149 48 -221q0 -64 -34 -102.5t-93 -38.5t-93 38.5t-34 102.5 q0 75 47 221l65 203l-6 6q-107 -68 -191 -105.5t-165 -37.5q-72 0 -123 39.5t-51 93.5z" />
<glyph unicode="&#x2022;" horiz-adv-x="983" d="M203 678q0 120 82.5 203.5t206.5 83.5t206 -83.5t82 -203.5t-82 -203.5t-206 -83.5t-206.5 83.5t-82.5 203.5z" />
<glyph unicode="&#x2026;" horiz-adv-x="1609" d="M92 141q0 73 54.5 127t132.5 54t130 -52t52 -125t-54.5 -126.5t-132.5 -53.5t-130 51.5t-52 124.5zM621 141q0 73 54 127t132 54t130 -52t52 -125t-54 -126.5t-132 -53.5t-130 51.5t-52 124.5zM1149 141q0 73 54 127t132 54t130.5 -52t52.5 -125t-54.5 -126.5 t-132.5 -53.5t-130 51.5t-52 124.5z" />
<glyph unicode="&#x202f;" horiz-adv-x="411" />
<glyph unicode="&#x2039;" horiz-adv-x="634" d="M68 463q0 9 2 14t13.5 17.5t35.5 33.5l411 344l25 -18l-229 -391l229 -393l-25 -17l-411 344q-24 20 -35.5 33t-13.5 18.5t-2 14.5z" />
<glyph unicode="&#x203a;" horiz-adv-x="634" d="M80 70l229 391l-229 393l24 16l412 -344q24 -21 35.5 -33.5t13.5 -17.5t2 -14t-2 -14.5t-13.5 -18.5t-35.5 -33l-412 -344z" />
<glyph unicode="&#x2044;" horiz-adv-x="1251" d="M88 -63l508 731l500 733h67l-506 -733l-501 -731h-68z" />
<glyph unicode="&#x205f;" horiz-adv-x="514" />
<glyph unicode="&#x20ac;" horiz-adv-x="1462" d="M49 559v43h168q-2 18 -2 60q0 64 8 116h-174v43h180q24 122 84 227.5t149 184t212 123.5t264 45q186 0 309 -88.5t123 -210.5q0 -80 -51 -130t-127 -50q-81 0 -132.5 47t-51.5 133q0 66 37.5 111t89.5 67q-31 33 -87.5 57.5t-117.5 24.5q-166 0 -266 -141.5t-117 -399.5 h418v-43h-420v-55q0 -69 8 -121h412v-43h-406q36 -196 148.5 -316t273.5 -120q108 0 208 59.5t171 163.5l35 -20q-172 -361 -539 -361q-141 0 -256 45.5t-193.5 126t-126 187.5t-61.5 235h-170z" />
<glyph unicode="&#x2122;" horiz-adv-x="1368" d="M74 1255l8 187h471l6 -187h-22q-72 162 -140 162h-8v-397q0 -18 16.5 -24.5t61.5 -6.5v-22h-299v22q45 0 61.5 6.5t16.5 24.5v397h-10q-30 0 -68 -47t-70 -115h-24zM612 967v18q44 4 58 23.5t14 68.5v283q0 58 -72 61v21h230l116 -320h9l108 320h223v-21q-44 -3 -58.5 -9 t-14.5 -23v-369q0 -17 15 -23t58 -8v-22h-276v22q37 2 49 8t12 23v334h-8l-129 -387h-74l-147 389h-8v-279q0 -49 14 -67.5t60 -24.5v-18h-179z" />
<glyph unicode="&#x25fc;" horiz-adv-x="952" d="M0 0v952h952v-952h-952z" />
</font>
</defs>
</svg>
